<svg width="505" height="518" viewBox="0 0 505 518" fill="none" xmlns="http://www.w3.org/2000/svg">
<g clip-path="url(#clip0_14_2409)">
<mask id="mask0_14_2409" style="mask-type:luminance" maskUnits="userSpaceOnUse" x="0" y="0" width="505" height="518">
<path d="M505 0H0V518H505V0Z" fill="white"/>
</mask>
<g mask="url(#mask0_14_2409)">
<path fill-rule="evenodd" clip-rule="evenodd" d="M439.155 305.938C439.155 305.938 438.991 306.063 439.038 306.125L414.225 346.396C414.225 346.396 410.486 374.081 401.463 374.37L394.321 390.791C394.54 390.314 396.882 386.026 407.387 392.517L458.231 355.137C458.231 355.137 477.502 349.231 483.918 382.01C490.326 414.781 489.569 464.957 482.38 462.52C475.192 460.082 474.684 430.421 450.613 434.991L425.464 460.911C425.464 460.911 432.255 480.792 397.397 490.33C362.546 499.868 294.703 538.287 285.969 503.454C277.243 468.613 295.905 368.667 295.905 368.667L273.059 358.84C273.059 358.84 288.779 384.463 268.766 396.322L270.577 496.767C270.577 496.767 200.314 507.844 161.28 498.111C161.28 498.111 155.301 493.119 171.091 486.245C186.889 479.37 216.245 469.058 204.295 404.462C204.295 404.462 183.533 393.033 184.75 358.34C185.968 323.647 163.348 269.292 178.405 258.973L188.2 254.614C188.2 254.614 169.273 228.327 176.758 206.875C176.758 206.875 186.116 171.44 192.532 186.384C192.532 186.384 204.014 180.877 204.037 194.54C204.037 194.54 214.106 187.384 212.607 199.133C212.607 199.133 206.199 211.484 209.797 217.265L234.548 240.56C234.548 240.56 244.671 152.324 276.767 142.2L273.239 114.804C273.239 114.804 266.268 77.6738 263.833 58.1987C263.833 58.1987 256.848 11.671 274.128 5.47615C291.401 -0.718695 328.999 -11.2804 342.768 37.6456C356.536 86.5794 364.053 110.624 373.997 114.851C373.997 114.851 394.837 120.413 400.714 124.702C406.591 128.99 488.234 181.025 502.104 207.82C515.966 234.615 476.597 292.298 456.522 300.118C441.348 306.032 439.186 306.344 439.038 306.141L439.155 305.953V305.938ZM406.552 227.256L424.442 237.466L412.64 252.973L406.544 227.264L406.552 227.256Z" fill="#FFC614"/>
</g>
<mask id="mask1_14_2409" style="mask-type:luminance" maskUnits="userSpaceOnUse" x="160" y="0" width="345" height="518">
<path d="M301.002 0C317.112 0.0703072 334.369 7.78847 342.768 37.63C356.536 86.5638 364.053 110.609 373.997 114.827C373.997 114.827 394.837 120.389 400.714 124.678C406.591 128.967 488.234 181.002 502.104 207.797C515.966 234.592 476.597 292.275 456.522 300.095C441.348 306.008 439.186 306.321 439.038 306.118L439.155 305.93C439.155 305.93 438.991 306.047 439.038 306.118L414.225 346.388C414.225 346.388 410.486 374.073 401.463 374.362L394.321 390.783C394.54 390.306 396.882 386.018 407.387 392.509L458.231 355.122C458.231 355.122 477.502 349.216 483.918 381.995C490.326 414.766 489.569 464.941 482.38 462.504C475.192 460.067 474.684 430.405 450.613 434.975L425.464 460.895C425.464 460.895 432.247 480.776 397.397 490.315C362.538 499.853 294.703 538.28 285.969 503.439C277.243 468.597 295.905 368.652 295.905 368.652L273.059 358.824C273.059 358.824 288.779 384.448 268.766 396.306L270.577 496.752C270.577 496.752 200.314 507.829 161.272 498.095C161.272 498.095 155.293 493.103 171.083 486.229C186.881 479.354 216.237 469.043 204.287 404.446C204.287 404.446 183.525 393.017 184.743 358.325C185.96 323.632 163.341 269.277 178.397 258.957L188.192 254.598C188.192 254.598 169.265 228.311 176.75 206.859C176.75 206.859 186.108 171.425 192.524 186.369C192.524 186.369 204.006 180.869 204.029 194.524C204.029 194.524 214.106 187.369 212.6 199.118C212.6 199.118 206.191 211.468 209.79 217.249L234.54 240.544C234.54 240.544 244.664 152.309 276.759 142.185L273.231 114.788C273.231 114.788 266.261 77.6582 263.825 58.1831C263.825 58.1831 256.84 11.6476 274.121 5.45271C280.771 3.07008 290.418 0.0468715 300.557 0H301.002Z" fill="white"/>
</mask>
<g mask="url(#mask1_14_2409)">
<path fill-rule="evenodd" clip-rule="evenodd" d="M257.566 31.9507C257.566 31.9507 295.179 24.3185 314.552 31.7242C333.917 39.122 328.031 64.6826 312.999 66.5575C291.027 69.2916 281.879 49.8947 274.206 50.3634C263.154 51.043 263.818 58.4643 257.183 65.5732L257.573 31.9507H257.566Z" fill="#FFF2D6"/>
<path fill-rule="evenodd" clip-rule="evenodd" d="M256.481 31.857C258.307 30.7086 260.29 29.8259 262.381 29.1306C265.426 28.1151 268.641 27.5292 271.678 26.8495L286.414 25.8652C291.284 25.7246 296.1 25.8652 300.807 26.5839C305.591 27.3182 310.259 28.6619 314.77 30.857C320.858 33.849 325.838 39.8407 327.727 46.3246C329.702 53.121 328.359 60.4173 321.795 65.4482C320.593 66.3622 319.149 66.9715 317.596 67.3387C315.527 67.8308 313.287 67.9089 311.344 67.8855C308.526 67.8464 305.802 67.573 303.133 67.0184C300.456 66.4559 297.841 65.6122 295.249 64.4014C292.135 63.0031 289.224 61.1048 286.109 59.6674C284.868 59.0971 283.588 58.6128 282.254 58.269C278.047 57.0504 274.128 57.2535 270.21 57.73C266.066 58.23 261.937 58.9721 257.605 59.9877C257.425 60.0502 257.23 59.9486 257.168 59.7689C257.105 59.5893 257.207 59.394 257.386 59.3315C262.436 57.0113 267.15 54.5818 272.302 53.8319C275.822 53.3241 279.444 53.7459 283.229 54.863C284.736 55.3318 286.172 55.9567 287.569 56.652C290.621 58.1909 293.485 60.1205 296.561 61.5813C298.926 62.6671 301.322 63.4171 303.773 63.9014C306.247 64.3858 308.768 64.5889 311.367 64.5811C313.061 64.5811 315.005 64.4951 316.792 64.042C317.853 63.7686 318.86 63.3624 319.68 62.714C324.886 58.6284 325.791 52.7851 324.199 47.348C322.568 41.8015 318.392 36.63 313.201 34.0443C309.033 31.9585 304.709 30.7008 300.276 29.9587C295.772 29.2087 291.159 28.9822 286.492 29.0291L272.208 29.6931C269.203 30.1071 266.034 30.4899 262.967 31.1617C260.945 31.607 258.971 32.1382 257.136 32.9897C256.816 33.1616 256.418 33.0444 256.247 32.7241C256.075 32.4038 256.192 32.0054 256.512 31.8335" fill="#FFA600"/>
<path fill-rule="evenodd" clip-rule="evenodd" d="M389.529 211.422C388.553 209.836 387.453 208.226 386.54 206.484C385.143 203.821 383.909 201.047 382.895 198.571C379.913 191.298 378.368 184.299 377.79 177.291C376.908 166.581 378.289 155.871 380.28 144.255C380.733 141.638 381.435 139.122 382.294 136.654C383.597 132.896 385.252 129.264 387.024 125.67C387.601 124.483 388.202 123.288 388.866 122.155C389.506 121.077 390.177 120.046 391.231 119.272C391.543 119.085 391.636 118.679 391.449 118.366C391.262 118.054 390.856 117.96 390.544 118.147C389.42 118.686 388.491 119.421 387.71 120.327C386.618 121.6 385.9 123.202 385.104 124.702C383.527 127.733 382.013 130.779 380.764 133.935C379.499 137.122 378.516 140.411 377.915 143.849C375.862 155.676 374.449 166.581 375.323 177.494C375.901 184.744 377.493 192.001 380.553 199.524C381.802 202.578 383.183 206.172 385.174 209.273C385.939 210.469 386.797 211.57 387.71 212.57C389.1 216.366 390.138 220.257 391.215 224.155C391.41 224.858 391.605 225.553 391.8 226.256L392.355 228.584C392.675 229.553 392.956 230.529 393.221 231.522C393.283 231.748 393.338 231.983 393.4 232.209C394.025 234.693 394.501 237.24 394.938 239.794C395.609 243.716 396.179 247.661 396.694 251.481L399.535 267.925C400.152 272.3 400.784 276.643 401.518 280.924C401.549 281.158 401.776 281.33 402.017 281.291C402.259 281.26 402.423 281.033 402.384 280.791C402.345 280.471 402.306 280.159 402.267 279.838C402.4 279.909 402.517 279.94 402.603 279.932C402.673 279.948 403.649 279.799 403.922 278.745C404.101 278.049 404.468 276.292 404.492 276.167L405.811 267.589C406.646 263.332 409.526 259.738 410.955 255.801C411.392 254.59 411.696 253.348 411.844 252.067C412.196 248.778 411.922 245.396 411.204 242.029C410.908 240.654 410.572 239.287 410.213 237.927C411.064 238.888 412.539 238.966 413.499 238.115C413.874 237.779 414.116 237.357 414.217 236.896C414.443 236.701 414.49 236.357 414.311 236.099L414.24 235.982C414.17 235.568 413.983 235.162 413.679 234.826C413.085 233.615 412.617 232.482 411.79 231.404C410.736 230.037 409.315 228.998 408.191 227.702C407.302 227.069 406.427 226.108 405.374 225.467C401.307 221.874 396.889 218.687 393.002 214.913C391.824 213.765 390.637 212.632 389.537 211.398" fill="#FFA700"/>
<path fill-rule="evenodd" clip-rule="evenodd" d="M271.248 396.025C277.196 393.291 290.355 388.064 297.13 364.035C307.574 326.975 293.431 299.415 289.614 288.736C287.499 282.822 286.703 275.409 285.883 260.887C285.782 259.059 277.641 139.747 276.009 138.74C273.473 137.177 211.835 144.942 209.033 144.075C195.483 139.888 155.106 186.08 165.799 256.613C166.517 261.34 180.832 397.884 186.343 401.774C193.641 406.922 222.419 407.063 230.747 406.821C242.392 406.469 260.274 401.063 271.24 396.025" fill="#FFA700"/>
<path fill-rule="evenodd" clip-rule="evenodd" d="M276.798 363.199C276.486 363.082 276.189 363.004 275.9 362.84C275.252 362.48 274.714 361.981 274.16 361.504C270.991 358.754 268.665 355.262 266.729 351.505C263.178 344.607 261.117 336.647 258.612 329.772C257.722 327.249 256.645 324.718 255.435 322.21C254.256 319.765 252.945 317.343 251.478 315.039C250.002 312.719 248.363 310.516 246.615 308.453C244.82 306.336 242.931 304.352 240.831 302.626C240.691 302.524 240.659 302.321 240.761 302.18C240.87 302.04 241.073 302.008 241.206 302.118C243.501 303.688 245.655 305.493 247.614 307.547C249.534 309.563 251.259 311.805 252.836 314.148C254.404 316.476 255.817 318.929 257.05 321.429C258.307 323.983 259.361 326.608 260.266 329.194C262.592 336.084 264.434 344.029 267.798 350.974C269.586 354.661 271.841 358.02 274.761 360.856C275.268 361.348 275.83 361.785 276.322 362.309C276.548 362.551 276.696 362.801 276.907 363.059C276.954 363.09 276.962 363.152 276.93 363.191C276.899 363.238 276.837 363.246 276.798 363.215" fill="#FFC614"/>
<path fill-rule="evenodd" clip-rule="evenodd" d="M273.02 360.051C272.77 360.27 273.129 360.199 272.801 360.231C272.544 360.254 272.357 359.981 272.146 359.84C269.999 358.387 268.626 356.192 267.705 353.762C266.229 349.856 266.034 345.224 265.824 341.545C265.449 333.451 265.519 325.655 264.278 318.031C264.028 316.5 263.732 314.984 263.388 313.461C262.616 310.023 261.593 306.578 259.915 303.141C259.821 302.961 259.884 302.743 260.055 302.649C260.235 302.555 260.454 302.618 260.547 302.79C262.623 306.133 264.153 309.516 265.184 312.992C265.644 314.547 265.98 316.117 266.253 317.695C267.572 325.382 267.244 333.287 267.525 341.466C267.611 345.021 267.712 349.474 268.953 353.317C269.687 355.583 270.842 357.606 272.645 359.153C272.825 359.301 273.114 359.379 273.184 359.606C273.285 359.918 273.192 359.559 273.106 359.879C273.153 359.91 273.16 359.965 273.137 360.012C273.106 360.059 273.051 360.074 273.004 360.043" fill="#FFC614"/>
<path fill-rule="evenodd" clip-rule="evenodd" d="M305.396 342.334C305.396 342.334 305.303 342.365 305.17 342.435C304.865 342.584 304.506 342.334 304.179 342.279C303.195 342.099 302.204 341.896 301.228 341.654C298.965 341.084 296.748 340.326 294.516 339.576C289.208 337.779 283.979 335.662 279.007 333.311C276.454 332.1 273.941 330.858 271.467 329.553C268.985 328.249 266.534 326.889 264.099 325.46C262.405 324.46 260.438 323.077 258.416 321.976C257.121 321.273 255.802 320.679 254.529 320.429C254.022 320.327 253.53 320.499 253.046 320.734C252.079 321.21 251.165 321.968 250.33 322.382C247.349 323.882 245.624 325.843 244.874 328.249C244.133 330.639 244.343 333.436 245.147 336.607C246.435 341.654 248.082 346.724 249.877 351.77C252.57 359.332 255.599 366.855 258.252 374.214C259.806 378.534 261.414 383.534 261.78 388.463C262.038 391.877 261.695 395.251 260.383 398.368C259.759 399.775 258.885 401.001 257.854 402.11C257.121 402.907 256.34 403.673 255.497 404.36C254.662 405.04 253.78 405.618 252.945 406.258C252.742 406.446 252.43 406.446 252.242 406.243C252.055 406.048 252.063 405.727 252.258 405.54C253.07 404.61 253.882 403.673 254.748 402.774C255.575 401.907 256.442 401.087 257.152 400.149C257.737 399.376 258.237 398.548 258.612 397.618C259.806 394.791 260.095 391.705 259.868 388.603C259.517 383.846 257.964 379.018 256.473 374.855C253.827 367.488 250.814 359.957 248.129 352.387C246.318 347.278 244.664 342.154 243.376 337.053C242.478 333.506 242.314 330.381 243.149 327.71C244.031 324.882 246.022 322.546 249.534 320.788C250.525 320.288 251.657 319.327 252.836 318.89C253.507 318.648 254.186 318.546 254.881 318.687C256.317 318.976 257.808 319.632 259.259 320.429C261.297 321.546 263.279 322.952 264.981 323.96C267.392 325.382 269.82 326.733 272.263 328.03C274.722 329.327 277.196 330.569 279.733 331.772C283.011 333.334 286.406 334.795 289.856 336.139C293.977 337.74 298.215 339.053 302.399 340.357C303.359 340.654 304.288 340.99 305.24 341.287C305.303 341.302 305.388 341.287 305.427 341.349C305.802 341.841 305.427 341.224 305.443 341.849C305.498 341.865 305.529 341.912 305.513 341.966C305.498 342.021 305.443 342.052 305.396 342.037C305.17 342.459 305.49 342.31 305.412 342.341" fill="#FFC614"/>
<path fill-rule="evenodd" clip-rule="evenodd" d="M362.359 356.278C362.359 356.598 362.406 356.848 362.336 357.161C362.094 358.207 361.446 359.121 360.977 360.09C358.378 365.551 355.561 370.886 352.774 376.245C350.003 381.573 347.264 386.908 344.899 392.463C343.072 396.736 341.542 400.954 340.192 405.219C338.842 409.5 337.663 413.836 336.563 418.351C335.774 421.593 335.009 424.843 334.479 428.132C334.127 430.303 333.893 432.483 333.8 434.694C333.667 437.936 333.183 442.928 333.651 447.435C333.948 450.31 334.619 452.989 336.149 454.731C337.351 456.114 339.466 456.676 341.753 456.934C345.422 457.348 349.574 456.841 352.056 456.442C355.038 455.966 357.863 455.106 360.634 454.059C364.903 452.442 369.032 450.404 373.294 448.654C378.344 446.576 383.644 444.763 388.678 442.49C391.972 441.006 395.149 439.326 398.06 437.233C402.111 434.327 406.576 429.655 411.54 426.897C413.171 425.991 414.857 425.241 416.59 424.898C417.058 424.804 417.534 424.687 418.01 424.718C418.369 424.741 418.65 424.827 418.994 424.921C419.54 424.866 420.032 425.265 420.087 425.812C420.149 426.358 419.751 426.851 419.197 426.905C418.955 427.038 418.799 427.21 418.541 427.319C418.221 427.46 417.893 427.562 417.558 427.671C415.372 428.39 413.249 429.507 411.204 430.921C407.146 433.717 403.337 437.358 399.887 439.803C396.788 441.998 393.424 443.763 389.935 445.318C384.854 447.576 379.507 449.372 374.41 451.427C370.11 453.161 365.942 455.177 361.633 456.762C358.675 457.848 355.654 458.739 352.478 459.223C349.816 459.629 345.351 460.129 341.433 459.645C338.412 459.27 335.712 458.286 334.159 456.45C332.363 454.317 331.505 451.13 331.224 447.669C330.841 443.037 331.435 437.92 331.637 434.592C331.778 432.303 332.075 430.046 332.465 427.804C333.05 424.476 333.839 421.179 334.666 417.89C335.813 413.344 337.039 408.977 338.436 404.665C339.841 400.353 341.425 396.103 343.306 391.783C345.468 386.83 347.896 382.026 350.44 377.292C353.875 370.925 357.457 364.644 360.775 358.2C361.032 357.7 361.196 357.137 361.555 356.707C361.742 356.473 361.953 356.395 362.187 356.208C362.211 356.161 362.265 356.137 362.312 356.161C362.359 356.184 362.382 356.239 362.359 356.286" fill="#FFA700"/>
<path fill-rule="evenodd" clip-rule="evenodd" d="M395.055 393.666C394.805 395.408 394.439 397.142 394.009 398.876C393.783 399.759 393.549 400.649 393.299 401.532C393.018 403.876 392.753 406.212 392.534 408.555C392.23 411.805 392.003 415.07 391.894 418.359C391.816 420.742 391.793 423.187 391.519 425.585C391.34 427.218 391.035 428.827 390.544 430.389C390.427 430.757 389.982 432.631 389.381 433.28C388.951 433.749 388.468 433.85 387.952 433.475C386.446 432.389 385.712 430.499 385.463 428.374C385.127 425.499 385.673 422.202 386.142 420.21C387.57 414.094 389.802 407.829 391.582 401.556C391.847 400.618 392.089 399.673 392.339 398.736L392.355 398.611C392.362 398.54 392.37 398.47 392.386 398.4C391.246 400.696 390.122 403.032 388.944 405.36C387.039 409.125 385.072 412.906 383.308 416.765C381.334 421.078 379.546 425.437 378.165 429.843C377.579 431.577 376.822 433.428 375.901 435.178C374.964 436.959 373.864 438.639 372.576 440.006C372.35 440.248 371.195 441.615 370.383 442.256C369.836 442.685 369.306 442.803 369.017 442.724C368.58 442.607 368.268 442.303 368.127 441.818C367.909 441.084 368.229 439.693 368.314 439.342C368.556 438.342 368.915 437.358 369.337 436.397C369.946 435.006 370.687 433.655 371.358 432.35C373.801 427.476 376.323 422.656 378.883 417.859C380.795 414.273 382.731 410.703 384.698 407.141C385.228 406.087 385.775 405.04 386.329 404.001C387.695 401.462 389.154 399.001 390.552 396.556C390.825 396.087 391.106 395.626 391.395 395.158C391.629 394.681 391.847 394.205 392.058 393.72L393.681 390.025C393.908 389.517 394.493 388.275 394.727 388.064C394.985 387.838 395.235 387.846 395.414 387.893C395.57 387.939 395.89 388.072 395.937 388.557C396.078 388.354 396.218 388.143 396.359 387.939C397.35 386.416 397.998 384.76 398.794 383.182C399.02 382.737 399.309 382.416 399.559 381.979C399.567 381.924 399.621 381.893 399.676 381.901C399.731 381.909 399.762 381.963 399.754 382.01C399.832 382.424 399.926 382.76 399.918 383.182C399.918 383.346 399.879 383.502 399.848 383.659C399.613 384.877 399.137 386.041 398.63 387.197C398.138 388.322 397.592 389.424 396.975 390.51C396.366 391.58 395.719 392.627 395.071 393.666M377.923 422.546C376.12 425.999 374.348 429.475 372.607 432.967C371.975 434.256 371.265 435.6 370.695 436.975C370.32 437.865 370.008 438.764 369.805 439.678C369.79 439.74 369.774 439.865 369.758 440.021C370.344 439.482 371.124 438.975 371.249 438.826C372.334 437.506 373.24 435.912 373.989 434.241C374.746 432.553 375.324 430.772 375.761 429.116C376.393 426.913 377.119 424.726 377.923 422.538M391.356 407.829C389.958 412.102 388.491 416.336 387.461 420.523C386.992 422.406 386.43 425.515 386.727 428.233C386.907 429.936 387.414 431.499 388.569 432.42C389.045 431.827 389.326 430.327 389.42 430.022C389.888 428.538 390.169 426.999 390.341 425.444C390.606 423.077 390.622 420.664 390.692 418.32C390.794 415 391.004 411.719 391.301 408.438L391.356 407.829Z" fill="#FFA700"/>
<path fill-rule="evenodd" clip-rule="evenodd" d="M440.685 346.654L405.046 385.697L427.986 472.043L500.371 479.339L499.989 342.099L440.685 346.654Z" fill="#4D3737"/>
<path fill-rule="evenodd" clip-rule="evenodd" d="M280.802 507.024L270.928 397.626C270.928 397.626 212.139 410.274 191.799 404.962L130.668 492.65L147.636 518L280.802 507.032V507.024Z" fill="#4C3636"/>
<path fill-rule="evenodd" clip-rule="evenodd" d="M224.19 220.679C223.675 222.991 234.4 240.357 234.4 240.357L242.01 249.466C242.01 249.466 241.659 257.09 232.612 259.926L181.917 255.231C181.917 255.231 145.014 177.58 174.846 172.042C204.669 166.503 229.709 195.884 224.206 220.679" fill="#FFA700"/>
<path fill-rule="evenodd" clip-rule="evenodd" d="M443.963 310.836C443.963 310.836 429.422 289.978 402.72 281.44C402.72 281.44 384.245 321.054 377.61 327.389C370.976 333.725 362.492 345.232 361.063 349.575C359.635 353.911 362.172 363.629 369.415 360.176C369.415 360.176 370.562 375.464 382.317 365.222C382.317 365.222 384.019 376.604 392.909 369.91C392.909 369.91 394.197 373.245 401.635 374.956C409.073 376.667 444.072 313.875 444.072 313.875" fill="#FFA700"/>
<path fill-rule="evenodd" clip-rule="evenodd" d="M424.13 241.38C424.106 241.138 424.06 240.919 424.067 240.677C424.083 240.146 424.231 239.63 424.333 239.107C425.636 232.115 428.267 225.561 432.419 220.405C437.055 214.648 443.596 210.656 452.158 209.562C454.804 209.25 457.497 209.187 460.081 209.664C462.672 210.148 465.139 211.164 467.316 212.867C467.48 212.984 467.519 213.218 467.394 213.375C467.277 213.539 467.043 213.57 466.879 213.453C465.162 212.281 463.297 211.554 461.361 211.117C458.442 210.453 455.351 210.476 452.33 210.898C444.135 211.922 437.953 215.788 433.418 221.21C429.273 226.17 426.503 232.443 424.949 239.216C424.832 239.732 424.778 240.255 424.614 240.755C424.536 240.982 424.419 241.169 424.317 241.388C424.309 241.443 424.255 241.474 424.208 241.466C424.153 241.458 424.122 241.404 424.13 241.357" fill="#FFA700"/>
<path fill-rule="evenodd" clip-rule="evenodd" d="M426.534 237.888L426.581 237.849C426.581 237.849 426.62 237.787 426.627 237.74C426.745 237.287 426.674 236.802 426.674 236.334C426.674 234.029 426.401 231.764 426.323 229.49C426.245 227.389 426.307 225.272 426.994 223.1C428.657 217.757 431.646 213.015 435.666 209.922C437.313 208.648 439.155 207.703 441.13 207.031C443.924 206.086 447.023 205.672 450.496 206.297C450.949 206.406 451.401 206.125 451.511 205.672C451.62 205.219 451.339 204.766 450.886 204.656C447.077 203.516 443.502 203.43 440.294 204.321C437.945 204.969 435.822 206.18 433.918 207.687C429.547 211.156 426.409 216.499 424.762 222.436C424.161 224.624 424.052 226.741 424.2 228.834C424.403 231.561 424.996 234.232 425.222 236.998C425.246 237.263 425.105 237.599 425.293 237.795L425.394 237.912H425.402C425.527 237.834 425.738 237.849 425.863 237.888C425.894 237.896 425.886 237.982 425.956 237.982C426.026 237.982 426.034 237.888 426.058 237.888C426.198 237.865 426.354 237.873 426.503 237.881H426.534V237.888Z" fill="#FFA700"/>
<path fill-rule="evenodd" clip-rule="evenodd" d="M397.108 218.538C396.874 218.312 396.64 218.14 396.429 217.89C395.664 216.945 395.141 215.835 394.532 214.788C392.37 211.086 390.442 207.289 388.866 203.367C388.187 201.672 387.578 199.946 387.047 198.204C386.376 196.024 385.814 193.814 385.377 191.564C384.378 186.431 383.987 181.15 384.237 175.713C384.237 175.651 384.284 175.612 384.346 175.612C384.409 175.612 384.448 175.659 384.448 175.721C384.534 181.111 385.306 186.291 386.54 191.314C387.07 193.501 387.695 195.649 388.389 197.782C388.944 199.485 389.552 201.172 390.193 202.852C391.676 206.758 393.393 210.586 395.336 214.343C395.89 215.413 396.577 216.413 397.03 217.53C397.155 217.835 397.194 218.124 397.28 218.437C397.303 218.484 397.295 218.538 397.248 218.569C397.202 218.601 397.147 218.585 397.116 218.538" fill="#FFA700"/>
<path fill-rule="evenodd" clip-rule="evenodd" d="M389.552 114.734C389.326 114.874 389.256 115.023 389.014 115.124C388.905 115.171 388.78 115.163 388.663 115.187C387.515 115.421 386.477 116.03 385.509 116.804C383.66 118.28 382.122 120.405 380.904 122.061C378.742 124.795 377.392 127.873 376.338 131.092C374.301 137.294 373.599 144.091 371.28 150.153C371.101 150.629 370.906 151.098 370.679 151.551C370.133 152.621 369.485 153.59 368.783 154.566C368.666 154.793 368.377 154.879 368.15 154.762C367.924 154.637 367.838 154.356 367.955 154.129C368.346 153.051 368.611 151.973 368.923 150.864C369.056 150.403 369.204 149.942 369.352 149.489C371.312 143.309 372.1 136.568 374.161 130.389C375.316 126.936 376.916 123.678 379.312 120.788C380.756 119.147 382.567 117.038 384.682 115.671C385.884 114.89 387.164 114.343 388.514 114.218C388.655 114.202 388.795 114.155 388.928 114.194C389.201 114.265 389.311 114.39 389.545 114.554C389.599 114.554 389.638 114.601 389.638 114.655C389.638 114.71 389.592 114.749 389.537 114.749" fill="#FFA700"/>
<path fill-rule="evenodd" clip-rule="evenodd" d="M366.808 133.404C366.839 133.654 366.894 133.873 366.902 134.115C366.909 134.67 366.8 135.201 366.73 135.724C366.488 137.622 366.184 139.404 365.957 141.185C365.801 142.38 365.676 143.559 365.661 144.786C365.637 146.294 365.762 147.864 366.168 149.551C366.23 149.793 366.082 150.036 365.84 150.098C365.598 150.161 365.356 150.012 365.294 149.77C364.654 147.38 364.505 145.2 364.677 143.091C364.896 140.497 365.551 138.005 366.098 135.279C366.184 134.834 366.23 134.373 366.371 133.927C366.433 133.724 366.535 133.56 366.621 133.365C366.621 133.31 366.675 133.279 366.73 133.279C366.785 133.279 366.824 133.334 366.816 133.388" fill="#FFA700"/>
<path fill-rule="evenodd" clip-rule="evenodd" d="M378.172 105.172C378.695 105.773 378.563 105.078 378.758 105.844C378.789 105.961 378.719 106.07 378.68 106.179C378.094 108.148 377.259 109.984 376.408 111.835C374.496 115.983 372.256 119.936 369.758 123.67C367.206 127.498 364.326 131.053 361.18 134.318C357.996 137.615 354.593 140.7 350.729 143.192C347.857 145.044 344.727 146.341 341.535 147.77C338.522 149.122 335.47 150.481 332.184 151.52C332.137 151.535 332.09 151.52 332.067 151.473C332.043 151.426 332.067 151.379 332.114 151.364C335.431 149.856 338.6 148.27 341.417 146.223C343.166 144.95 344.602 143.427 346.202 142.021C348.567 139.943 350.862 137.857 353.079 135.662C357.574 131.193 361.625 126.311 365.403 121.1C367.011 118.882 368.642 116.671 370.195 114.382C371.195 112.913 372.147 111.413 373.146 109.937C374.161 108.445 375.23 107.023 376.237 105.515C376.393 105.281 376.447 104.937 376.697 104.812C377.454 104.445 376.806 104.82 377.649 104.898C377.72 104.758 377.899 104.703 378.04 104.773C378.18 104.844 378.235 105.023 378.165 105.164" fill="#FFA700"/>
<path fill-rule="evenodd" clip-rule="evenodd" d="M319.945 158.043C320.281 158.933 320.343 157.871 320.211 158.808C320.195 158.902 320.109 158.949 320.054 159.019C318.931 160.214 317.479 160.847 316.05 161.277C313.904 161.917 311.609 161.902 309.314 161.816C307.894 161.761 306.505 161.566 305.053 161.597C304.717 161.652 304.413 161.425 304.358 161.089C304.304 160.761 304.53 160.449 304.865 160.394C305.701 160.113 306.505 159.855 307.363 159.683C309.275 159.3 311.18 159.129 313.045 158.84C314.684 158.59 316.253 158.238 317.838 157.527C318.173 157.371 318.486 157.082 318.876 157.105C319.688 157.152 318.899 157.152 319.594 157.582C319.719 157.488 319.906 157.512 320 157.637C320.101 157.762 320.078 157.941 319.945 158.043Z" fill="#FFA700"/>
<path fill-rule="evenodd" clip-rule="evenodd" d="M342.822 162.839C342.51 163.566 342.307 164.199 341.894 164.839C341.503 165.448 340.98 165.933 340.496 166.441C336.328 170.8 331.395 173.651 326.127 175.604C324.784 176.104 323.419 176.565 322.006 176.885C319.937 177.362 317.799 177.604 315.637 177.721C314.232 177.799 312.819 177.838 311.383 177.737C309.275 177.596 307.23 177.229 305.107 176.83C304.608 176.807 304.225 176.385 304.249 175.893C304.272 175.393 304.694 175.01 305.193 175.034C307.269 174.838 309.244 174.479 311.266 174.206C313.272 173.932 315.246 173.69 317.19 173.338C318.361 173.128 319.516 172.878 320.671 172.651C323.387 172.104 326.057 171.503 328.632 170.526C332.48 169.073 336.04 166.917 339.536 164.167C339.872 163.902 340.2 163.62 340.567 163.386C341.175 163.003 341.761 162.808 342.409 162.457C342.518 162.339 342.698 162.332 342.815 162.433C342.932 162.542 342.939 162.722 342.838 162.839" fill="#FFA700"/>
<path fill-rule="evenodd" clip-rule="evenodd" d="M337.897 186.345C337.975 186.767 338.131 186.314 337.96 186.712C337.905 186.845 337.718 186.877 337.601 186.962C336.165 187.931 334.822 188.845 333.425 189.634C331.747 190.572 330.053 191.329 328.32 191.915C324.902 193.079 321.296 193.54 317.096 193.259C316.402 193.22 315.863 192.626 315.894 191.931C315.926 191.236 316.527 190.697 317.221 190.736C320.25 190.822 322.888 190.384 325.417 189.743C327.844 189.126 330.139 188.228 332.574 187.291C333.995 186.744 335.446 186.244 336.984 185.705C337.117 185.658 337.242 185.541 337.382 185.572C337.796 185.673 337.335 185.525 337.632 185.838C337.772 185.767 337.952 185.822 338.022 185.963C338.092 186.103 338.038 186.283 337.897 186.353" fill="#FFA700"/>
<path fill-rule="evenodd" clip-rule="evenodd" d="M439.397 181.104C436.173 180.01 432.981 178.322 431.194 177.51C423.989 174.151 416.496 171.503 409.604 167.792C404.71 165.159 400.129 162.003 396.054 157.887C393.416 155.215 390.559 151.325 389.646 147.473C388.827 143.997 389.342 140.513 392.097 137.458C394.329 134.974 397.241 133.943 400.449 133.966C405.553 134.006 411.641 137.208 415.169 139.427C417.753 141.052 420.243 142.942 422.67 144.942C426.081 147.762 429.375 150.801 432.669 153.559C436.08 156.418 440.045 158.519 443.534 161.238C445.235 162.566 446.82 164.027 448.256 165.683L451.682 170.136C453.868 173.424 455.226 178.385 453.798 181.002C452.728 182.971 450.426 184.9 445.508 183.713C443.947 183.291 442.402 182.807 440.981 182.041C440.443 181.752 439.92 181.439 439.405 181.111M442.706 174.495L442.613 174.581L442.862 174.667L442.706 174.495ZM436.462 169.386C436.353 169.503 436.244 169.612 436.126 169.714C436.08 169.854 436.103 169.94 436.251 169.886C436.509 169.792 436.548 169.612 436.454 169.386M398.88 142.528C398.661 142.653 398.458 142.817 398.271 143.02C397.771 143.575 397.6 144.192 397.615 144.817L397.732 144.669C397.803 144.583 397.873 144.505 397.943 144.419L398.052 144.309L398.099 144.192L398.138 144.114C398.271 143.505 398.536 142.974 398.888 142.52" fill="#FFDD71"/>
<path fill-rule="evenodd" clip-rule="evenodd" d="M467.902 184.353C468.464 184.275 468.237 184.22 468.752 184.361C470.079 184.728 470.095 186.064 470.415 187.345C470.594 188.072 470.384 188.759 470.228 189.556C469.673 192.392 467.043 194.868 465.412 196.173C464.038 197.079 462.602 197.852 461.041 198.329C458.824 199.008 456.443 199.258 454.078 199.071C448.545 198.633 443.354 196.376 438.718 194.196C438.265 194.079 438 193.618 438.117 193.173C438.234 192.72 438.694 192.454 439.139 192.571C442.316 192.79 445.649 192.884 449.114 192.525C450.324 192.4 451.433 192.079 452.627 191.884C453.743 191.704 454.82 191.501 455.905 191.282C456.935 191.072 457.934 190.767 458.941 190.486C459.917 190.212 460.916 190.048 461.852 189.642C462.68 189.337 463.882 188.689 464.811 187.806C465.209 187.423 465.716 187.306 466.013 186.908C466.403 186.377 466.91 186.205 467.043 185.556C467.137 185.072 467.316 185.228 467.441 184.713C467.34 184.588 467.363 184.408 467.488 184.306C467.613 184.205 467.8 184.228 467.894 184.353" fill="#FFDD71"/>
<path fill-rule="evenodd" clip-rule="evenodd" d="M418.963 189.798C418.565 189.908 418.526 190.017 418.112 190.025C417.768 190.025 417.472 189.931 417.152 189.79C416.044 189.298 415.146 188.439 414.123 187.798C413.663 187.548 413.483 186.97 413.733 186.509C413.983 186.048 414.561 185.877 415.021 186.127C416.137 186.642 417.347 187.017 418.338 187.759C418.611 187.962 418.838 188.173 419.01 188.462C419.212 188.814 419.134 188.908 419.244 189.306C419.384 189.384 419.431 189.556 419.353 189.697C419.275 189.837 419.095 189.884 418.963 189.806" fill="#FFDD71"/>
<path fill-rule="evenodd" clip-rule="evenodd" d="M483.996 234.592C484.129 235.521 484.308 235.818 484.082 236.709C484.043 236.857 483.934 236.959 483.848 237.091C482.287 239.615 479.984 241.435 477.245 242.888C474.505 244.333 471.289 245.146 468.073 245.911C463.656 246.95 459.16 247.598 455.757 249.145C454.484 249.716 453.493 250.465 452.642 251.286C451.495 252.379 450.722 253.715 449.817 255.02C449.559 255.395 449.294 255.754 448.982 256.09C448.147 256.996 447.366 257.746 446.32 258.473C445.75 258.863 445.384 258.996 444.759 259.309C444.174 260.277 442.909 260.582 441.941 259.996C440.974 259.41 440.661 258.145 441.247 257.176C441.231 256.457 441.106 256.074 441.169 255.371C441.294 253.996 441.543 252.832 442.035 251.598C442.519 250.364 443.362 249.325 444.135 248.294C446.219 245.513 448.857 243.216 452.744 241.747C456.701 240.31 461.767 239.724 466.84 239.084C469.705 238.724 472.522 238.295 475.137 237.576C477.432 236.951 479.547 236.318 481.319 234.873C481.405 234.803 481.483 234.717 481.592 234.662C482.349 234.303 482.669 234.529 483.497 234.279C483.582 234.146 483.762 234.1 483.895 234.193C484.027 234.279 484.066 234.459 483.981 234.592" fill="#FFDD71"/>
<path fill-rule="evenodd" clip-rule="evenodd" d="M446.991 276.807C446.554 277.62 446.531 278.198 445.891 278.729C445.352 279.19 444.58 279.221 443.799 279.323C443.128 279.471 442.464 279.049 442.316 278.385C442.168 277.713 442.589 277.049 443.253 276.901C443.776 276.729 444.127 276.339 444.611 276.214C445.376 276.018 445.828 276.292 446.71 276.299C446.851 276.221 447.023 276.268 447.108 276.401C447.186 276.542 447.14 276.713 447.007 276.799" fill="#FFDD71"/>
<path fill-rule="evenodd" clip-rule="evenodd" d="M307.293 467.574C307.761 471.73 308.315 475.87 308.628 480.042C308.752 481.737 308.846 483.432 308.87 485.127C309.252 486.12 309.494 487.19 309.564 488.229C309.705 490.565 308.885 492.471 307.519 493.572C307.363 493.908 307.184 494.228 306.981 494.51C305.747 496.291 304.007 497.291 301.603 496.861C298.887 496.455 296.795 494.58 295.288 491.854C292.994 487.698 292.213 481.222 291.581 478.355C289.817 470.41 289.505 461.934 290.067 453.372C290.871 441.084 293.431 428.624 294.976 417.265C295.413 414.141 295.671 410.61 296.272 407.227C296.725 404.649 297.372 402.157 298.348 399.931C298.933 398.595 300.104 396.587 301.595 395.509C302.797 394.634 304.186 394.197 305.693 394.33C307.09 394.455 308.261 395.119 309.135 396.314C309.962 397.454 310.337 399.845 310.462 400.595C310.751 402.431 310.93 404.313 311.024 406.212C311.157 408.938 311.125 411.695 311.047 414.359C310.766 423.304 310.423 432.233 309.83 441.146C309.244 449.966 308.409 458.77 307.301 467.566M300.135 462.254L300.12 462.778L300.151 462.434V462.387L300.135 462.254Z" fill="#FFDD71"/>
<path fill-rule="evenodd" clip-rule="evenodd" d="M370.953 479.159C367.245 481.315 364.49 479.089 363.342 476.62C361.852 473.425 363.506 467.527 370.156 465.566C376.377 463.801 379.452 467.355 380.163 470.379C380.92 473.613 378.945 478.089 372.99 479.339C372.279 479.456 371.585 479.386 370.953 479.159Z" fill="#FFDD71"/>
<path fill-rule="evenodd" clip-rule="evenodd" d="M201.696 284.439C201.633 288.939 200.853 293.603 200.915 296.126C200.938 298.056 201.009 299.946 200.978 301.837C200.946 303.805 200.821 305.766 200.611 307.774C200.587 307.961 200.205 309.883 199.947 310.602C198.979 313.367 196.326 313.273 195.826 313.148C194.148 312.719 192.642 311.656 191.541 309.984C190.097 307.805 189.238 304.547 188.684 302.751C187.217 298.313 185.625 291.244 185.148 284.588C184.797 279.713 185.055 275.05 186.405 271.612C187.084 269.886 188.138 269.425 189.16 269.464C189.972 268.628 191.065 268.097 192.353 267.863C193.992 267.62 195.654 268.128 197.2 269.269C198.987 270.581 200.626 273.018 201.579 275.706C202.375 277.956 202.656 280.369 202.32 282.338C202.195 283.096 201.984 283.799 201.696 284.439ZM190.76 284.572C190.87 285.76 191.034 286.963 191.229 288.15C191.104 287.002 190.971 285.869 190.823 284.752L190.807 284.658L190.784 284.619L190.753 284.572H190.76Z" fill="#FFC614"/>
<path fill-rule="evenodd" clip-rule="evenodd" d="M266.846 179.065C267.759 179.947 267.705 179.283 268.313 180.354C268.587 180.838 268.657 181.291 268.712 181.822C268.914 183.83 269.016 185.744 268.86 187.697C268.743 189.165 268.282 190.486 267.837 191.986C267.775 193.024 266.893 193.814 265.863 193.751C264.832 193.689 264.036 192.806 264.099 191.775C263.841 190.345 263.318 189.15 263.162 187.791C262.92 185.627 262.889 183.408 263.576 181.268C263.771 180.666 263.896 180.088 264.403 179.666C265.371 178.846 265.035 179.354 266.276 178.932C266.308 178.776 266.464 178.682 266.62 178.713C266.776 178.752 266.877 178.901 266.838 179.057" fill="#FFC614"/>
<path fill-rule="evenodd" clip-rule="evenodd" d="M206.863 198.508C207.23 199.579 207.347 198.383 207.276 199.508C207.269 199.672 207.175 199.79 207.097 199.938C206.785 200.54 206.714 201.157 206.488 201.805C205.926 203.375 205.544 205.055 205.255 206.617C205.083 207.477 205.075 208.375 204.896 209.265C204.818 209.648 204.654 210 204.545 210.383C204.466 210.656 204.404 210.922 204.303 211.179C203.803 212.406 203.046 213.195 202.632 214.484C202.437 215.101 202.336 215.71 202.265 216.359C202.117 217.765 202.125 219.171 202.281 220.561C202.515 222.718 203.147 224.764 203.819 226.67C203.85 226.756 203.803 226.85 203.717 226.874C203.631 226.905 203.538 226.858 203.506 226.772C202.882 224.921 202.5 222.897 202.07 220.843C201.797 219.515 201.524 218.179 201.251 216.827C201.11 216.132 201.001 215.46 200.79 214.781C200.33 213.296 199.682 212.257 199.377 210.765C199.307 210.422 199.315 210.086 199.299 209.734C199.276 209.265 199.253 208.805 199.307 208.344C199.44 207.25 199.838 206.227 200.197 205.219C200.978 203.18 201.664 200.774 203.241 199.118C203.865 198.454 204.482 197.884 205.333 197.548C205.427 197.509 205.489 197.438 205.59 197.454C206.8 197.634 205.505 197.321 206.504 198.024C206.629 197.923 206.816 197.954 206.91 198.079C207.003 198.204 206.988 198.383 206.855 198.485" fill="#FFC614"/>
<path fill-rule="evenodd" clip-rule="evenodd" d="M195.756 191.79L195.537 191.814C195.405 191.821 195.35 191.97 195.256 192.056C194.007 193.196 192.938 194.368 192.103 195.72C191.525 196.657 191.104 197.665 190.807 198.688C190.347 200.29 190.136 201.875 190.136 203.5C190.136 205.539 190.698 207.336 190.932 209.383C191.229 211.937 191.119 214.585 191.806 217.195C192.236 218.851 192.899 220.46 193.609 222.1C193.656 222.241 193.82 222.311 193.961 222.264C194.101 222.218 194.171 222.061 194.125 221.921C193.656 220.319 193.344 218.733 193.008 217.171C192.493 214.734 191.877 212.359 191.97 209.992C192.001 209.305 192.087 208.633 192.267 207.976C192.556 206.93 193.118 206.141 193.531 205.141C194.179 203.578 194.905 202.125 195.693 200.579C196.006 199.961 196.341 199.352 196.622 198.696C197.208 197.298 197.645 195.852 198.324 194.376C198.378 194.259 198.488 194.157 198.464 194.032L198.425 193.806C198.222 193.728 197.918 193.517 197.473 193.095C197.637 192.884 197.59 192.579 197.379 192.423C197.169 192.267 196.864 192.306 196.708 192.517C193.172 190.423 199.455 191.454 195.748 191.814" fill="#FFC614"/>
<path fill-rule="evenodd" clip-rule="evenodd" d="M186.241 189.564C186.827 189.79 186.491 189.392 186.905 189.853C187.615 190.642 187.35 191.775 187.225 192.814C186.967 194.946 185.562 196.868 184.977 198.899C184.22 201.008 183.798 203.446 183.502 205.875C183.384 206.844 183.26 207.789 183.158 208.75C182.994 210.351 182.776 211.773 182.908 213.273C182.963 213.421 182.885 213.585 182.729 213.64C182.581 213.695 182.417 213.609 182.37 213.46C181.246 211.632 180.379 209.648 180.005 207.359C179.739 205.742 179.833 204.063 180.02 202.446C180.216 200.758 180.66 199.133 181.152 197.641C181.901 195.673 182.916 193.704 183.892 191.798C184.251 191.095 184.462 190.439 185.008 189.853C185.414 189.408 185.109 189.853 185.664 189.587C185.664 189.431 185.781 189.298 185.937 189.29C186.101 189.29 186.233 189.408 186.233 189.572" fill="#FFC614"/>
<path fill-rule="evenodd" clip-rule="evenodd" d="M183.26 219.257C184.118 219.421 183.978 219.124 184.704 219.648C185.086 219.921 185.18 220.429 185.383 220.874C186.069 222.389 186.429 224.124 186.78 225.827C186.991 226.85 187.115 227.866 187.357 228.787C188.177 232.795 189.722 236.912 191.479 240.912C193.297 245.052 195.248 249.028 197.926 252.293C198.074 252.434 198.082 252.676 197.933 252.825C197.793 252.973 197.551 252.981 197.403 252.832C194.882 250.965 192.524 248.762 190.44 246.153C189.574 245.075 188.794 243.927 188.068 242.732C185.593 238.693 183.837 234.217 182.62 229.944C182.354 228.733 182.12 227.413 182.05 226.053C181.956 224.264 181.48 222.452 181.823 220.827C182.011 219.952 182.315 220.249 182.737 219.491C182.674 219.343 182.737 219.171 182.885 219.108C183.033 219.046 183.205 219.108 183.267 219.257" fill="#FFC614"/>
<path fill-rule="evenodd" clip-rule="evenodd" d="M199.401 243.107C200.041 243.021 199.409 242.888 200.041 243.005C200.252 243.044 200.377 243.107 200.54 243.255C201.602 244.185 202.484 245.263 203.475 246.27C203.92 246.731 204.271 247.263 204.693 247.747C205.224 248.223 205.278 249.036 204.802 249.575C204.334 250.106 203.506 250.161 202.976 249.684C202.39 249.286 201.781 248.934 201.251 248.458C200.439 247.716 199.807 246.817 199.221 245.895C198.925 245.419 198.519 244.982 198.417 244.427C198.378 244.193 198.347 244.052 198.456 243.833C198.745 243.224 198.41 243.857 198.886 243.372C198.815 243.232 198.87 243.06 199.011 242.982C199.151 242.911 199.323 242.966 199.401 243.107Z" fill="#FFC614"/>
<path fill-rule="evenodd" clip-rule="evenodd" d="M286.359 260.777L286.109 260.465C285.946 260.246 285.594 260.285 285.321 260.223C282.371 259.426 279.35 258.902 276.329 258.379C268.563 257.027 260.68 256.176 252.914 255.184C241.666 253.848 230.466 252.372 219.218 251.372C213.934 250.903 208.65 250.458 203.335 250.333C201.056 250.278 198.776 250.333 196.489 250.387C193.703 250.473 190.901 250.036 188.075 249.762C186.038 249.567 184.024 249.434 182.003 249.52C180.817 249.575 179.677 249.684 178.522 249.926C178.444 249.942 178.35 249.919 178.295 249.973C178.225 250.051 178.163 250.114 178.108 250.169C177.491 250.786 178.358 249.466 178.186 250.755C178.022 250.762 177.905 250.895 177.913 251.059C177.921 251.215 178.053 251.34 178.217 251.333C178.381 251.879 178.217 251.895 178.124 251.856C178.022 251.817 177.983 251.715 178.436 252.106C178.85 252.465 179.474 252.309 180.013 252.403C182.12 252.77 184.157 253.332 186.265 253.871C189.621 254.723 193.016 255.442 196.411 255.668C198.644 255.793 200.868 255.981 203.101 256.113C208.322 256.426 213.528 256.699 218.727 257.137C229.927 258.066 241.104 259.348 252.313 260.551C258.284 261.176 264.309 261.84 270.327 262.496C274.316 262.933 278.304 263.363 282.261 263.894C283.253 264.027 284.33 264.722 285.235 264.285C286.125 263.863 285.235 264.277 285.743 263.425C286.305 263.535 286.843 263.175 286.952 262.613C287.062 262.051 286.695 261.512 286.141 261.402C286.109 260.113 286.796 261.262 286.367 260.777" fill="#FA7E00"/>
<path fill-rule="evenodd" clip-rule="evenodd" d="M273.871 362.488C273.699 362.465 273.535 362.566 273.488 362.738C273.434 362.926 273.543 363.121 273.73 363.168C273.808 363.98 273.855 363.066 274.386 363.465C274.667 363.676 274.386 363.246 274.768 363.363C275.689 363.66 274.745 363.816 275.97 362.707C277.071 361.715 276.08 356.895 276.064 356.676C275.643 353.473 274.885 350.192 273.832 346.927C272.809 343.779 271.451 340.771 270.249 337.912C268.719 334.725 267.01 331.608 264.949 328.733C261.882 324.452 258.299 320.499 254.202 317.171C247.427 311.664 239.567 307.766 231.379 305.133C230.513 304.75 229.498 305.149 229.115 306.008C228.733 306.875 229.131 307.883 229.997 308.266C235.531 311.445 240.472 315.5 245.116 320.015C247.809 322.632 250.283 325.436 252.648 328.342C254.405 330.498 256.09 332.701 257.659 334.99C259.228 337.271 260.742 339.592 262.03 342.037C262.858 343.498 263.677 345.036 264.551 346.575C265.816 348.786 267.143 350.981 268.306 353.247C269.156 354.887 269.976 356.457 270.632 358.09C270.686 358.223 271.279 360.793 272.029 361.965C272.357 362.48 272.911 362.379 273.192 362.262C273.192 362.379 273.676 362.449 273.66 362.184C273.644 361.949 273.793 362.551 273.879 362.316C273.918 362.215 273.871 362.402 273.879 362.496" fill="#FA7E00"/>
<path fill-rule="evenodd" clip-rule="evenodd" d="M382.356 211.445C382.481 211.75 382.598 212.046 382.723 212.351L382.856 212.703C383.714 212.312 385.502 211.906 387.609 213.07C389.552 214.14 394.048 217.499 394.478 217.804C395.438 218.468 396.452 219.077 397.444 219.733C399.809 221.304 402.244 222.882 404.64 224.538C407.036 226.202 409.308 227.959 411.509 229.819C412.289 230.483 413.07 231.1 413.788 231.826C414.904 232.959 415.887 234.076 416.769 235.357C416.926 235.584 417.121 235.763 417.183 236.021C417.402 236.92 417.152 236.842 417.058 237.756C417.175 237.865 417.175 238.052 417.058 238.162C416.941 238.271 416.762 238.279 416.652 238.162C415.755 238.263 415.856 238.576 414.966 238.396C413.561 238.123 412.477 237.185 411.181 236.506C409.69 235.724 408.176 234.974 406.638 234.232C406.966 234.967 407.2 235.537 407.255 235.724C407.715 237.451 408.176 239.177 408.566 240.919C408.839 242.13 409.089 243.341 409.323 244.56C409.495 244.872 409.659 245.177 409.815 245.458C410.346 246.411 411.548 248.036 412.289 249.489C412.812 250.52 413.14 251.52 413.14 252.333C413.398 254.059 412.687 256.113 411.618 258.363C411.274 259.098 410.892 259.832 410.432 260.551C408.808 263.136 406.545 265.558 405.826 267.488C405.553 268.214 405.452 268.972 405.319 269.737C404.921 272.097 404.749 274.55 404.258 276.854C404.055 277.799 403.82 278.729 403.461 279.62C403.727 280.651 404.031 281.768 404.016 282.455C403.992 283.236 403.672 283.791 403.298 284.197C402.845 284.689 402.166 284.971 401.128 284.854L401.026 284.838L399.855 288.025C398.482 291.392 397.1 294.876 395.594 298.306C394.08 301.758 392.456 305.164 390.731 308.399L387.055 315.289C386.586 315.968 385.658 317.781 385.353 318.257C385.189 318.523 385.025 318.663 384.955 318.718C383.995 319.468 383.308 318.96 382.941 318.437C382.887 318.351 382.497 317.859 382.824 316.953C384.159 313.187 385.494 309.344 386.555 305.407C387.601 301.524 388.366 297.548 389.022 293.564C389.677 289.603 390.036 285.611 390.356 281.635C390.676 277.651 390.965 273.675 390.825 269.706C390.739 267.574 390.575 265.449 390.333 263.332C389.537 257.566 388.436 251.833 387.109 246.185L387.078 246.067C385.697 240.466 384.112 234.904 382.746 229.311C382.395 227.936 382.052 226.569 381.732 225.186C381.396 223.772 381.115 222.35 380.818 220.929L379.562 213.851C379.46 213.093 379.015 211.289 378.976 210.797C378.922 209.929 379.296 209.476 379.476 209.344C379.866 209.062 380.303 208.828 380.857 209.055C380.99 209.109 381.466 209.195 381.786 209.851C381.849 209.984 382.013 210.109 381.981 210.258C381.966 210.351 381.95 210.422 381.935 210.484L382.333 211.445H382.356ZM397.085 277.573C397.061 278.401 397.022 279.229 396.967 280.057C396.928 280.705 396.874 281.346 396.811 281.994L397.467 280.393L397.686 279.877V279.854L397.709 279.791C397.608 279.432 397.529 279.135 397.483 278.971C397.342 278.502 397.209 278.042 397.077 277.573M405.842 255.645L405.889 256.363V256.535L405.928 256.496L406.131 256.27L405.85 255.668V255.645H405.842ZM397.124 229.615C397.342 230.225 397.514 230.772 397.631 231.1L397.732 231.436C397.779 231.076 397.849 230.733 397.951 230.444L398.076 230.108L397.608 229.865L397.124 229.615ZM379.858 211.781C379.858 211.781 379.921 211.804 379.944 211.812V211.797L379.858 211.781ZM381.396 210.883C381.513 210.765 381.622 210.648 381.7 210.554C381.607 210.367 381.513 210.172 381.396 210.836C381.396 210.851 381.396 210.867 381.396 210.883Z" fill="#FA7E00"/>
<path fill-rule="evenodd" clip-rule="evenodd" d="M389.061 215.593V215.538C389.092 215.406 388.951 215.296 388.873 215.179C388.171 214.062 387.273 213.085 386.368 212.117C385.978 211.695 385.642 211.172 385.135 210.898C384.651 210.633 384.237 210.75 383.722 210.554C383.3 210.398 382.965 210.148 382.567 209.937C382.34 209.734 381.989 209.758 381.786 209.992C381.583 210.219 381.607 210.57 381.841 210.773C382.098 211.133 382.395 211.437 382.598 211.828C382.848 212.304 382.762 212.734 383.082 213.171C384.089 214.585 385.712 215.413 386.985 216.577C387.117 216.702 387.211 216.906 387.39 216.913H387.461L387.586 216.796C387.664 216.734 387.96 216.484 388.038 216.445C388.101 216.413 388.28 216.616 388.444 216.484C388.592 216.359 388.444 216.117 388.483 216.077C388.577 215.968 388.702 215.89 388.803 215.796L389.061 215.593Z" fill="#FA7E00"/>
<path fill-rule="evenodd" clip-rule="evenodd" d="M384.253 214.046C383.386 214.32 384.284 214.515 383.402 214.312C383.168 214.257 383.059 213.992 382.902 213.812C380.896 211.523 379.382 208.883 378.266 206.117C376.533 201.844 376.003 197.227 375.487 192.618C375.152 189.619 374.879 186.603 374.769 183.596C374.769 183.549 374.801 183.517 374.84 183.51C374.879 183.51 374.918 183.533 374.925 183.58C375.511 187.806 376.252 192.048 377.517 196.134C378.438 199.11 379.78 201.891 381.123 204.688C381.685 205.859 382.247 207.039 382.832 208.203C383.581 209.695 384.456 211.125 385.213 212.648C385.26 212.734 385.33 212.82 385.314 212.921C385.205 213.812 385.314 212.898 384.807 213.648C384.916 213.796 384.885 214.015 384.737 214.124C384.581 214.234 384.37 214.21 384.261 214.054" fill="#FA7E00"/>
<path fill-rule="evenodd" clip-rule="evenodd" d="M398.38 272.214C397.974 272.144 398.747 272.042 398.146 272.464C398.029 272.354 397.849 272.354 397.74 272.472C397.631 272.589 397.639 272.768 397.748 272.878C397.725 273.198 397.451 273.081 397.428 273.425C397.358 274.518 396.874 276.307 396.616 277.081C396.195 278.51 395.789 279.963 395.508 281.463C395.071 283.783 394.657 286.111 394.22 288.4C394.025 289.416 393.986 290.384 393.728 291.376C393.557 291.736 393.705 292.165 394.056 292.337C394.415 292.509 394.852 292.361 395.024 292.009C395.68 291.158 396.273 290.33 396.733 289.353C397.17 288.424 397.436 287.424 397.693 286.416C398.138 284.682 398.466 282.893 398.708 281.119C398.872 279.955 398.95 278.799 399.122 277.659C399.239 276.753 399.676 274.675 399.254 273.37C399.098 272.901 398.997 272.276 398.583 272.237L398.38 272.214Z" fill="#FA7E00"/>
<path fill-rule="evenodd" clip-rule="evenodd" d="M400.55 279.963C400.605 280.19 400.691 280.244 400.691 280.479C400.683 281.705 400.175 282.854 399.91 284.072C399.465 286.15 398.927 288.213 398.263 290.197C397.038 293.658 395.875 297.251 394.431 300.805C392.308 306.016 389.763 311.156 387 316.101C385.127 319.445 383.199 322.749 380.889 325.71C379.304 327.749 377.532 329.538 375.722 331.303C375.605 331.444 375.394 331.467 375.253 331.35C375.113 331.233 375.089 331.022 375.206 330.881C376.549 328.788 377.665 326.6 378.906 324.39C380.694 321.194 382.52 317.976 384.151 314.617C386.587 309.609 388.647 304.375 390.809 299.298C392.3 295.79 393.916 292.4 395.391 289.056C396.242 287.228 396.819 285.228 397.654 283.346C398.185 282.135 398.552 280.799 399.528 279.948C399.707 279.791 399.809 279.807 400.027 279.713C400.097 279.573 400.269 279.51 400.417 279.58C400.558 279.651 400.62 279.823 400.55 279.963Z" fill="#FA7E00"/>
<path fill-rule="evenodd" clip-rule="evenodd" d="M397.069 282.346V282.463C397.053 282.627 397.17 282.705 397.264 282.838C398.13 284.072 399.356 284.822 400.62 285.525C402.384 286.502 404.382 286.978 406.326 287.58C407.466 287.931 408.629 288.213 409.76 288.674C414.342 290.314 418.674 291.908 422.842 294.087C425.613 295.532 428.243 297.204 430.827 299.181C430.85 299.204 430.889 299.204 430.905 299.181C430.928 299.157 430.928 299.118 430.905 299.102C429.515 297.61 428.048 296.275 426.588 294.946C425.074 293.564 423.615 292.212 422.015 290.947C418.861 288.463 415.513 286.33 411.985 284.119C409.604 282.861 407.114 282.033 404.656 281.174C404.062 280.971 403.477 280.744 402.876 280.565C401.994 280.307 401.135 280.127 400.222 279.893C399.801 279.784 399.434 279.573 399.02 279.713L398.856 279.76C398.653 280.119 398.411 280.518 398.115 280.791C398.068 280.838 397.834 280.69 397.709 280.862C397.6 281.018 397.803 281.221 397.779 281.268C397.662 281.487 397.287 282.033 397.131 282.252L397.077 282.322L397.069 282.346Z" fill="#FA7E00"/>
<path fill-rule="evenodd" clip-rule="evenodd" d="M403.969 294.564C404.187 294.892 404.289 294.821 404.39 295.212C404.57 295.9 404.32 296.579 404.211 297.282C403.657 300.735 402.587 303.961 401.167 307.055C400.425 308.664 399.481 310.172 398.544 311.672C396.398 315.109 394.048 318.406 391.73 321.757C390.864 323.015 390.005 324.272 389.1 325.522C387.734 327.413 386.321 329.17 385.018 331.155C384.963 331.28 384.807 331.334 384.682 331.28C384.557 331.225 384.495 331.069 384.557 330.944C385.228 328.444 385.907 326.069 386.875 323.718C387.515 322.163 388.288 320.687 389.061 319.195C390.653 316.101 392.316 313.078 393.978 310.039C395.063 308.055 396.07 306.032 397.209 304.071C398.716 301.469 400.261 298.962 401.752 296.259C402.064 295.704 402.244 295.095 402.728 294.673C403.024 294.415 403.048 294.548 403.415 294.4C403.461 294.243 403.618 294.157 403.774 294.204C403.93 294.251 404.016 294.407 403.977 294.564" fill="#FA7E00"/>
<path fill-rule="evenodd" clip-rule="evenodd" d="M380.194 337.826C380.225 338.139 380.334 338.295 380.264 338.599C380.077 339.451 379.367 340.084 378.891 340.818C378.711 341.107 378.329 341.201 378.04 341.029C377.743 340.849 377.649 340.474 377.829 340.177C378.243 339.435 378.414 338.537 379.008 337.928C379.218 337.709 379.413 337.709 379.679 337.56C379.749 337.42 379.929 337.365 380.069 337.435C380.21 337.506 380.264 337.685 380.194 337.826Z" fill="#FA7E00"/>
<path fill-rule="evenodd" clip-rule="evenodd" d="M226.368 247.653C224.698 248.387 226.391 248.684 224.596 248.427C222.473 248.114 221.326 245.794 219.866 244.349C217.54 242.036 215.394 239.591 213.591 236.826C212.404 235.006 211.546 233.037 210.578 230.944C210.125 230.272 210.305 229.358 210.976 228.905C211.647 228.451 212.568 228.631 213.021 229.303C214.192 230.529 215.378 231.576 216.51 232.732C217.275 233.506 218.001 234.271 218.711 235.068C220.6 237.162 222.497 239.193 224.362 241.333C225.158 242.247 225.923 243.193 226.665 244.185C226.992 244.614 227.539 244.966 227.578 245.505C227.742 247.309 227.531 245.606 226.766 247.255C226.875 247.364 226.875 247.552 226.766 247.661C226.657 247.77 226.469 247.77 226.36 247.661" fill="#FA7E00"/>
<path fill-rule="evenodd" clip-rule="evenodd" d="M422.912 317.781C422.982 318.499 423.232 318.538 423.084 319.242C422.92 320.007 422.358 320.577 421.983 321.265C421.047 322.976 420.274 324.726 419.431 326.514C418.206 329.124 417.082 331.787 416.044 334.506C415.521 335.865 414.99 337.225 414.475 338.576C413.226 341.834 412.008 345.068 411.056 348.294C409.877 351.716 409.128 355.411 407.864 358.918C406.974 361.379 405.873 363.637 404.398 365.738C404.312 365.902 404.117 365.972 403.953 365.886C403.789 365.808 403.727 365.605 403.805 365.441C404.39 363.707 404.734 361.949 404.952 360.106C405.155 358.403 405.147 356.723 405.264 354.997C405.444 352.325 405.748 349.685 406.146 347.13C406.888 343.146 407.7 339.021 409.136 335.053C410.088 332.42 411.345 329.897 412.719 327.467C413.554 325.983 414.412 324.53 415.435 323.194C417.011 321.132 418.572 319.101 420.68 317.664C420.859 317.539 421 317.437 421.218 317.39C421.858 317.25 421.827 317.39 422.475 317.398C422.584 317.281 422.764 317.273 422.889 317.374C423.006 317.476 423.014 317.664 422.912 317.781Z" fill="#FFC614"/>
<path fill-rule="evenodd" clip-rule="evenodd" d="M396.624 366.425L396.913 366.261C397.053 366.183 397.092 366.004 397.155 365.855C397.654 364.668 398.201 363.496 398.482 362.238C398.708 361.246 398.669 360.317 398.607 359.285C398.739 358.637 398.326 358.004 397.678 357.871C397.03 357.739 396.398 358.153 396.265 358.793C395.859 359.59 395.274 360.153 394.876 360.926C394.243 362.152 393.744 363.465 393.533 364.824C393.502 365.027 393.393 365.246 393.51 365.418L393.713 365.73C393.892 365.683 394.243 365.73 394.876 365.98C394.844 366.136 394.938 366.293 395.094 366.324C395.25 366.363 395.406 366.261 395.438 366.105C396.179 366.16 396.515 366.277 396.616 366.41" fill="#FFC614"/>
<path fill-rule="evenodd" clip-rule="evenodd" d="M383.722 361.988C382.333 360.785 383.105 362.543 382.489 360.817C382.418 360.621 382.504 360.418 382.59 360.223C383.144 358.942 384.393 358.2 385.135 357.004C385.377 356.356 386.103 356.028 386.743 356.27C387.39 356.512 387.71 357.231 387.468 357.879C387.219 359.356 387.016 360.809 386.266 362.09C386.181 362.238 386.071 362.371 385.915 362.426C384.221 363.035 386.056 362.363 384.253 362.207C384.19 362.355 384.019 362.426 383.878 362.363C383.73 362.301 383.66 362.129 383.722 361.981" fill="#FFC614"/>
<path fill-rule="evenodd" clip-rule="evenodd" d="M376.791 357.317C376.385 356.254 376.182 356.645 376.237 356.168C376.252 355.997 376.44 355.903 376.666 355.575C377.002 354.848 377.86 354.536 378.586 354.864C379.312 355.192 379.624 356.051 379.296 356.778C379.172 357.254 379.211 357.496 379.054 357.637C378.649 357.989 378.914 357.762 377.665 357.871C377.517 358.106 377.197 358.184 376.955 358.028C376.713 357.871 376.643 357.559 376.791 357.317Z" fill="#FFC614"/>
<path fill-rule="evenodd" clip-rule="evenodd" d="M436.579 306.922C436.751 307.477 436.93 307.313 436.884 307.891C436.868 308.024 436.766 308.125 436.704 308.242C435.221 310.859 433.925 313.429 432.52 315.976C431.342 318.109 430.155 320.226 428.844 322.296C427.525 324.382 426.019 326.296 424.575 328.397C424.325 328.881 423.732 329.069 423.248 328.827C422.764 328.577 422.577 327.983 422.818 327.499C423.693 325.085 424.395 322.726 425.433 320.46C426.479 318.171 427.712 315.992 429.102 313.906C430.764 311.414 432.669 309.102 434.815 306.852C434.909 306.75 434.979 306.617 435.104 306.571C435.643 306.36 435.541 306.571 436.119 306.586C436.22 306.453 436.4 306.43 436.525 306.532C436.649 306.625 436.673 306.805 436.579 306.938" fill="#FFDD6F"/>
<path fill-rule="evenodd" clip-rule="evenodd" d="M427.829 312.219C428.071 312.625 428.009 312.117 428.056 312.586C428.071 312.781 427.978 312.93 427.892 313.109C427.369 314.125 426.698 315.047 426.12 316.031C425.722 316.703 425.277 317.335 424.887 318.007C424.676 318.445 424.153 318.632 423.708 318.429C423.263 318.218 423.076 317.687 423.287 317.249C423.505 316.64 423.693 316.039 423.981 315.461C424.411 314.593 424.981 313.789 425.574 313.023C425.917 312.578 426.151 311.953 426.682 311.758C427.088 311.609 426.971 311.773 427.4 311.836C427.509 311.719 427.689 311.711 427.806 311.812C427.923 311.922 427.939 312.101 427.829 312.219Z" fill="#FFDD6F"/>
<path fill-rule="evenodd" clip-rule="evenodd" d="M180.2 212.906C180.582 213.125 180.754 213.101 181.027 213.453C181.644 214.249 181.558 215.406 181.683 216.445C182.003 219.187 181.714 222.147 182.026 224.725C182.245 228.327 182.971 232.014 183.931 235.592C184.906 239.209 186.077 242.716 188.263 245.739C188.419 245.919 188.403 246.185 188.224 246.341C188.044 246.497 187.779 246.481 187.623 246.302C185.835 244.692 184.313 242.888 183.072 240.841C182.245 239.482 181.574 238.037 181.027 236.529C179.677 232.803 179.123 228.78 178.85 224.936C178.818 221.6 179.755 217.749 179.302 214.351C179.279 214.171 179.201 213.984 179.232 213.812C179.31 213.421 179.474 213.453 179.661 213.093C179.615 212.945 179.693 212.781 179.841 212.726C179.989 212.679 180.153 212.757 180.208 212.906" fill="#FFDD6F"/>
<path fill-rule="evenodd" clip-rule="evenodd" d="M322.576 28.4041C323.809 29.279 325.089 30.0758 326.385 30.7711C326.798 30.9898 330.748 33.3803 333.23 33.3881C334.963 33.3881 336.344 32.7085 337.288 31.4351C338.131 30.3024 338.483 28.8494 338.241 27.2011C337.866 24.6466 335.47 21.1468 334.518 19.7329C332.246 16.3816 326.619 9.60083 320.944 7.00728C317.416 5.39021 313.849 5.23397 310.735 7.1557C309.143 8.14782 308.347 9.6477 308.401 11.5616C308.479 14.1864 311.25 18.358 311.929 19.3032C313.389 21.3187 315.051 23.0295 316.893 24.5294C318.657 25.9668 320.577 27.2167 322.576 28.4041Z" fill="#FFDD6F"/>
<path fill-rule="evenodd" clip-rule="evenodd" d="M297.404 10.0852C298.559 10.4211 299.199 10.4211 300.315 10.8273C300.697 10.9679 301.017 11.0851 301.345 11.3273C301.782 11.6476 302.118 12.085 302.454 12.5069C303.281 13.5302 303.929 14.6239 304.663 15.741C305.287 16.4206 305.256 17.4752 304.577 18.1002C303.898 18.7251 302.844 18.6939 302.212 18.0143C301.174 17.2253 300.104 16.5847 299.121 15.7488C298.699 15.3895 298.262 15.0301 297.95 14.577C297.716 14.2333 297.591 13.8974 297.474 13.4912C297.13 12.3272 297.13 11.6788 296.967 10.4601C296.865 10.3352 296.881 10.1555 296.998 10.0539C297.115 9.95237 297.302 9.96018 297.404 10.0852Z" fill="#FFDD6F"/>
<path fill-rule="evenodd" clip-rule="evenodd" d="M337.601 43.5436L337.288 43.9342C337.031 44.2467 337.218 44.731 337.203 45.1372C337.093 47.8089 337.054 50.504 337.234 53.246C337.351 55.0349 337.593 56.8238 337.913 58.6128C339.989 70.2759 343.907 81.7516 349.714 91.5634C349.761 91.6493 349.863 91.6884 349.956 91.6493C350.042 91.6025 350.081 91.5009 350.042 91.4072C345.866 80.7595 344.821 68.6667 343.775 56.8395C343.673 55.6677 343.525 54.5037 343.353 53.3475C343.088 51.582 342.76 49.8478 342.417 48.1292C342.12 46.6449 342.143 45.0825 341.433 43.7701C341.363 43.6451 341.332 43.5983 341.207 43.5436L340.848 43.3717C340.738 43.4498 340.387 43.4889 339.599 43.4342C339.583 43.278 339.443 43.1608 339.287 43.1686C339.131 43.1842 339.013 43.3249 339.021 43.4811C338.139 43.7076 337.741 43.6764 337.601 43.5358" fill="#FFDD6F"/>
<path fill-rule="evenodd" clip-rule="evenodd" d="M338.857 80.1033C339.177 80.2517 339.201 80.1346 339.458 80.3689C339.622 80.5174 339.693 80.7205 339.778 80.9158C341.027 83.7046 341.894 86.595 343.408 89.2589C343.759 89.9463 343.486 90.7822 342.799 91.1337C342.112 91.4775 341.269 91.2119 340.926 90.5244C339.716 87.9152 338.608 85.2826 338.085 82.4781C337.983 81.9079 337.741 81.3298 337.905 80.7751C337.999 80.4392 338.085 80.5252 338.303 80.2439C338.264 80.0877 338.358 79.9315 338.514 79.8924C338.67 79.8533 338.826 79.9471 338.865 80.1033" fill="#FFDD6F"/>
<path fill-rule="evenodd" clip-rule="evenodd" d="M324.285 110.898C324.824 111.281 325.183 111.335 325.635 111.82C325.947 112.148 326.111 112.577 326.338 112.976C327.282 114.671 328.188 116.358 329.124 118.046C331.31 121.999 333.87 125.748 335.876 129.811C336.617 131.303 337.086 132.857 337.694 134.412C338.1 135.13 337.85 136.044 337.132 136.451C336.414 136.857 335.501 136.607 335.087 135.888C334.065 134.576 332.957 133.388 332.043 131.998C329.928 128.787 328.305 125.28 326.712 121.796C325.479 119.108 324.41 116.366 323.528 113.531C323.465 113.312 323.356 113.109 323.348 112.89C323.325 112.156 323.575 111.812 323.746 111.093C323.692 110.945 323.77 110.781 323.918 110.726C324.066 110.671 324.23 110.742 324.293 110.898" fill="#FFDD6F"/>
<path fill-rule="evenodd" clip-rule="evenodd" d="M315.785 122.202C316.355 122.42 316.714 122.452 317.198 122.819C318.033 123.444 318.532 124.405 319.087 125.303C320.757 128.029 321.795 131.185 323.7 133.771C324.215 134.49 324.051 135.49 323.333 136.005C322.615 136.521 321.616 136.349 321.1 135.638C319.399 133.279 318.056 130.646 316.94 127.959C316.37 126.584 315.645 125.311 315.317 123.889C315.2 123.358 315.348 123.092 315.325 122.553C315.231 122.428 315.254 122.241 315.379 122.147C315.504 122.053 315.684 122.077 315.785 122.202Z" fill="#FFDD6F"/>
<path fill-rule="evenodd" clip-rule="evenodd" d="M296.459 35.8489C298.145 35.7239 299.644 35.7082 301.455 36.1223C303.008 36.4816 304.444 37.2159 305.927 37.9971C307.184 38.6611 308.393 39.4423 309.549 40.2782C312.366 42.3249 314.817 44.731 316.909 46.684C318.267 48.0511 320.866 49.4885 321.389 51.5977C321.639 52.5976 321.623 53.0663 321.311 53.9647C321.623 54.9021 321.108 55.9098 320.172 56.2145C319.235 56.5192 318.228 56.0114 317.916 55.074C317.44 54.7459 317.01 55.1521 316.519 54.7693C315.145 53.7069 313.818 52.1367 312.679 51.1055C310.259 48.6994 307.035 45.9262 303.882 43.2077C302.469 41.989 301.111 40.825 299.8 39.6298C299.136 39.0205 298.754 38.3955 298.114 37.8175C297.497 37.2628 296.951 36.841 296.295 36.4035C296.139 36.3566 296.053 36.2004 296.092 36.0442C296.131 35.8879 296.295 35.802 296.444 35.841" fill="white"/>
<path fill-rule="evenodd" clip-rule="evenodd" d="M290.215 42.1062C290.816 41.3484 289.77 41.7937 290.715 41.4969C290.878 41.45 291.042 41.5984 291.214 41.6609C293.048 42.3093 295 43.4811 296.928 44.8872C298.356 45.9262 299.753 47.0824 301.025 48.262C301.821 48.9963 302.571 49.7228 303.219 50.4571C303.71 51.0118 304.069 51.5742 304.483 52.0664C305.084 52.582 305.162 53.4959 304.639 54.0975C304.124 54.7068 303.211 54.7771 302.602 54.2537C302.017 53.9022 301.392 53.5506 300.768 53.0663C299.987 52.457 299.23 51.707 298.442 50.9415C297.685 50.1993 296.92 49.4181 296.17 48.6213C294.36 46.6996 292.619 44.7779 290.832 43.5123C290.574 43.3327 290.207 43.2623 290.074 42.9967C289.692 42.2156 290.09 43.0592 290.16 42.2077C290.129 42.1999 290.121 42.1609 290.129 42.1374C290.137 42.1062 290.168 42.0984 290.199 42.1062" fill="white"/>
<path fill-rule="evenodd" clip-rule="evenodd" d="M262.881 57.8784C263.381 58.1206 263.224 57.7847 263.568 58.2143C263.88 58.5971 263.833 59.1283 263.911 59.6205C264.294 61.9328 264.372 64.292 264.544 66.6512C264.645 68.0105 264.731 69.3698 264.778 70.7368C264.848 72.7836 264.825 74.8225 264.864 76.8614C264.903 78.9159 265.012 80.947 265.027 82.9859C265.035 84.3921 264.949 85.7279 264.957 87.1262C264.996 87.345 264.848 87.5559 264.622 87.5949C264.395 87.634 264.192 87.4856 264.153 87.259C263.669 85.8295 263.17 84.4467 262.826 82.9625C262.03 79.5955 261.617 76.1427 261.312 72.6664C261.179 71.0962 261.101 69.5104 261.086 67.9402C261.062 65.5654 261.078 63.2062 261.258 60.8626C261.32 60.058 261.172 59.2065 261.554 58.5034C261.812 58.0425 261.898 58.23 262.296 57.8941C262.296 57.7378 262.42 57.605 262.577 57.5972C262.733 57.5972 262.865 57.7144 262.873 57.8784" fill="#8E6C6C"/>
</g>
<mask id="mask2_14_2409" style="mask-type:luminance" maskUnits="userSpaceOnUse" x="0" y="0" width="505" height="518">
<path d="M505 0H0V518H505V0Z" fill="white"/>
</mask>
<g mask="url(#mask2_14_2409)">
<path fill-rule="evenodd" clip-rule="evenodd" d="M249.55 74.6819C249.284 71.7915 251.415 69.2213 254.311 68.9557L264.801 67.9792C267.697 67.7136 270.265 69.8463 270.538 72.7367L272.13 89.8604C272.396 92.7508 270.265 95.3209 267.369 95.5943L256.879 96.563C253.983 96.8364 251.415 94.696 251.142 91.8056L249.55 74.6819Z" fill="#352323"/>
<path fill-rule="evenodd" clip-rule="evenodd" d="M258.331 60.4642C258.206 54.2381 263.498 46.0434 274.378 46.5277C282.847 46.9027 287.912 58.2065 289.715 68.2058C292.174 81.8063 293.259 101.641 294.149 108.234C294.726 112.507 293.4 113.648 283.557 115.077C269.336 117.14 265.168 116.843 263.31 112.359C261.289 107.484 258.596 73.6741 258.338 60.4642" fill="#4C3636"/>
<path fill-rule="evenodd" clip-rule="evenodd" d="M281.957 73.3304C281.629 69.8307 284.213 66.7215 287.717 66.3934L300.424 65.2138C303.929 64.8857 307.043 67.4715 307.371 70.9712L309.041 88.962C309.369 92.4618 306.786 95.5709 303.281 95.899L290.574 97.0786C287.069 97.4067 283.955 94.821 283.627 91.3212L281.957 73.3304Z" fill="#4C3636"/>
<path fill-rule="evenodd" clip-rule="evenodd" d="M266.51 111.515C266.425 111.359 266.315 111.335 266.268 111.156C266.042 110.265 266.128 109.203 265.839 108.14C265.34 106.289 264.598 104.375 264.341 102.859L261.734 81.5954C261.71 81.486 261.78 81.3767 261.89 81.3532C261.999 81.3298 262.108 81.4001 262.132 81.5095C262.904 84.2983 263.544 87.0872 263.997 89.9229C264.676 94.1413 265.02 98.4066 265.706 102.648C265.956 104.383 266.862 106.656 267.252 108.75C267.424 109.671 267.79 110.656 267.385 111.359C267.283 111.531 267.229 111.499 267.065 111.609C267.041 111.765 266.893 111.874 266.729 111.843C266.573 111.82 266.464 111.663 266.495 111.507" fill="#8E6C6C"/>
<path fill-rule="evenodd" clip-rule="evenodd" d="M269.125 100.781L270.959 109.742C270.998 109.859 270.928 109.976 270.811 110.015C270.694 110.046 270.577 109.984 270.538 109.867C270.171 109.031 269.726 108.211 269.375 107.312C269.032 106.429 268.751 105.508 268.571 104.586C268.313 103.281 268.298 101.984 268.485 100.735C268.501 100.563 268.649 100.43 268.821 100.446C268.992 100.461 269.125 100.61 269.117 100.781" fill="#8E6C6C"/>
<path fill-rule="evenodd" clip-rule="evenodd" d="M273.473 104.703C273.644 105.133 273.824 105.555 273.933 106.008C274.183 107.023 274.23 108.078 274.433 109.109C274.48 109.304 274.355 109.5 274.16 109.546C273.964 109.593 273.769 109.476 273.722 109.281L272.911 104.851C272.872 104.695 272.965 104.539 273.121 104.508C273.278 104.469 273.434 104.562 273.473 104.719" fill="#8E6C6C"/>
<path fill-rule="evenodd" clip-rule="evenodd" d="M268.836 54.4881C269.117 55.3552 269.398 56.2301 269.601 57.1207C270.077 59.183 270.343 61.2844 270.78 63.3546C270.827 63.5733 270.686 63.7999 270.46 63.8467C270.234 63.8936 270.015 63.753 269.96 63.5343L268.267 54.6365C268.228 54.4803 268.321 54.324 268.47 54.285C268.626 54.2459 268.782 54.3318 268.821 54.4881" fill="#8E6C6C"/>
<path fill-rule="evenodd" clip-rule="evenodd" d="M266.331 56.7535L267.283 62.6047C267.338 62.8312 267.197 63.0499 266.971 63.1046C266.745 63.1515 266.518 63.0187 266.471 62.7921C266.268 62.0031 266.089 61.2141 265.995 60.4095C265.863 59.2299 265.878 58.0425 265.753 56.8551C265.73 56.6989 265.831 56.5504 265.995 56.527C266.151 56.5036 266.3 56.6051 266.331 56.7614" fill="#8E6C6C"/>
<path fill-rule="evenodd" clip-rule="evenodd" d="M262.803 58.6284C263.006 59.3393 263.232 60.0189 263.334 60.7454C263.747 63.5343 263.498 66.3622 264.013 69.1823C264.075 69.526 263.849 69.8541 263.505 69.9166C263.162 69.9791 262.834 69.7525 262.772 69.4088C262.436 67.6043 262.296 65.8153 262.225 64.0186C262.179 62.7843 262.054 61.55 262.085 60.3079C262.1 59.7611 262.194 59.2533 262.225 58.7065C262.202 58.5503 262.319 58.4018 262.475 58.3862C262.631 58.3628 262.78 58.4721 262.795 58.6362" fill="#8E6C6C"/>
<path fill-rule="evenodd" clip-rule="evenodd" d="M254.701 76.0958C255.24 77.377 255.575 78.7987 255.755 80.2596C256.012 82.3688 255.981 84.5639 256.309 86.5403C256.34 86.7356 256.215 86.9231 256.02 86.9622C255.825 86.9934 255.63 86.8684 255.599 86.6731C255.123 84.0327 255.146 81.0251 254.646 78.2988C254.522 77.6113 254.381 76.9395 254.162 76.2989C254.108 76.1505 254.178 75.9864 254.326 75.924C254.475 75.8693 254.639 75.9396 254.701 76.0958Z" fill="#8E6C6C"/>
<path fill-rule="evenodd" clip-rule="evenodd" d="M292.283 71.5415C292.447 71.8696 292.596 72.1821 292.689 72.5492C293.033 73.846 292.955 75.299 293.181 76.5645L295.335 90.1104C295.398 90.3291 295.257 90.5557 295.039 90.6182C294.82 90.6729 294.586 90.5479 294.531 90.3213C293.907 88.548 293.243 86.8216 292.806 85.0092C292.151 82.3063 291.878 79.5331 291.597 76.7364L291.714 71.6743C291.682 71.518 291.776 71.3618 291.924 71.3306C292.08 71.2915 292.237 71.3931 292.276 71.5493" fill="#8E6C6C"/>
<path fill-rule="evenodd" clip-rule="evenodd" d="M296.888 75.8146L297.146 83.5015C297.162 83.6734 297.037 83.8296 296.857 83.8452C296.686 83.8609 296.529 83.7281 296.514 83.5562C296.358 82.2594 296.233 80.9783 296.225 79.6815C296.225 78.4003 296.327 77.127 296.311 75.838C296.303 75.6818 296.428 75.5412 296.584 75.5334C296.748 75.5256 296.881 75.6505 296.888 75.8068" fill="#8E6C6C"/>
<path fill-rule="evenodd" clip-rule="evenodd" d="M446.265 438.186C446.422 437.561 446.523 437.108 446.921 436.553C447.233 436.123 447.717 435.834 448.17 435.514C450.129 434.131 452.642 433.241 454.531 432.389C459.503 430.319 464.998 428.507 470.571 427.444C472.796 427.022 475.028 426.702 477.237 426.577C478.142 426.53 479.04 426.483 479.937 426.562C480.577 426.616 481.132 426.757 481.756 426.874C482.334 426.827 482.833 427.257 482.88 427.835C482.927 428.413 482.49 428.913 481.92 428.96C481.163 429.202 480.484 429.499 479.703 429.71C478.61 429.999 477.502 430.21 476.363 430.421C472.093 431.202 467.683 431.991 463.437 433.085C460.775 433.772 458.153 434.475 455.679 435.334L446.703 438.576C446.601 438.693 446.414 438.709 446.297 438.6C446.18 438.498 446.164 438.311 446.273 438.193" fill="#251818"/>
<path fill-rule="evenodd" clip-rule="evenodd" d="M461.572 434.319C461.579 433.827 461.298 434.366 461.579 433.967C461.65 433.866 461.798 433.881 461.915 433.842C463.156 433.42 464.467 433.147 465.849 433.069C469.197 432.889 472.733 433.694 475.808 434.03C476.472 434.108 476.948 434.717 476.87 435.381C476.792 436.045 476.183 436.522 475.52 436.444L461.689 434.881C461.533 434.912 461.376 434.819 461.345 434.662C461.314 434.506 461.408 434.35 461.564 434.319" fill="#251818"/>
<path fill-rule="evenodd" clip-rule="evenodd" d="M428.165 424.437C429.297 425.507 430.71 426.296 432.403 426.679C440.115 428.421 445.797 423.906 447.733 417.976C449.622 412.18 447.936 405.141 441.223 401.923C434.347 398.673 427.775 402.251 424.746 408.04C421.89 413.492 422.186 420.585 428.165 424.437Z" fill="#251818"/>
<path fill-rule="evenodd" clip-rule="evenodd" d="M235.149 450.029C238.076 452.224 241.604 453.138 245.038 451.911C250.806 449.841 252.914 442.771 251.212 436.014C249.557 429.452 244.554 424.07 238.919 424.484C235.547 424.741 233.026 426.272 231.363 428.522C227.742 432.139 227.492 438.279 230.021 443.623C230.95 445.584 232.206 447.349 233.682 448.771C234.08 449.161 234.493 449.529 234.93 449.857L234.962 449.88L235.008 449.919L235.102 449.989L235.149 450.021V450.029Z" fill="#251818"/>
<path fill-rule="evenodd" clip-rule="evenodd" d="M415.419 343.654L464.764 378.323C464.764 378.323 470.126 388.299 461.587 392.072L410.619 357.137L415.411 343.654H415.419Z" fill="#251818"/>
<path fill-rule="evenodd" clip-rule="evenodd" d="M381.544 322.78L209.844 203.805L207.901 218.733L374.972 331.483L381.544 322.78Z" fill="#251818"/>
<path fill-rule="evenodd" clip-rule="evenodd" d="M281.442 55.4177L280.903 53.6756C280.661 53.2382 280.029 52.1289 279.444 51.6055C278.991 51.1993 278.507 51.0508 278.101 51.0665C277.492 51.0899 277.141 51.4024 276.938 51.8477C276.759 52.2304 277.157 53.5897 277.211 53.7538L278.616 57.355L281.208 66.3934L284.72 98.4691L285.743 107.328C285.844 107.906 285.946 109.078 286.281 109.968C286.554 110.695 286.991 111.265 287.499 111.624C288.904 112.609 290.035 112.249 290.754 110.695C291.019 110.406 291.222 110.078 291.37 109.718C291.643 109.07 291.682 108.281 291.799 107.609C291.971 106.648 292.01 105.711 291.971 104.773C291.893 102.813 291.448 100.883 291.261 98.9066L289.669 88.4855C289.052 83.5406 288.67 78.4316 287.764 73.471C287.366 71.2837 286.835 69.1432 286.211 67.0418L281.941 56.1364L281.434 55.4255L281.442 55.4177Z" fill="#352323"/>
<path fill-rule="evenodd" clip-rule="evenodd" d="M304.787 68.8776C304.951 68.9557 305.076 69.0963 305.131 69.2838C305.146 69.3307 305.154 69.3854 305.154 69.4323C305.334 69.7369 305.482 70.0885 305.615 70.4634C306.028 71.6586 306.185 73.2835 306.333 73.9475C306.77 75.8927 307.176 77.8222 307.379 79.783C307.496 80.8767 307.543 81.9782 307.566 83.0718L307.613 84.6108C307.613 84.7123 307.613 85.0405 307.597 85.4857V85.6654L307.457 88.0793L307.121 89.4932C306.676 90.915 306.255 91.54 305.943 91.7118C305.123 92.1884 303.96 92.4149 303.312 90.8759C302.828 89.7276 302.204 86.5091 302.118 85.9857L301.392 81.8219L301.033 73.8382C301.002 73.5882 301.049 73.346 301.166 73.1429L301.01 71.0103C301.041 70.1197 301.743 68.3542 302.251 68.1042C302.75 67.8621 303.375 67.8152 304.132 68.2917C304.366 68.4323 304.584 68.6354 304.78 68.8854M305.037 69.9322C305.24 69.8307 305.42 69.7369 305.217 69.7916C305.131 69.815 305.068 69.8619 305.037 69.9322Z" fill="#352323"/>
<path fill-rule="evenodd" clip-rule="evenodd" d="M275.003 76.1271C275.362 76.1661 275.689 75.9083 275.728 75.549C275.885 75.2287 275.611 75.0647 275.51 74.8615C275.393 74.635 274.644 74.6428 274.292 74.4475L271.756 74.0725C270.819 73.9944 269.875 73.7913 268.93 73.7835C267.892 73.7757 266.916 73.9554 265.917 74.1741C265.457 74.1897 265.105 74.5803 265.129 75.0334C265.152 75.4865 265.535 75.8458 265.987 75.8224L271.545 76.713L274.058 76.5489C274.331 76.4708 275.159 76.4005 274.995 76.1193" fill="#352323"/>
<path fill-rule="evenodd" clip-rule="evenodd" d="M274.386 80.5174C274.316 80.6111 274.222 80.7283 274.191 80.7283C273.847 80.7048 273.886 80.8533 273.964 81.0798L273.98 81.0251C274.105 80.6892 274.48 80.5095 274.823 80.6345C275.877 80.2127 275.221 81.4313 275.252 81.7204C275.268 81.8688 275.057 81.7907 274.815 82.0485C274.667 82.2047 273.902 82.3922 273.574 82.525H271.545C270.296 82.236 268.953 82.3063 267.697 81.986C266.698 81.736 265.886 81.2907 265.027 80.7595C264.739 80.6736 264.583 80.3767 264.661 80.0955C264.739 79.8065 265.035 79.6424 265.324 79.7283C266.667 79.783 267.884 79.3456 269.25 79.2909C270.202 79.2518 271.147 79.4627 272.068 79.6424L273.605 80.1189C273.793 80.1893 274.214 80.5799 274.402 80.5252M274.05 81.611V81.6657C274.05 81.6657 274.05 81.6891 274.074 81.697H274.121L274.074 81.6501L274.05 81.611ZM274.402 80.5252C274.48 80.4314 274.526 80.3533 274.464 80.4705C274.448 80.5017 274.425 80.5174 274.402 80.5252Z" fill="#352323"/>
<path fill-rule="evenodd" clip-rule="evenodd" d="M274.753 86.72L272.294 85.9154C271.061 85.681 269.859 85.3451 268.633 85.4154C267.361 85.4857 266.245 85.931 264.996 86.2747C264.809 86.2826 264.661 86.4466 264.668 86.6341C264.676 86.8216 264.84 86.97 265.027 86.9622C266.026 87.1887 266.862 87.5637 267.861 87.7043C269.227 87.8918 270.616 87.7356 272.021 87.884L275.112 88.2902C275.408 88.3683 275.721 88.2512 275.885 87.9855C276.041 87.7278 276.017 87.3918 275.814 87.1653L275.721 87.2669C275.674 86.9544 275.408 86.72 275.088 86.7122C274.956 86.6966 274.846 86.6966 274.753 86.72Z" fill="#352323"/>
<path fill-rule="evenodd" clip-rule="evenodd" d="M274.503 92.3602H274.487C274.089 92.3368 273.036 92.1649 272.864 92.1415L268.524 91.29C268.103 91.165 267.666 91.415 267.549 91.829C267.431 92.243 267.673 92.6805 268.087 92.8055L272.84 94.0242C273.036 94.0007 274.199 93.8289 274.628 93.7195C275.9 93.3914 275.541 92.4774 274.901 92.368C274.768 92.3212 274.636 92.3212 274.503 92.3602Z" fill="#352323"/>
<path fill-rule="evenodd" clip-rule="evenodd" d="M182.339 191.642L178.483 203.414L120.123 164.316L124.049 152.043L182.339 191.642Z" fill="#251818"/>
<path fill-rule="evenodd" clip-rule="evenodd" d="M131.753 163.339V163.191C131.776 162.902 131.409 162.714 131.23 162.48C129.52 160.199 127.561 157.965 125.352 155.894C121.785 152.559 117.711 149.629 114.214 146.739C105.722 139.911 97.4642 132.138 87.9886 127.053C83.3757 124.577 78.4818 122.702 73.1899 121.881C72.5186 121.78 71.8552 121.663 71.1761 121.639C69.5995 121.577 68.0618 121.772 66.4461 121.991C65.9622 121.983 65.5563 122.366 65.5485 122.85C65.5407 123.334 65.9232 123.741 66.4071 123.748C67.9213 124.022 69.3029 124.467 70.7468 124.811C71.3634 124.952 71.9801 125.053 72.5889 125.186C77.4515 126.225 81.9083 128.076 86.1466 130.443C95.349 135.576 103.505 143.044 111.834 149.723C115.034 152.231 118.554 154.934 122.043 157.605C124.33 159.355 126.625 161.035 128.638 162.894C129.161 163.378 129.474 164.214 130.153 164.355C130.902 164.519 130.129 164.355 130.847 164.081C130.949 164.206 131.128 164.222 131.253 164.12C131.378 164.019 131.394 163.839 131.292 163.714C131.511 163.48 131.659 163.37 131.753 163.347" fill="#251818"/>
<path fill-rule="evenodd" clip-rule="evenodd" d="M0 103.828L69.1858 113.601L70.8951 131.428L4.23045 140.716L0 103.828Z" fill="#251818"/>
<path fill-rule="evenodd" clip-rule="evenodd" d="M59.4058 118.944C59.2575 119.155 59.2731 119.257 59.0546 119.397C57.9774 120.108 56.5022 119.897 55.1675 119.952C51.8971 120.092 48.4941 119.569 45.3563 119.499C42.804 119.413 40.2283 119.319 37.6526 119.124C33.8436 118.843 30.0268 118.436 26.21 118.194C23.2441 118.007 20.2937 118.022 17.3433 117.921C16.0476 117.874 14.7988 117.718 13.5109 117.671C13.2924 117.694 13.105 117.538 13.0816 117.319C13.0582 117.101 13.2143 116.913 13.4328 116.89C14.7129 116.577 15.9539 116.241 17.2574 116.069C20.239 115.679 23.2831 115.765 26.3115 115.835C30.1673 115.913 34.0309 116.147 37.8633 116.452C40.4234 116.655 42.9601 116.944 45.489 117.124C48.1662 117.343 51.0151 117.858 53.825 118.1C55.4719 118.241 57.1032 117.882 58.6799 118.116C58.9453 118.155 59.0389 118.288 59.2887 118.39C59.4448 118.358 59.6009 118.452 59.6322 118.608C59.6634 118.764 59.5697 118.921 59.4136 118.952" fill="#694D4D"/>
<path fill-rule="evenodd" clip-rule="evenodd" d="M45.692 123.897C42.6323 123.78 39.6117 124.084 36.5442 124.287C34.4992 124.42 32.4543 124.522 30.4015 124.537C29.2931 124.537 28.1848 124.545 27.0842 124.42C25.9525 124.287 24.891 124.014 23.7826 123.756C23.6187 123.748 23.4938 123.608 23.5016 123.444C23.5094 123.28 23.6499 123.155 23.8138 123.163C24.8832 123.045 25.89 122.834 26.9594 122.725C27.654 122.655 28.3487 122.624 29.0434 122.6C31.6659 122.499 34.2963 122.381 36.9267 122.428C39.8927 122.467 42.8274 122.78 45.7466 123.303C45.9105 123.319 46.0354 123.475 46.012 123.639C45.9964 123.803 45.8481 123.928 45.6764 123.905" fill="#694D4D"/>
<path fill-rule="evenodd" clip-rule="evenodd" d="M22.4869 127.678C21.9796 127.764 21.5113 127.92 21.0039 127.975C19.8488 128.1 18.678 128.029 17.515 128.076C17.234 128.092 16.9842 127.873 16.9686 127.592C16.953 127.311 17.1716 127.061 17.4525 127.045C18.6311 126.959 19.7941 126.74 20.9727 126.819C21.4957 126.85 21.9796 126.998 22.4947 127.108C22.6508 127.108 22.7835 127.24 22.7757 127.397C22.7757 127.553 22.643 127.686 22.4791 127.678" fill="#694D4D"/>
<path fill-rule="evenodd" clip-rule="evenodd" d="M169.148 189.798C166.751 188.642 164.402 187.322 162.154 185.767C157.814 182.76 153.748 179.166 149.603 175.815C146.255 173.112 142.86 170.596 139.293 168.464C138.379 167.917 137.49 167.347 136.553 166.839C136.451 166.8 136.405 166.683 136.444 166.581C136.49 166.48 136.608 166.433 136.709 166.472C140.456 167.855 144.023 169.776 147.394 172.128C151.945 175.299 156.191 179.111 160.554 182.603C162.302 184.002 164.082 185.345 165.846 186.658C167.048 187.556 168.203 188.47 169.436 189.29C169.577 189.369 169.624 189.54 169.554 189.681C169.475 189.822 169.296 189.868 169.163 189.79" fill="#694D4D"/>
<path fill-rule="evenodd" clip-rule="evenodd" d="M154.958 184.595L143.71 177.58C143.515 177.463 143.461 177.213 143.578 177.018C143.695 176.823 143.945 176.768 144.14 176.885C146.036 177.987 148.042 178.979 149.939 180.15C151.859 181.338 153.646 182.689 155.325 184.142C155.449 184.244 155.473 184.424 155.371 184.549C155.27 184.674 155.09 184.697 154.966 184.595" fill="#694D4D"/>
<path fill-rule="evenodd" clip-rule="evenodd" d="M350.838 309.656C350.37 309.469 349.91 309.32 349.449 309.094C347.677 308.227 346.03 307.149 344.337 306.125C335.915 301.055 327.649 295.704 319.391 290.353C300.143 277.87 281.075 265.082 261.991 252.34C257.222 249.153 252.477 245.919 247.708 242.732C247.567 242.638 247.52 242.443 247.614 242.302C247.708 242.154 247.903 242.115 248.051 242.208C253.616 245.677 259.189 249.13 264.723 252.661C286.82 266.792 308.721 281.237 330.732 295.47C335.548 298.587 340.379 301.68 345.156 304.844C346.795 305.93 348.489 306.946 350.042 308.164C350.44 308.477 350.776 308.828 351.158 309.164C351.291 309.25 351.33 309.43 351.252 309.563C351.166 309.695 350.987 309.742 350.854 309.656" fill="#694D4D"/>
<path fill-rule="evenodd" clip-rule="evenodd" d="M442.55 373.112C441.996 372.831 441.535 372.737 441.02 372.378C440.739 372.183 440.529 371.917 440.287 371.675C437.149 368.457 433.582 365.511 430.007 362.605C427.564 360.621 425.23 358.543 422.92 356.59C422.53 356.301 422.452 355.747 422.74 355.364C423.029 354.973 423.583 354.895 423.974 355.184C426.104 356.575 428.345 357.918 430.491 359.457C432.614 360.981 434.667 362.637 436.587 364.402C438.694 366.332 440.973 368.183 442.308 370.628C442.691 371.331 442.784 371.995 443.011 372.761C443.104 372.886 443.081 373.073 442.956 373.167C442.831 373.269 442.652 373.237 442.55 373.112Z" fill="#694D4D"/>
</g>
</g>
<defs>
<clipPath id="clip0_14_2409">
<rect width="505" height="518" fill="white"/>
</clipPath>
</defs>
</svg>
