<svg width="353" height="799" viewBox="0 0 353 799" fill="none" xmlns="http://www.w3.org/2000/svg">
<path d="M360 -1H0V799H360V-1Z" fill="#0CC1E1"/>
<path d="M0 520V260V4H359.951C361.311 60.1667 334.055 184.5 298.26 184.5C244.698 184.5 231.245 225.036 244.698 260C249.315 272 248.946 303.143 201.611 298.467C154.276 293.79 164.384 315.176 169 320C189.157 341.068 203 349 227 349V352C207 357.5 178.058 349.942 171 360C163.942 370.058 188.5 390.5 212 406C285.814 454.686 103.523 497.91 99.6409 498.926C95.7588 499.941 0 520 0 520Z" fill="#0991A9"/>
<path d="M0 516V256V0H353C354.333 56.1667 327.604 180.5 292.5 180.5C239.972 180.5 226.779 221.036 239.972 256C244.5 268 244.138 299.143 197.718 294.467C151.297 289.79 160.138 314.525 164.665 319.35C184.432 340.418 201.442 352.601 223.5 349V351.5C196.5 356.645 171.587 344.942 164.665 355C157.743 365.058 181.474 392.348 205.586 405.17C282.059 445.837 103.475 493.392 97.7939 494.905L97.7167 494.926C93.9095 495.941 0 516 0 516Z" fill="white"/>
<path opacity="0.24" d="M288.811 453C315.172 453 336.542 447.268 336.542 440.197C336.542 433.126 315.172 427.394 288.811 427.394C262.45 427.394 241.08 433.126 241.08 440.197C241.08 447.268 262.45 453 288.811 453Z" fill="black"/>
<g clip-path="url(#clip0_157_2)">
<mask id="mask0_157_2" style="mask-type:luminance" maskUnits="userSpaceOnUse" x="211" y="320" width="126" height="129">
<path d="M336.542 320H211V448.774H336.542V320Z" fill="white"/>
</mask>
<g mask="url(#mask0_157_2)">
<path fill-rule="evenodd" clip-rule="evenodd" d="M320.173 396.056C320.173 396.056 320.132 396.087 320.144 396.102L313.976 406.113C313.976 406.113 313.046 412.996 310.803 413.068L309.028 417.15C309.082 417.031 309.664 415.965 312.276 417.579L324.915 408.286C324.915 408.286 329.706 406.818 331.301 414.967C332.894 423.114 332.706 435.587 330.919 434.982C329.132 434.376 329.006 427.002 323.022 428.138L316.77 434.582C316.77 434.582 318.458 439.524 309.792 441.895C301.128 444.266 284.263 453.817 282.091 445.158C279.922 436.496 284.561 411.65 284.561 411.65L278.882 409.207C278.882 409.207 282.79 415.577 277.815 418.525L278.265 443.495C278.265 443.495 260.798 446.249 251.094 443.829C251.094 443.829 249.608 442.588 253.533 440.879C257.46 439.171 264.758 436.607 261.787 420.548C261.787 420.548 256.626 417.707 256.929 409.083C257.231 400.458 251.608 386.946 255.351 384.38L257.786 383.296C257.786 383.296 253.081 376.762 254.942 371.429C254.942 371.429 257.268 362.62 258.863 366.335C258.863 366.335 261.717 364.966 261.723 368.362C261.723 368.362 264.226 366.583 263.854 369.504C263.854 369.504 262.261 372.575 263.155 374.012L269.308 379.803C269.308 379.803 271.825 357.868 279.804 355.351L278.927 348.54C278.927 348.54 277.194 339.31 276.588 334.468C276.588 334.468 274.852 322.901 279.148 321.361C283.442 319.821 292.789 317.196 296.211 329.359C299.634 341.523 301.503 347.501 303.975 348.552C303.975 348.552 309.156 349.934 310.617 351.001C312.078 352.067 332.374 365.003 335.822 371.664C339.268 378.325 329.481 392.665 324.49 394.609C320.718 396.079 320.181 396.157 320.144 396.106L320.173 396.059V396.056ZM312.068 376.495L316.515 379.034L313.582 382.889L312.066 376.497L312.068 376.495Z" fill="#FFC614"/>
</g>
<mask id="mask1_157_2" style="mask-type:luminance" maskUnits="userSpaceOnUse" x="250" y="320" width="87" height="129">
<path d="M285.828 320C289.833 320.017 294.124 321.936 296.211 329.355C299.634 341.52 301.503 347.497 303.975 348.546C303.975 348.546 309.156 349.929 310.617 350.995C312.078 352.061 332.374 364.997 335.822 371.658C339.268 378.319 329.481 392.659 324.49 394.603C320.718 396.073 320.181 396.151 320.144 396.1L320.173 396.054C320.173 396.054 320.132 396.083 320.144 396.1L313.976 406.111C313.976 406.111 313.046 412.994 310.803 413.066L309.028 417.148C309.082 417.029 309.664 415.963 312.276 417.577L324.915 408.283C324.915 408.283 329.706 406.814 331.301 414.963C332.894 423.11 332.706 435.584 330.919 434.978C329.132 434.372 329.006 426.998 323.022 428.134L316.77 434.578C316.77 434.578 318.456 439.52 309.792 441.891C301.126 444.262 284.263 453.815 282.091 445.154C279.922 436.492 284.561 411.646 284.561 411.646L278.882 409.203C278.882 409.203 282.79 415.573 277.815 418.521L278.265 443.492C278.265 443.492 260.798 446.245 251.092 443.826C251.092 443.826 249.606 442.585 253.531 440.876C257.458 439.167 264.756 436.603 261.785 420.545C261.785 420.545 256.624 417.703 256.927 409.079C257.229 400.454 251.606 386.942 255.349 384.376L257.784 383.293C257.784 383.293 253.079 376.758 254.94 371.425C254.94 371.425 257.266 362.616 258.861 366.331C258.861 366.331 261.715 364.964 261.721 368.358C261.721 368.358 264.226 366.58 263.852 369.5C263.852 369.5 262.259 372.571 263.153 374.008L269.306 379.799C269.306 379.799 271.823 357.864 279.802 355.347L278.925 348.536C278.925 348.536 277.192 339.306 276.586 334.464C276.586 334.464 274.85 322.896 279.146 321.356C280.799 320.763 283.197 320.012 285.718 320H285.828Z" fill="white"/>
</mask>
<g mask="url(#mask1_157_2)">
<path fill-rule="evenodd" clip-rule="evenodd" d="M275.03 327.943C275.03 327.943 284.381 326.046 289.197 327.887C294.011 329.726 292.548 336.08 288.811 336.546C283.349 337.226 281.075 332.404 279.167 332.52C276.42 332.689 276.585 334.534 274.935 336.301L275.032 327.943H275.03Z" fill="#FFF2D6"/>
<path fill-rule="evenodd" clip-rule="evenodd" d="M274.761 327.92C275.215 327.634 275.707 327.415 276.228 327.242C276.984 326.989 277.784 326.844 278.538 326.675L282.202 326.43C283.413 326.395 284.61 326.43 285.78 326.609C286.969 326.791 288.13 327.125 289.251 327.671C290.765 328.415 292.003 329.904 292.472 331.516C292.963 333.206 292.629 335.02 290.998 336.27C290.699 336.498 290.34 336.649 289.954 336.74C289.44 336.863 288.883 336.882 288.399 336.876C287.699 336.866 287.022 336.799 286.358 336.661C285.693 336.521 285.043 336.311 284.398 336.01C283.624 335.662 282.9 335.191 282.126 334.833C281.818 334.691 281.5 334.571 281.168 334.486C280.122 334.183 279.148 334.233 278.174 334.352C277.143 334.476 276.117 334.66 275.04 334.913C274.995 334.928 274.947 334.903 274.931 334.858C274.916 334.814 274.941 334.765 274.986 334.75C276.241 334.173 277.413 333.569 278.694 333.383C279.569 333.256 280.469 333.361 281.41 333.639C281.785 333.755 282.142 333.911 282.489 334.084C283.248 334.466 283.96 334.946 284.724 335.309C285.312 335.579 285.908 335.765 286.517 335.886C287.132 336.006 287.759 336.057 288.405 336.055C288.826 336.055 289.309 336.033 289.754 335.921C290.018 335.853 290.268 335.752 290.472 335.591C291.766 334.575 291.991 333.122 291.595 331.771C291.19 330.392 290.152 329.106 288.861 328.463C287.825 327.945 286.75 327.632 285.648 327.448C284.528 327.261 283.382 327.205 282.221 327.217L278.67 327.382C277.923 327.485 277.136 327.58 276.373 327.747C275.87 327.857 275.38 327.989 274.924 328.201C274.844 328.244 274.745 328.215 274.702 328.135C274.66 328.056 274.689 327.956 274.768 327.914" fill="#FFA600"/>
<path fill-rule="evenodd" clip-rule="evenodd" d="M307.836 372.559C307.594 372.165 307.32 371.765 307.093 371.332C306.746 370.669 306.439 369.98 306.187 369.364C305.446 367.556 305.062 365.816 304.918 364.074C304.699 361.412 305.042 358.749 305.537 355.861C305.649 355.211 305.824 354.586 306.038 353.972C306.362 353.038 306.773 352.135 307.213 351.241C307.357 350.946 307.506 350.649 307.671 350.367C307.83 350.099 307.997 349.843 308.259 349.651C308.337 349.604 308.36 349.503 308.314 349.426C308.267 349.348 308.166 349.325 308.088 349.371C307.809 349.505 307.578 349.688 307.384 349.913C307.112 350.23 306.934 350.628 306.736 351.001C306.344 351.754 305.968 352.511 305.657 353.296C305.343 354.088 305.098 354.906 304.949 355.76C304.439 358.701 304.087 361.412 304.305 364.125C304.448 365.927 304.844 367.731 305.605 369.601C305.915 370.361 306.259 371.254 306.754 372.025C306.944 372.322 307.157 372.596 307.384 372.844C307.73 373.788 307.988 374.755 308.255 375.725C308.304 375.899 308.352 376.072 308.401 376.247L308.539 376.826C308.618 377.066 308.688 377.309 308.754 377.556C308.77 377.612 308.783 377.67 308.799 377.727C308.954 378.344 309.072 378.977 309.181 379.612C309.348 380.587 309.489 381.568 309.618 382.518L310.324 386.606C310.477 387.693 310.634 388.773 310.817 389.837C310.824 389.895 310.881 389.938 310.941 389.928C311.001 389.921 311.042 389.864 311.032 389.804C311.022 389.725 311.013 389.647 311.003 389.567C311.036 389.585 311.065 389.593 311.086 389.591C311.104 389.594 311.346 389.558 311.414 389.295C311.459 389.123 311.55 388.686 311.556 388.655L311.884 386.522C312.091 385.464 312.807 384.57 313.163 383.592C313.271 383.291 313.347 382.982 313.384 382.663C313.471 381.846 313.403 381.005 313.225 380.168C313.151 379.826 313.067 379.486 312.978 379.148C313.19 379.387 313.556 379.407 313.795 379.195C313.888 379.111 313.948 379.007 313.974 378.892C314.03 378.843 314.042 378.758 313.997 378.694L313.979 378.665C313.962 378.562 313.915 378.461 313.84 378.377C313.692 378.076 313.576 377.795 313.37 377.527C313.108 377.187 312.755 376.929 312.476 376.606C312.254 376.449 312.037 376.21 311.775 376.051C310.764 375.157 309.666 374.365 308.7 373.427C308.407 373.142 308.112 372.86 307.838 372.553" fill="#FFA700"/>
<path fill-rule="evenodd" clip-rule="evenodd" d="M278.432 418.451C279.91 417.771 283.182 416.472 284.866 410.498C287.462 401.285 283.946 394.434 282.998 391.779C282.472 390.309 282.274 388.466 282.07 384.856C282.045 384.401 280.021 354.741 279.615 354.49C278.985 354.102 263.662 356.032 262.965 355.817C259.597 354.776 249.559 366.259 252.217 383.794C252.396 384.969 255.955 418.913 257.324 419.88C259.139 421.16 266.293 421.195 268.363 421.135C271.258 421.048 275.704 419.704 278.43 418.451" fill="#FFA700"/>
<path fill-rule="evenodd" clip-rule="evenodd" d="M279.811 410.291C279.734 410.262 279.66 410.242 279.588 410.201C279.427 410.112 279.293 409.988 279.156 409.869C278.368 409.186 277.79 408.318 277.308 407.383C276.425 405.669 275.913 403.69 275.29 401.981C275.069 401.353 274.801 400.724 274.501 400.101C274.208 399.493 273.882 398.891 273.517 398.318C273.15 397.741 272.743 397.194 272.308 396.681C271.862 396.155 271.392 395.661 270.87 395.232C270.835 395.207 270.827 395.156 270.853 395.121C270.88 395.087 270.93 395.079 270.963 395.106C271.534 395.496 272.069 395.945 272.556 396.456C273.034 396.957 273.463 397.514 273.854 398.097C274.244 398.675 274.596 399.285 274.902 399.907C275.215 400.542 275.477 401.194 275.702 401.837C276.28 403.55 276.738 405.525 277.574 407.251C278.018 408.168 278.579 409.003 279.305 409.708C279.431 409.83 279.571 409.939 279.693 410.069C279.749 410.129 279.786 410.192 279.839 410.256C279.85 410.263 279.852 410.279 279.844 410.289C279.837 410.3 279.821 410.302 279.811 410.295" fill="#FFC614"/>
<path fill-rule="evenodd" clip-rule="evenodd" d="M278.872 409.508C278.81 409.562 278.899 409.545 278.818 409.553C278.754 409.558 278.707 409.491 278.655 409.456C278.121 409.094 277.78 408.549 277.551 407.945C277.184 406.974 277.136 405.822 277.083 404.907C276.99 402.895 277.008 400.957 276.699 399.062C276.637 398.681 276.563 398.304 276.478 397.926C276.286 397.071 276.032 396.215 275.614 395.36C275.591 395.316 275.607 395.261 275.649 395.238C275.694 395.215 275.748 395.23 275.772 395.273C276.288 396.104 276.668 396.945 276.924 397.809C277.039 398.196 277.122 398.586 277.19 398.978C277.518 400.889 277.436 402.855 277.506 404.888C277.528 405.772 277.553 406.878 277.861 407.834C278.044 408.397 278.331 408.9 278.779 409.285C278.824 409.322 278.896 409.341 278.913 409.397C278.938 409.475 278.915 409.386 278.894 409.465C278.905 409.473 278.907 409.487 278.901 409.498C278.894 409.51 278.88 409.514 278.868 409.506" fill="#FFC614"/>
<path fill-rule="evenodd" clip-rule="evenodd" d="M286.921 405.103C286.921 405.103 286.898 405.111 286.865 405.129C286.789 405.166 286.7 405.103 286.618 405.09C286.374 405.045 286.127 404.995 285.885 404.935C285.322 404.793 284.771 404.604 284.216 404.418C282.897 403.971 281.597 403.445 280.361 402.86C279.726 402.559 279.101 402.251 278.486 401.926C277.869 401.602 277.26 401.264 276.654 400.909C276.233 400.66 275.744 400.316 275.242 400.043C274.92 399.868 274.592 399.72 274.276 399.658C274.149 399.633 274.027 399.676 273.907 399.734C273.666 399.852 273.439 400.041 273.232 400.144C272.49 400.516 272.062 401.004 271.875 401.602C271.691 402.196 271.743 402.892 271.943 403.68C272.263 404.935 272.673 406.195 273.119 407.449C273.789 409.329 274.541 411.199 275.201 413.029C275.587 414.103 275.987 415.346 276.078 416.571C276.142 417.42 276.057 418.259 275.731 419.034C275.576 419.383 275.358 419.688 275.102 419.964C274.92 420.162 274.726 420.352 274.516 420.523C274.309 420.692 274.089 420.836 273.882 420.995C273.831 421.042 273.754 421.042 273.707 420.991C273.66 420.943 273.662 420.863 273.711 420.816C273.913 420.585 274.114 420.352 274.33 420.129C274.536 419.913 274.751 419.709 274.927 419.476C275.073 419.284 275.197 419.078 275.29 418.847C275.587 418.144 275.659 417.377 275.603 416.606C275.515 415.423 275.129 414.223 274.759 413.188C274.101 411.357 273.352 409.485 272.684 407.603C272.234 406.333 271.823 405.059 271.503 403.791C271.28 402.909 271.239 402.132 271.446 401.468C271.666 400.765 272.161 400.184 273.034 399.747C273.28 399.623 273.561 399.384 273.854 399.275C274.021 399.215 274.19 399.19 274.363 399.225C274.72 399.297 275.09 399.46 275.451 399.658C275.958 399.936 276.451 400.285 276.874 400.536C277.473 400.889 278.077 401.225 278.684 401.548C279.295 401.87 279.91 402.179 280.541 402.478C281.356 402.866 282.2 403.229 283.058 403.563C284.082 403.962 285.136 404.288 286.176 404.612C286.415 404.686 286.645 404.769 286.882 404.843C286.898 404.847 286.919 404.843 286.929 404.859C287.022 404.981 286.929 404.828 286.933 404.983C286.946 404.987 286.954 404.999 286.95 405.012C286.946 405.026 286.933 405.034 286.921 405.03C286.865 405.135 286.944 405.098 286.925 405.105" fill="#FFC614"/>
<path fill-rule="evenodd" clip-rule="evenodd" d="M301.082 408.57C301.082 408.65 301.093 408.712 301.076 408.789C301.016 409.05 300.855 409.277 300.738 409.518C300.092 410.875 299.392 412.202 298.699 413.534C298.01 414.858 297.329 416.185 296.741 417.565C296.287 418.628 295.907 419.676 295.571 420.737C295.235 421.801 294.942 422.879 294.669 424.001C294.473 424.807 294.283 425.615 294.151 426.433C294.063 426.973 294.005 427.514 293.982 428.064C293.949 428.87 293.829 430.111 293.945 431.232C294.019 431.946 294.186 432.612 294.566 433.045C294.865 433.389 295.391 433.529 295.959 433.593C296.871 433.696 297.903 433.57 298.52 433.471C299.262 433.352 299.964 433.139 300.653 432.878C301.714 432.476 302.741 431.969 303.8 431.534C305.056 431.018 306.373 430.567 307.625 430.002C308.443 429.633 309.233 429.216 309.957 428.695C310.964 427.973 312.074 426.811 313.308 426.126C313.714 425.901 314.133 425.714 314.563 425.629C314.68 425.605 314.798 425.576 314.917 425.584C315.006 425.59 315.076 425.611 315.161 425.635C315.297 425.621 315.419 425.72 315.433 425.856C315.448 425.992 315.349 426.114 315.211 426.128C315.151 426.161 315.113 426.204 315.048 426.231C314.969 426.266 314.887 426.291 314.804 426.318C314.261 426.497 313.733 426.775 313.225 427.126C312.216 427.821 311.269 428.726 310.411 429.334C309.641 429.88 308.804 430.319 307.937 430.705C306.674 431.266 305.345 431.713 304.078 432.224C303.008 432.655 301.972 433.156 300.901 433.55C300.166 433.82 299.415 434.042 298.625 434.162C297.964 434.263 296.854 434.387 295.88 434.267C295.129 434.174 294.457 433.929 294.071 433.473C293.625 432.942 293.411 432.15 293.342 431.29C293.246 430.138 293.394 428.866 293.444 428.039C293.479 427.47 293.553 426.909 293.65 426.351C293.796 425.524 293.992 424.704 294.197 423.887C294.482 422.756 294.787 421.671 295.134 420.599C295.484 419.527 295.878 418.47 296.345 417.397C296.883 416.165 297.486 414.971 298.119 413.794C298.973 412.211 299.863 410.65 300.688 409.048C300.752 408.923 300.793 408.784 300.882 408.677C300.928 408.619 300.981 408.599 301.039 408.553C301.045 408.541 301.058 408.535 301.07 408.541C301.082 408.547 301.088 408.56 301.082 408.572" fill="#FFA700"/>
<path fill-rule="evenodd" clip-rule="evenodd" d="M309.21 417.865C309.148 418.298 309.057 418.729 308.95 419.16C308.894 419.379 308.836 419.601 308.773 419.82C308.704 420.403 308.638 420.983 308.583 421.566C308.508 422.374 308.451 423.186 308.424 424.003C308.405 424.596 308.399 425.203 308.331 425.8C308.286 426.206 308.211 426.606 308.088 426.994C308.059 427.085 307.949 427.551 307.799 427.713C307.693 427.829 307.572 427.854 307.444 427.761C307.07 427.491 306.887 427.021 306.825 426.493C306.742 425.778 306.878 424.959 306.994 424.464C307.349 422.943 307.904 421.385 308.347 419.826C308.413 419.593 308.473 419.358 308.535 419.125L308.539 419.094C308.541 419.076 308.543 419.059 308.546 419.041C308.263 419.612 307.984 420.193 307.691 420.772C307.217 421.708 306.728 422.648 306.29 423.607C305.799 424.679 305.354 425.763 305.011 426.858C304.866 427.289 304.677 427.749 304.448 428.184C304.215 428.627 303.942 429.045 303.622 429.385C303.565 429.445 303.278 429.785 303.076 429.944C302.941 430.051 302.809 430.08 302.737 430.06C302.628 430.031 302.551 429.956 302.516 429.835C302.461 429.653 302.541 429.307 302.562 429.22C302.622 428.971 302.712 428.726 302.816 428.487C302.968 428.142 303.152 427.806 303.319 427.481C303.926 426.27 304.553 425.071 305.19 423.879C305.665 422.988 306.146 422.1 306.635 421.215C306.767 420.952 306.903 420.692 307.041 420.434C307.38 419.803 307.743 419.191 308.09 418.583C308.158 418.467 308.228 418.352 308.3 418.235C308.358 418.117 308.413 417.999 308.465 417.878L308.868 416.96C308.925 416.833 309.07 416.525 309.129 416.472C309.193 416.416 309.255 416.418 309.299 416.429C309.338 416.441 309.418 416.474 309.429 416.594C309.464 416.544 309.499 416.492 309.534 416.441C309.78 416.062 309.942 415.651 310.139 415.258C310.196 415.148 310.268 415.068 310.33 414.959C310.332 414.946 310.345 414.938 310.359 414.94C310.372 414.942 310.38 414.955 310.378 414.967C310.398 415.07 310.421 415.153 310.419 415.258C310.419 415.299 310.409 415.338 310.401 415.377C310.343 415.68 310.225 415.969 310.099 416.257C309.976 416.536 309.841 416.81 309.687 417.08C309.536 417.346 309.375 417.606 309.214 417.865M304.951 425.044C304.503 425.903 304.062 426.767 303.629 427.635C303.472 427.955 303.296 428.289 303.154 428.631C303.061 428.853 302.983 429.076 302.933 429.303C302.929 429.319 302.925 429.35 302.921 429.389C303.067 429.255 303.261 429.128 303.292 429.091C303.562 428.763 303.787 428.367 303.973 427.951C304.161 427.532 304.305 427.089 304.413 426.677C304.571 426.13 304.751 425.586 304.951 425.042M308.29 421.385C307.943 422.448 307.578 423.5 307.322 424.541C307.206 425.009 307.066 425.782 307.14 426.458C307.184 426.881 307.31 427.27 307.598 427.499C307.716 427.351 307.786 426.978 307.809 426.903C307.925 426.534 307.995 426.151 308.038 425.765C308.104 425.176 308.108 424.576 308.125 423.994C308.151 423.168 308.203 422.353 308.277 421.537L308.29 421.385Z" fill="#FFA700"/>
<path fill-rule="evenodd" clip-rule="evenodd" d="M320.553 406.177L311.694 415.884L317.396 437.349L335.391 439.163L335.296 405.045L320.553 406.177Z" fill="#4D3737"/>
<path fill-rule="evenodd" clip-rule="evenodd" d="M280.807 446.045L278.352 418.849C278.352 418.849 263.737 421.993 258.681 420.673L243.484 442.472L247.702 448.774L280.807 446.047V446.045Z" fill="#4C3636"/>
<path fill-rule="evenodd" clip-rule="evenodd" d="M266.733 374.86C266.605 375.435 269.271 379.752 269.271 379.752L271.163 382.017C271.163 382.017 271.076 383.912 268.827 384.617L256.224 383.45C256.224 383.45 247.05 364.146 254.466 362.769C261.88 361.392 268.105 368.696 266.737 374.86" fill="#FFA700"/>
<path fill-rule="evenodd" clip-rule="evenodd" d="M321.368 397.273C321.368 397.273 317.753 392.088 311.115 389.965C311.115 389.965 306.523 399.813 304.873 401.388C303.224 402.963 301.115 405.824 300.76 406.904C300.405 407.982 301.035 410.397 302.836 409.539C302.836 409.539 303.121 413.34 306.043 410.794C306.043 410.794 306.466 413.623 308.676 411.959C308.676 411.959 308.997 412.788 310.846 413.213C312.695 413.639 321.396 398.029 321.396 398.029" fill="#FFA700"/>
<path fill-rule="evenodd" clip-rule="evenodd" d="M316.438 380.007C316.432 379.946 316.42 379.892 316.422 379.832C316.426 379.7 316.463 379.572 316.488 379.442C316.812 377.703 317.466 376.074 318.499 374.792C319.651 373.361 321.277 372.369 323.406 372.097C324.064 372.019 324.733 372.004 325.375 372.122C326.019 372.242 326.633 372.495 327.174 372.918C327.215 372.947 327.224 373.006 327.193 373.045C327.164 373.085 327.106 373.093 327.065 373.064C326.638 372.773 326.175 372.592 325.693 372.483C324.968 372.318 324.199 372.324 323.448 372.429C321.411 372.683 319.874 373.645 318.747 374.992C317.717 376.226 317.028 377.785 316.642 379.469C316.612 379.597 316.599 379.727 316.558 379.851C316.539 379.908 316.51 379.954 316.484 380.009C316.482 380.022 316.469 380.03 316.457 380.028C316.444 380.026 316.436 380.012 316.438 380.001" fill="#FFA700"/>
<path fill-rule="evenodd" clip-rule="evenodd" d="M317.035 379.139L317.047 379.129C317.047 379.129 317.057 379.113 317.059 379.102C317.088 378.989 317.07 378.869 317.07 378.752C317.07 378.179 317.002 377.616 316.983 377.051C316.964 376.529 316.979 376.002 317.15 375.462C317.563 374.134 318.306 372.955 319.306 372.186C319.715 371.87 320.173 371.635 320.664 371.468C321.359 371.233 322.129 371.13 322.992 371.285C323.105 371.312 323.217 371.242 323.245 371.13C323.272 371.017 323.202 370.904 323.089 370.877C322.143 370.594 321.254 370.572 320.456 370.794C319.872 370.955 319.345 371.256 318.871 371.631C317.784 372.493 317.004 373.821 316.595 375.297C316.446 375.841 316.418 376.367 316.455 376.888C316.506 377.566 316.653 378.23 316.709 378.917C316.715 378.983 316.68 379.067 316.727 379.115L316.752 379.144H316.754C316.785 379.125 316.838 379.129 316.869 379.139C316.876 379.141 316.874 379.162 316.892 379.162C316.909 379.162 316.911 379.139 316.917 379.139C316.952 379.133 316.991 379.135 317.028 379.137H317.035V379.139Z" fill="#FFA700"/>
<path fill-rule="evenodd" clip-rule="evenodd" d="M309.72 374.328C309.662 374.272 309.604 374.229 309.552 374.167C309.361 373.932 309.231 373.656 309.08 373.396C308.543 372.476 308.063 371.532 307.671 370.557C307.502 370.135 307.351 369.706 307.219 369.273C307.052 368.731 306.913 368.182 306.804 367.622C306.556 366.346 306.459 365.034 306.521 363.682C306.521 363.666 306.532 363.657 306.548 363.657C306.563 363.657 306.573 363.668 306.573 363.684C306.594 365.024 306.787 366.312 307.093 367.56C307.225 368.104 307.38 368.638 307.553 369.168C307.691 369.592 307.842 370.011 308.001 370.429C308.37 371.4 308.797 372.351 309.28 373.285C309.418 373.551 309.588 373.8 309.701 374.078C309.732 374.153 309.742 374.225 309.763 374.303C309.769 374.315 309.767 374.328 309.755 374.336C309.744 374.344 309.73 374.34 309.722 374.328" fill="#FFA700"/>
<path fill-rule="evenodd" clip-rule="evenodd" d="M307.842 348.523C307.786 348.557 307.768 348.594 307.708 348.62C307.681 348.631 307.65 348.629 307.621 348.635C307.336 348.693 307.077 348.845 306.837 349.037C306.377 349.404 305.995 349.932 305.692 350.344C305.155 351.024 304.819 351.789 304.557 352.589C304.05 354.131 303.876 355.821 303.3 357.328C303.255 357.446 303.206 357.563 303.15 357.675C303.014 357.941 302.853 358.182 302.679 358.425C302.65 358.481 302.578 358.503 302.521 358.473C302.465 358.442 302.444 358.372 302.473 358.316C302.57 358.048 302.636 357.78 302.714 357.504C302.747 357.39 302.783 357.275 302.82 357.163C303.307 355.626 303.503 353.951 304.016 352.414C304.303 351.556 304.7 350.746 305.296 350.028C305.655 349.62 306.105 349.095 306.631 348.756C306.93 348.561 307.248 348.425 307.584 348.394C307.619 348.39 307.654 348.379 307.687 348.389C307.755 348.406 307.782 348.437 307.84 348.478C307.854 348.478 307.863 348.49 307.863 348.503C307.863 348.517 307.852 348.526 307.838 348.526" fill="#FFA700"/>
<path fill-rule="evenodd" clip-rule="evenodd" d="M302.188 353.164C302.196 353.226 302.209 353.281 302.211 353.341C302.213 353.479 302.186 353.611 302.168 353.741C302.108 354.213 302.033 354.655 301.976 355.098C301.937 355.395 301.906 355.689 301.903 355.994C301.897 356.368 301.928 356.759 302.029 357.178C302.044 357.238 302.007 357.299 301.947 357.314C301.887 357.33 301.827 357.293 301.811 357.233C301.652 356.638 301.615 356.096 301.658 355.572C301.712 354.927 301.875 354.308 302.011 353.63C302.033 353.519 302.044 353.405 302.079 353.294C302.095 353.244 302.12 353.203 302.141 353.154C302.141 353.141 302.155 353.133 302.168 353.133C302.182 353.133 302.192 353.147 302.19 353.16" fill="#FFA700"/>
<path fill-rule="evenodd" clip-rule="evenodd" d="M305.013 346.146C305.143 346.295 305.11 346.122 305.159 346.313C305.166 346.342 305.149 346.369 305.139 346.396C304.994 346.885 304.786 347.342 304.574 347.802C304.099 348.833 303.542 349.816 302.921 350.744C302.287 351.696 301.571 352.579 300.789 353.391C299.997 354.211 299.151 354.978 298.191 355.597C297.477 356.058 296.699 356.38 295.905 356.735C295.156 357.071 294.397 357.409 293.58 357.668C293.569 357.671 293.557 357.668 293.551 357.656C293.545 357.644 293.551 357.633 293.563 357.629C294.388 357.254 295.175 356.86 295.876 356.351C296.31 356.034 296.667 355.656 297.065 355.306C297.653 354.789 298.224 354.271 298.775 353.725C299.892 352.614 300.899 351.401 301.839 350.105C302.238 349.554 302.644 349.004 303.03 348.435C303.278 348.07 303.515 347.697 303.763 347.33C304.016 346.959 304.281 346.606 304.532 346.231C304.571 346.173 304.584 346.087 304.646 346.056C304.834 345.965 304.673 346.058 304.883 346.078C304.9 346.043 304.945 346.029 304.98 346.046C305.015 346.064 305.029 346.109 305.011 346.144" fill="#FFA700"/>
<path fill-rule="evenodd" clip-rule="evenodd" d="M290.538 359.289C290.621 359.511 290.637 359.246 290.604 359.479C290.6 359.503 290.579 359.514 290.565 359.532C290.286 359.829 289.925 359.986 289.57 360.093C289.036 360.252 288.466 360.248 287.895 360.227C287.542 360.214 287.197 360.165 286.836 360.173C286.752 360.186 286.676 360.13 286.663 360.047C286.649 359.965 286.706 359.887 286.789 359.874C286.997 359.804 287.197 359.74 287.41 359.697C287.885 359.602 288.359 359.559 288.823 359.487C289.23 359.425 289.62 359.338 290.014 359.161C290.097 359.122 290.175 359.05 290.272 359.056C290.474 359.068 290.278 359.068 290.451 359.175C290.482 359.151 290.528 359.157 290.551 359.188C290.577 359.219 290.571 359.264 290.538 359.289Z" fill="#FFA700"/>
<path fill-rule="evenodd" clip-rule="evenodd" d="M296.225 360.482C296.147 360.662 296.097 360.819 295.994 360.979C295.897 361.13 295.767 361.251 295.647 361.377C294.611 362.46 293.384 363.169 292.074 363.655C291.741 363.779 291.401 363.894 291.05 363.973C290.536 364.092 290.004 364.152 289.467 364.181C289.117 364.201 288.766 364.21 288.409 364.185C287.885 364.15 287.377 364.059 286.849 363.96C286.725 363.954 286.63 363.849 286.636 363.727C286.641 363.602 286.746 363.507 286.87 363.513C287.387 363.464 287.877 363.375 288.38 363.307C288.879 363.239 289.37 363.179 289.853 363.092C290.144 363.039 290.431 362.977 290.718 362.921C291.393 362.785 292.057 362.635 292.697 362.392C293.654 362.031 294.539 361.495 295.408 360.812C295.491 360.746 295.573 360.676 295.664 360.617C295.816 360.522 295.961 360.474 296.122 360.386C296.149 360.357 296.194 360.355 296.223 360.381C296.252 360.408 296.254 360.452 296.229 360.482" fill="#FFA700"/>
<path fill-rule="evenodd" clip-rule="evenodd" d="M295.001 366.325C295.02 366.43 295.059 366.317 295.016 366.416C295.003 366.449 294.956 366.457 294.927 366.479C294.57 366.719 294.236 366.947 293.889 367.143C293.472 367.376 293.051 367.564 292.62 367.71C291.77 367.999 290.873 368.114 289.83 368.044C289.657 368.034 289.523 367.886 289.531 367.714C289.538 367.541 289.688 367.407 289.861 367.417C290.613 367.438 291.269 367.329 291.898 367.17C292.501 367.016 293.072 366.793 293.677 366.56C294.03 366.424 294.391 366.3 294.774 366.166C294.807 366.154 294.838 366.125 294.873 366.133C294.975 366.158 294.861 366.121 294.935 366.199C294.97 366.181 295.014 366.195 295.032 366.23C295.049 366.265 295.036 366.31 295.001 366.327" fill="#FFA700"/>
<path fill-rule="evenodd" clip-rule="evenodd" d="M320.233 365.022C319.432 364.75 318.638 364.331 318.194 364.129C316.403 363.294 314.54 362.635 312.827 361.713C311.61 361.058 310.471 360.274 309.458 359.25C308.802 358.586 308.092 357.619 307.865 356.662C307.662 355.797 307.79 354.931 308.475 354.172C309.029 353.554 309.753 353.298 310.551 353.304C311.82 353.314 313.333 354.11 314.21 354.661C314.853 355.065 315.472 355.535 316.075 356.032C316.923 356.733 317.742 357.489 318.561 358.174C319.409 358.885 320.394 359.408 321.262 360.083C321.685 360.414 322.078 360.777 322.436 361.188L323.287 362.295C323.831 363.113 324.168 364.346 323.813 364.997C323.547 365.486 322.975 365.966 321.753 365.671C321.364 365.566 320.98 365.445 320.627 365.255C320.493 365.183 320.363 365.106 320.235 365.024M321.056 363.379L321.033 363.4L321.095 363.422L321.056 363.379ZM319.504 362.109C319.476 362.138 319.449 362.165 319.42 362.191C319.409 362.225 319.414 362.247 319.451 362.233C319.515 362.21 319.525 362.165 319.502 362.109M310.161 355.432C310.106 355.463 310.056 355.504 310.009 355.555C309.885 355.692 309.843 355.846 309.846 356.001L309.875 355.964C309.893 355.943 309.91 355.924 309.928 355.902L309.955 355.875L309.967 355.846L309.976 355.826C310.009 355.675 310.075 355.543 310.163 355.43" fill="#FFDD71"/>
<path fill-rule="evenodd" clip-rule="evenodd" d="M327.32 365.83C327.459 365.81 327.403 365.797 327.531 365.832C327.861 365.923 327.865 366.255 327.944 366.574C327.989 366.754 327.937 366.925 327.898 367.123C327.76 367.828 327.106 368.444 326.701 368.768C326.359 368.993 326.002 369.186 325.614 369.304C325.063 369.473 324.471 369.535 323.883 369.489C322.507 369.38 321.217 368.819 320.064 368.277C319.952 368.248 319.886 368.133 319.915 368.022C319.944 367.91 320.059 367.844 320.169 367.873C320.959 367.927 321.788 367.951 322.649 367.861C322.95 367.83 323.225 367.751 323.522 367.702C323.8 367.657 324.067 367.607 324.337 367.552C324.593 367.5 324.842 367.424 325.092 367.354C325.335 367.286 325.583 367.246 325.816 367.145C326.021 367.069 326.32 366.908 326.551 366.688C326.65 366.593 326.776 366.564 326.85 366.465C326.947 366.333 327.073 366.29 327.106 366.129C327.129 366.009 327.174 366.047 327.205 365.919C327.18 365.888 327.186 365.843 327.217 365.818C327.248 365.793 327.294 365.799 327.318 365.83" fill="#FFDD71"/>
<path fill-rule="evenodd" clip-rule="evenodd" d="M315.153 367.183C315.054 367.211 315.045 367.238 314.942 367.24C314.856 367.24 314.783 367.216 314.703 367.182C314.428 367.059 314.204 366.846 313.95 366.686C313.836 366.624 313.791 366.48 313.853 366.366C313.915 366.251 314.059 366.209 314.173 366.271C314.451 366.399 314.752 366.492 314.998 366.677C315.066 366.727 315.122 366.78 315.165 366.851C315.215 366.939 315.196 366.962 315.223 367.061C315.258 367.081 315.27 367.123 315.25 367.158C315.231 367.193 315.186 367.205 315.153 367.185" fill="#FFDD71"/>
<path fill-rule="evenodd" clip-rule="evenodd" d="M331.32 378.319C331.353 378.55 331.398 378.624 331.342 378.845C331.332 378.882 331.305 378.907 331.284 378.94C330.896 379.568 330.323 380.02 329.642 380.381C328.961 380.741 328.162 380.943 327.362 381.133C326.264 381.391 325.146 381.553 324.3 381.937C323.984 382.079 323.737 382.265 323.526 382.469C323.241 382.741 323.049 383.073 322.824 383.397C322.76 383.491 322.694 383.58 322.616 383.664C322.408 383.889 322.214 384.075 321.954 384.256C321.813 384.353 321.721 384.386 321.566 384.464C321.421 384.704 321.106 384.78 320.866 384.635C320.625 384.489 320.548 384.174 320.693 383.933C320.689 383.755 320.658 383.66 320.674 383.485C320.705 383.143 320.767 382.854 320.889 382.547C321.009 382.24 321.219 381.982 321.411 381.725C321.929 381.034 322.585 380.463 323.551 380.098C324.535 379.741 325.794 379.595 327.056 379.436C327.768 379.346 328.468 379.24 329.118 379.061C329.689 378.906 330.214 378.748 330.655 378.389C330.676 378.371 330.696 378.35 330.723 378.337C330.911 378.247 330.991 378.304 331.196 378.241C331.218 378.208 331.262 378.197 331.295 378.22C331.328 378.241 331.338 378.286 331.317 378.319" fill="#FFDD71"/>
<path fill-rule="evenodd" clip-rule="evenodd" d="M322.121 388.814C322.013 389.016 322.007 389.159 321.848 389.291C321.714 389.406 321.522 389.414 321.328 389.439C321.161 389.476 320.996 389.371 320.959 389.206C320.922 389.039 321.027 388.874 321.192 388.837C321.322 388.794 321.409 388.697 321.529 388.666C321.72 388.618 321.832 388.686 322.051 388.688C322.086 388.668 322.129 388.68 322.15 388.713C322.17 388.748 322.158 388.79 322.125 388.812" fill="#FFDD71"/>
<path fill-rule="evenodd" clip-rule="evenodd" d="M287.392 436.238C287.509 437.271 287.647 438.3 287.724 439.338C287.755 439.759 287.779 440.18 287.784 440.602C287.88 440.848 287.94 441.114 287.957 441.373C287.992 441.953 287.788 442.427 287.449 442.701C287.41 442.785 287.365 442.864 287.315 442.934C287.008 443.377 286.576 443.626 285.978 443.519C285.303 443.418 284.783 442.952 284.408 442.274C283.838 441.241 283.644 439.631 283.487 438.918C283.048 436.943 282.97 434.836 283.11 432.707C283.31 429.653 283.946 426.555 284.331 423.731C284.439 422.955 284.503 422.077 284.653 421.236C284.765 420.595 284.926 419.976 285.169 419.422C285.314 419.09 285.605 418.591 285.976 418.323C286.275 418.105 286.62 417.997 286.995 418.03C287.342 418.061 287.633 418.226 287.85 418.523C288.056 418.806 288.149 419.401 288.18 419.587C288.252 420.043 288.297 420.512 288.32 420.983C288.353 421.661 288.345 422.347 288.326 423.009C288.256 425.233 288.171 427.452 288.023 429.668C287.878 431.861 287.67 434.049 287.394 436.236M285.613 434.916L285.609 435.046L285.617 434.96V434.949L285.613 434.916Z" fill="#FFDD71"/>
<path fill-rule="evenodd" clip-rule="evenodd" d="M303.218 439.118C302.296 439.654 301.611 439.101 301.326 438.487C300.956 437.693 301.367 436.226 303.02 435.739C304.567 435.3 305.331 436.184 305.508 436.935C305.696 437.739 305.205 438.852 303.725 439.163C303.548 439.192 303.375 439.174 303.218 439.118Z" fill="#FFDD71"/>
<path fill-rule="evenodd" clip-rule="evenodd" d="M261.141 390.711C261.126 391.83 260.932 392.989 260.947 393.616C260.953 394.096 260.97 394.566 260.963 395.036C260.955 395.525 260.924 396.013 260.871 396.512C260.866 396.559 260.771 397.036 260.707 397.215C260.466 397.902 259.806 397.879 259.682 397.848C259.265 397.741 258.89 397.477 258.617 397.062C258.258 396.52 258.044 395.71 257.907 395.263C257.542 394.16 257.146 392.403 257.028 390.748C256.94 389.536 257.004 388.377 257.34 387.522C257.509 387.093 257.771 386.979 258.025 386.988C258.227 386.78 258.498 386.648 258.819 386.59C259.226 386.53 259.639 386.656 260.024 386.94C260.468 387.266 260.875 387.872 261.112 388.54C261.31 389.099 261.38 389.699 261.296 390.189C261.265 390.377 261.213 390.552 261.141 390.711ZM258.423 390.744C258.45 391.039 258.491 391.338 258.539 391.634C258.508 391.348 258.475 391.067 258.438 390.789L258.434 390.766L258.429 390.756L258.421 390.744H258.423Z" fill="#FFC614"/>
<path fill-rule="evenodd" clip-rule="evenodd" d="M277.337 364.515C277.564 364.735 277.551 364.57 277.702 364.836C277.77 364.956 277.788 365.069 277.801 365.201C277.852 365.7 277.877 366.176 277.838 366.661C277.809 367.026 277.694 367.354 277.584 367.727C277.568 367.986 277.349 368.182 277.093 368.166C276.837 368.151 276.639 367.931 276.654 367.675C276.59 367.319 276.46 367.022 276.422 366.684C276.361 366.146 276.354 365.595 276.524 365.063C276.573 364.913 276.604 364.77 276.73 364.665C276.971 364.461 276.887 364.587 277.196 364.482C277.204 364.443 277.242 364.42 277.281 364.428C277.32 364.437 277.345 364.474 277.335 364.513" fill="#FFC614"/>
<path fill-rule="evenodd" clip-rule="evenodd" d="M262.426 369.349C262.517 369.615 262.546 369.318 262.528 369.597C262.527 369.638 262.503 369.667 262.484 369.704C262.406 369.854 262.389 370.007 262.333 370.168C262.193 370.559 262.098 370.976 262.026 371.365C261.983 371.578 261.981 371.802 261.937 372.023C261.917 372.118 261.877 372.206 261.849 372.301C261.83 372.369 261.814 372.435 261.789 372.499C261.665 372.804 261.477 373 261.374 373.32C261.325 373.474 261.3 373.625 261.283 373.786C261.246 374.136 261.248 374.485 261.287 374.831C261.345 375.367 261.502 375.876 261.669 376.35C261.677 376.371 261.665 376.395 261.644 376.4C261.622 376.408 261.599 376.396 261.591 376.375C261.436 375.915 261.341 375.412 261.234 374.901C261.166 374.571 261.098 374.239 261.031 373.903C260.996 373.73 260.968 373.563 260.916 373.394C260.802 373.025 260.641 372.767 260.565 372.396C260.547 372.31 260.549 372.227 260.545 372.14C260.54 372.023 260.534 371.908 260.547 371.794C260.58 371.522 260.679 371.268 260.769 371.017C260.963 370.51 261.133 369.912 261.525 369.5C261.681 369.335 261.834 369.193 262.045 369.11C262.069 369.1 262.084 369.083 262.109 369.087C262.41 369.131 262.088 369.054 262.336 369.228C262.367 369.203 262.414 369.211 262.437 369.242C262.461 369.273 262.457 369.318 262.424 369.343" fill="#FFC614"/>
<path fill-rule="evenodd" clip-rule="evenodd" d="M259.665 367.679L259.61 367.685C259.577 367.686 259.564 367.723 259.54 367.745C259.23 368.028 258.964 368.32 258.756 368.656C258.613 368.889 258.508 369.139 258.434 369.393C258.32 369.792 258.267 370.186 258.267 370.59C258.267 371.097 258.407 371.543 258.465 372.052C258.539 372.687 258.512 373.346 258.683 373.994C258.789 374.406 258.954 374.806 259.131 375.214C259.143 375.249 259.183 375.266 259.218 375.255C259.253 375.243 259.271 375.204 259.259 375.169C259.143 374.771 259.065 374.377 258.982 373.988C258.853 373.382 258.7 372.792 258.723 372.204C258.731 372.033 258.753 371.866 258.797 371.703C258.869 371.442 259.009 371.246 259.112 370.998C259.273 370.609 259.453 370.248 259.649 369.863C259.727 369.71 259.81 369.559 259.88 369.395C260.025 369.048 260.134 368.689 260.303 368.321C260.316 368.292 260.344 368.267 260.338 368.236L260.328 368.18C260.278 368.16 260.202 368.108 260.091 368.003C260.132 367.951 260.121 367.875 260.068 367.836C260.016 367.797 259.94 367.807 259.901 367.859C259.022 367.339 260.584 367.595 259.663 367.685" fill="#FFC614"/>
<path fill-rule="evenodd" clip-rule="evenodd" d="M257.299 367.125C257.445 367.182 257.361 367.082 257.464 367.197C257.641 367.393 257.575 367.675 257.544 367.933C257.48 368.463 257.13 368.941 256.985 369.446C256.797 369.97 256.692 370.576 256.618 371.18C256.589 371.421 256.558 371.656 256.533 371.895C256.492 372.293 256.438 372.646 256.471 373.019C256.484 373.056 256.465 373.097 256.426 373.111C256.389 373.124 256.348 373.103 256.337 373.066C256.057 372.611 255.842 372.118 255.749 371.549C255.683 371.147 255.706 370.73 255.753 370.328C255.801 369.908 255.912 369.504 256.034 369.133C256.22 368.644 256.473 368.154 256.715 367.681C256.804 367.506 256.857 367.343 256.993 367.197C257.094 367.086 257.018 367.197 257.156 367.131C257.156 367.092 257.185 367.059 257.224 367.057C257.264 367.057 257.297 367.086 257.297 367.127" fill="#FFC614"/>
<path fill-rule="evenodd" clip-rule="evenodd" d="M256.558 374.507C256.771 374.548 256.736 374.474 256.917 374.604C257.012 374.672 257.035 374.798 257.086 374.909C257.256 375.286 257.346 375.717 257.433 376.14C257.485 376.395 257.517 376.647 257.577 376.876C257.78 377.872 258.165 378.896 258.601 379.89C259.053 380.919 259.538 381.908 260.204 382.72C260.241 382.755 260.243 382.815 260.206 382.852C260.171 382.889 260.111 382.891 260.074 382.854C259.447 382.39 258.861 381.842 258.343 381.193C258.128 380.925 257.934 380.64 257.753 380.343C257.138 379.339 256.702 378.226 256.399 377.164C256.333 376.863 256.275 376.534 256.257 376.196C256.234 375.752 256.116 375.301 256.201 374.897C256.248 374.68 256.323 374.753 256.428 374.565C256.412 374.528 256.428 374.485 256.465 374.47C256.502 374.454 256.544 374.47 256.56 374.507" fill="#FFC614"/>
<path fill-rule="evenodd" clip-rule="evenodd" d="M260.571 380.436C260.73 380.414 260.573 380.381 260.73 380.411C260.782 380.42 260.813 380.436 260.854 380.473C261.118 380.704 261.337 380.972 261.584 381.222C261.694 381.337 261.782 381.469 261.886 381.589C262.018 381.708 262.032 381.91 261.913 382.044C261.797 382.176 261.591 382.19 261.459 382.071C261.314 381.972 261.163 381.885 261.031 381.766C260.829 381.582 260.672 381.358 260.526 381.129C260.452 381.011 260.351 380.902 260.326 380.764C260.317 380.706 260.309 380.671 260.336 380.616C260.408 380.465 260.324 380.622 260.443 380.502C260.425 380.467 260.439 380.424 260.474 380.405C260.509 380.387 260.551 380.401 260.571 380.436Z" fill="#FFC614"/>
<path fill-rule="evenodd" clip-rule="evenodd" d="M282.188 384.829L282.126 384.751C282.085 384.697 281.998 384.706 281.93 384.691C281.197 384.493 280.446 384.363 279.695 384.233C277.764 383.897 275.805 383.685 273.874 383.438C271.078 383.106 268.293 382.739 265.497 382.491C264.184 382.374 262.87 382.263 261.549 382.232C260.982 382.219 260.415 382.232 259.847 382.246C259.154 382.267 258.458 382.158 257.755 382.09C257.249 382.042 256.748 382.009 256.246 382.03C255.951 382.044 255.667 382.071 255.38 382.131C255.361 382.135 255.337 382.129 255.324 382.143C255.306 382.162 255.291 382.178 255.277 382.191C255.124 382.345 255.339 382.017 255.297 382.337C255.256 382.339 255.227 382.372 255.229 382.413C255.231 382.452 255.264 382.483 255.304 382.481C255.345 382.617 255.304 382.621 255.281 382.611C255.256 382.601 255.246 382.576 255.359 382.673C255.462 382.762 255.617 382.724 255.751 382.747C256.275 382.838 256.781 382.978 257.305 383.112C258.139 383.324 258.983 383.502 259.827 383.559C260.382 383.59 260.935 383.636 261.49 383.669C262.788 383.747 264.083 383.815 265.375 383.924C268.159 384.155 270.938 384.473 273.724 384.772C275.209 384.928 276.707 385.093 278.203 385.256C279.194 385.365 280.186 385.472 281.17 385.604C281.416 385.637 281.684 385.809 281.909 385.701C282.13 385.596 281.909 385.699 282.035 385.487C282.175 385.514 282.309 385.425 282.336 385.285C282.363 385.145 282.272 385.011 282.134 384.984C282.126 384.664 282.297 384.949 282.19 384.829" fill="#FA7E00"/>
<path fill-rule="evenodd" clip-rule="evenodd" d="M279.084 410.114C279.041 410.108 279 410.133 278.989 410.176C278.975 410.223 279.002 410.271 279.049 410.283C279.068 410.485 279.08 410.258 279.212 410.357C279.282 410.409 279.212 410.302 279.307 410.331C279.536 410.405 279.301 410.444 279.606 410.168C279.879 409.922 279.633 408.723 279.629 408.669C279.524 407.873 279.336 407.057 279.074 406.245C278.82 405.463 278.482 404.715 278.183 404.004C277.803 403.212 277.378 402.437 276.866 401.722C276.103 400.658 275.213 399.676 274.194 398.848C272.51 397.479 270.556 396.51 268.52 395.856C268.305 395.76 268.053 395.859 267.958 396.073C267.863 396.289 267.962 396.539 268.177 396.634C269.553 397.425 270.781 398.433 271.935 399.555C272.605 400.206 273.22 400.903 273.808 401.625C274.244 402.161 274.664 402.709 275.054 403.278C275.444 403.845 275.82 404.422 276.14 405.03C276.346 405.393 276.55 405.775 276.767 406.158C277.081 406.708 277.411 407.253 277.7 407.816C277.912 408.224 278.116 408.615 278.279 409.021C278.292 409.054 278.44 409.692 278.626 409.984C278.707 410.112 278.845 410.087 278.915 410.058C278.915 410.087 279.035 410.104 279.031 410.038C279.028 409.98 279.064 410.129 279.086 410.071C279.095 410.046 279.084 410.093 279.086 410.116" fill="#FA7E00"/>
<path fill-rule="evenodd" clip-rule="evenodd" d="M306.053 372.565C306.084 372.641 306.113 372.714 306.144 372.79L306.177 372.877C306.391 372.78 306.835 372.679 307.359 372.969C307.842 373.235 308.96 374.07 309.066 374.146C309.305 374.311 309.557 374.462 309.804 374.625C310.392 375.016 310.997 375.408 311.593 375.82C312.188 376.233 312.753 376.67 313.3 377.132C313.494 377.298 313.688 377.451 313.867 377.632C314.144 377.913 314.389 378.191 314.608 378.509C314.647 378.566 314.695 378.61 314.711 378.674C314.765 378.898 314.703 378.878 314.68 379.106C314.709 379.133 314.709 379.179 314.68 379.207C314.651 379.234 314.606 379.236 314.579 379.207C314.356 379.232 314.381 379.309 314.16 379.265C313.811 379.197 313.541 378.964 313.219 378.795C312.848 378.601 312.472 378.414 312.089 378.23C312.171 378.412 312.229 378.554 312.243 378.601C312.357 379.03 312.472 379.459 312.569 379.892C312.637 380.193 312.699 380.494 312.757 380.797C312.8 380.875 312.84 380.95 312.879 381.02C313.011 381.257 313.31 381.661 313.494 382.022C313.624 382.279 313.706 382.527 313.706 382.729C313.77 383.159 313.593 383.669 313.327 384.229C313.242 384.411 313.147 384.594 313.032 384.772C312.629 385.415 312.066 386.017 311.888 386.497C311.82 386.678 311.795 386.866 311.762 387.056C311.663 387.643 311.62 388.253 311.498 388.825C311.447 389.06 311.389 389.292 311.3 389.513C311.366 389.769 311.441 390.047 311.437 390.218C311.432 390.412 311.352 390.55 311.259 390.651C311.146 390.773 310.978 390.843 310.72 390.814L310.694 390.81L310.403 391.603C310.062 392.44 309.718 393.306 309.344 394.158C308.967 395.017 308.564 395.863 308.135 396.667L307.221 398.38C307.105 398.549 306.874 399 306.798 399.118C306.757 399.184 306.717 399.219 306.699 399.233C306.46 399.419 306.29 399.293 306.198 399.163C306.185 399.141 306.088 399.019 306.169 398.794C306.501 397.858 306.833 396.902 307.097 395.924C307.357 394.958 307.547 393.97 307.71 392.979C307.873 391.995 307.962 391.002 308.042 390.014C308.121 389.024 308.193 388.035 308.158 387.048C308.137 386.518 308.096 385.99 308.036 385.464C307.838 384.031 307.564 382.605 307.235 381.201L307.227 381.172C306.883 379.779 306.49 378.397 306.15 377.006C306.063 376.664 305.977 376.325 305.898 375.981C305.814 375.629 305.744 375.276 305.671 374.922L305.358 373.163C305.333 372.975 305.222 372.526 305.213 372.404C305.199 372.188 305.292 372.075 305.337 372.042C305.434 371.973 305.543 371.914 305.68 371.971C305.713 371.984 305.832 372.006 305.911 372.169C305.927 372.202 305.968 372.233 305.96 372.27C305.956 372.293 305.952 372.31 305.948 372.326L306.047 372.565H306.053ZM309.714 389.004C309.709 389.21 309.699 389.416 309.685 389.622C309.676 389.783 309.662 389.942 309.647 390.103L309.81 389.705L309.864 389.577V389.571L309.87 389.556C309.844 389.466 309.825 389.392 309.813 389.352C309.778 389.235 309.745 389.121 309.712 389.004M311.892 383.553L311.903 383.731V383.774L311.913 383.764L311.963 383.708L311.893 383.559V383.553H311.892ZM309.724 377.082C309.778 377.233 309.821 377.369 309.85 377.451L309.875 377.534C309.887 377.445 309.905 377.36 309.93 377.288L309.961 377.204L309.844 377.144L309.724 377.082ZM305.432 372.648C305.432 372.648 305.448 372.654 305.453 372.656V372.652L305.432 372.648ZM305.814 372.425C305.843 372.396 305.871 372.367 305.89 372.343C305.867 372.297 305.843 372.248 305.814 372.413C305.814 372.417 305.814 372.421 305.814 372.425Z" fill="#FA7E00"/>
<path fill-rule="evenodd" clip-rule="evenodd" d="M307.72 373.596V373.582C307.728 373.549 307.693 373.522 307.673 373.493C307.499 373.215 307.275 372.973 307.05 372.732C306.953 372.627 306.87 372.497 306.744 372.429C306.623 372.363 306.521 372.392 306.393 372.343C306.288 372.305 306.204 372.242 306.105 372.19C306.049 372.14 305.962 372.145 305.911 372.204C305.861 372.26 305.867 372.347 305.925 372.398C305.989 372.487 306.063 372.563 306.113 372.66C306.175 372.778 306.154 372.885 306.233 372.994C306.484 373.346 306.887 373.551 307.204 373.841C307.237 373.872 307.26 373.922 307.305 373.924H307.322L307.353 373.895C307.372 373.88 307.446 373.817 307.466 373.808C307.481 373.8 307.526 373.85 307.566 373.817C307.603 373.786 307.566 373.726 307.576 373.716C307.599 373.689 307.631 373.67 307.656 373.647L307.72 373.596Z" fill="#FA7E00"/>
<path fill-rule="evenodd" clip-rule="evenodd" d="M306.525 373.212C306.309 373.279 306.532 373.328 306.313 373.278C306.255 373.264 306.228 373.198 306.189 373.153C305.69 372.584 305.314 371.928 305.036 371.24C304.606 370.178 304.474 369.03 304.346 367.885C304.262 367.139 304.194 366.389 304.167 365.642C304.167 365.63 304.175 365.622 304.184 365.62C304.194 365.62 304.204 365.626 304.206 365.638C304.351 366.688 304.536 367.743 304.85 368.758C305.079 369.498 305.413 370.19 305.746 370.885C305.886 371.176 306.026 371.47 306.171 371.759C306.358 372.13 306.575 372.485 306.763 372.864C306.775 372.885 306.792 372.907 306.788 372.932C306.761 373.153 306.788 372.926 306.662 373.112C306.689 373.149 306.682 373.204 306.645 373.231C306.606 373.258 306.554 373.252 306.526 373.213" fill="#FA7E00"/>
<path fill-rule="evenodd" clip-rule="evenodd" d="M310.037 387.672C309.936 387.654 310.128 387.629 309.978 387.734C309.949 387.707 309.905 387.707 309.877 387.736C309.85 387.765 309.852 387.81 309.879 387.837C309.874 387.917 309.806 387.887 309.8 387.973C309.782 388.245 309.662 388.689 309.598 388.882C309.493 389.237 309.392 389.598 309.322 389.971C309.214 390.548 309.111 391.127 309.002 391.696C308.954 391.948 308.944 392.189 308.88 392.436C308.837 392.525 308.874 392.632 308.962 392.675C309.051 392.717 309.16 392.68 309.202 392.593C309.365 392.381 309.513 392.175 309.627 391.933C309.736 391.702 309.802 391.453 309.866 391.202C309.976 390.771 310.058 390.327 310.118 389.886C310.159 389.596 310.178 389.309 310.221 389.025C310.25 388.8 310.359 388.284 310.254 387.959C310.215 387.843 310.19 387.687 310.087 387.678L310.037 387.672Z" fill="#FA7E00"/>
<path fill-rule="evenodd" clip-rule="evenodd" d="M310.576 389.598C310.59 389.655 310.611 389.668 310.611 389.727C310.609 390.031 310.483 390.317 310.417 390.62C310.306 391.136 310.172 391.649 310.007 392.142C309.703 393.003 309.414 393.896 309.055 394.78C308.527 396.075 307.894 397.353 307.207 398.582C306.742 399.413 306.263 400.235 305.688 400.971C305.294 401.478 304.854 401.922 304.404 402.361C304.375 402.396 304.322 402.402 304.287 402.373C304.252 402.344 304.246 402.291 304.276 402.256C304.609 401.736 304.887 401.192 305.195 400.643C305.64 399.848 306.094 399.048 306.499 398.213C307.105 396.968 307.617 395.667 308.154 394.405C308.525 393.533 308.927 392.69 309.293 391.859C309.505 391.404 309.648 390.907 309.856 390.439C309.988 390.138 310.079 389.806 310.322 389.594C310.366 389.556 310.392 389.559 310.446 389.536C310.463 389.501 310.506 389.486 310.543 389.503C310.578 389.521 310.593 389.563 310.576 389.598Z" fill="#FA7E00"/>
<path fill-rule="evenodd" clip-rule="evenodd" d="M309.711 390.191V390.22C309.707 390.261 309.736 390.28 309.759 390.313C309.974 390.62 310.279 390.806 310.593 390.981C311.032 391.224 311.529 391.342 312.012 391.492C312.295 391.579 312.584 391.649 312.866 391.764C314.005 392.172 315.082 392.568 316.118 393.11C316.806 393.469 317.46 393.884 318.103 394.376C318.108 394.382 318.118 394.382 318.122 394.376C318.128 394.37 318.128 394.36 318.122 394.356C317.777 393.985 317.412 393.653 317.049 393.323C316.673 392.979 316.31 392.643 315.912 392.329C315.128 391.711 314.296 391.181 313.419 390.631C312.827 390.319 312.208 390.113 311.597 389.899C311.449 389.849 311.304 389.793 311.154 389.748C310.935 389.684 310.721 389.639 310.494 389.581C310.39 389.554 310.298 389.501 310.196 389.536L310.155 389.548C310.104 389.637 310.044 389.736 309.971 389.804C309.959 389.816 309.901 389.779 309.87 389.822C309.843 389.861 309.893 389.911 309.887 389.923C309.858 389.977 309.765 390.113 309.726 390.167L309.712 390.185L309.711 390.191Z" fill="#FA7E00"/>
<path fill-rule="evenodd" clip-rule="evenodd" d="M311.426 393.228C311.48 393.31 311.505 393.292 311.531 393.389C311.575 393.56 311.513 393.729 311.486 393.904C311.348 394.762 311.082 395.564 310.729 396.333C310.545 396.733 310.31 397.108 310.077 397.481C309.544 398.336 308.96 399.155 308.383 399.988C308.168 400.301 307.955 400.614 307.73 400.924C307.39 401.394 307.039 401.831 306.715 402.324C306.701 402.356 306.662 402.369 306.631 402.356C306.6 402.342 306.585 402.303 306.6 402.272C306.767 401.651 306.936 401.06 307.176 400.476C307.336 400.089 307.528 399.722 307.72 399.351C308.116 398.582 308.529 397.831 308.942 397.075C309.212 396.582 309.462 396.079 309.746 395.591C310.12 394.945 310.504 394.321 310.875 393.649C310.952 393.512 310.997 393.36 311.117 393.255C311.191 393.191 311.197 393.224 311.288 393.187C311.3 393.148 311.339 393.127 311.377 393.139C311.416 393.15 311.438 393.189 311.428 393.228" fill="#FA7E00"/>
<path fill-rule="evenodd" clip-rule="evenodd" d="M305.515 403.983C305.523 404.061 305.55 404.099 305.533 404.175C305.486 404.387 305.31 404.544 305.191 404.727C305.147 404.799 305.052 404.822 304.98 404.779C304.906 404.734 304.883 404.641 304.928 404.567C305.03 404.383 305.073 404.16 305.221 404.008C305.273 403.954 305.321 403.954 305.387 403.917C305.405 403.882 305.45 403.868 305.484 403.886C305.519 403.903 305.533 403.948 305.515 403.983Z" fill="#FA7E00"/>
<path fill-rule="evenodd" clip-rule="evenodd" d="M267.275 381.566C266.859 381.749 267.28 381.822 266.834 381.758C266.306 381.681 266.021 381.104 265.658 380.745C265.08 380.17 264.546 379.562 264.098 378.874C263.803 378.422 263.59 377.933 263.349 377.412C263.237 377.245 263.281 377.018 263.448 376.905C263.615 376.793 263.844 376.837 263.957 377.004C264.248 377.309 264.543 377.569 264.824 377.857C265.014 378.049 265.195 378.239 265.371 378.438C265.841 378.958 266.312 379.463 266.776 379.995C266.974 380.222 267.164 380.457 267.348 380.704C267.43 380.811 267.566 380.898 267.575 381.032C267.616 381.481 267.564 381.057 267.374 381.467C267.401 381.494 267.401 381.541 267.374 381.568C267.346 381.595 267.3 381.595 267.273 381.568" fill="#FA7E00"/>
<path fill-rule="evenodd" clip-rule="evenodd" d="M316.135 399C316.153 399.178 316.215 399.188 316.178 399.363C316.137 399.553 315.997 399.695 315.904 399.866C315.671 400.291 315.479 400.726 315.27 401.171C314.965 401.82 314.686 402.482 314.428 403.158C314.298 403.495 314.166 403.833 314.038 404.169C313.727 404.979 313.424 405.783 313.188 406.585C312.895 407.436 312.708 408.354 312.394 409.226C312.173 409.838 311.899 410.399 311.533 410.922C311.511 410.963 311.463 410.98 311.422 410.959C311.381 410.939 311.366 410.889 311.385 410.848C311.531 410.417 311.616 409.98 311.67 409.522C311.721 409.098 311.719 408.681 311.748 408.252C311.793 407.587 311.868 406.931 311.967 406.296C312.152 405.305 312.353 404.28 312.71 403.294C312.947 402.639 313.26 402.012 313.601 401.408C313.809 401.039 314.022 400.678 314.276 400.346C314.668 399.833 315.056 399.328 315.58 398.971C315.625 398.939 315.66 398.914 315.714 398.903C315.873 398.868 315.865 398.903 316.027 398.905C316.054 398.875 316.098 398.873 316.129 398.899C316.158 398.924 316.16 398.971 316.135 399Z" fill="#FFC614"/>
<path fill-rule="evenodd" clip-rule="evenodd" d="M309.6 411.093L309.672 411.052C309.707 411.032 309.716 410.988 309.732 410.951C309.856 410.656 309.992 410.364 310.062 410.052C310.118 409.805 310.108 409.574 310.093 409.318C310.126 409.156 310.023 408.999 309.862 408.966C309.701 408.933 309.544 409.036 309.511 409.195C309.41 409.393 309.264 409.533 309.165 409.726C309.008 410.03 308.884 410.357 308.832 410.695C308.824 410.745 308.797 410.799 308.826 410.842L308.876 410.92C308.921 410.908 309.008 410.92 309.165 410.982C309.158 411.021 309.181 411.06 309.22 411.067C309.258 411.077 309.297 411.052 309.305 411.013C309.489 411.027 309.573 411.056 309.598 411.089" fill="#FFC614"/>
<path fill-rule="evenodd" clip-rule="evenodd" d="M306.393 409.99C306.047 409.691 306.239 410.128 306.086 409.698C306.069 409.65 306.09 409.599 306.111 409.551C306.249 409.232 306.559 409.048 306.744 408.751C306.804 408.589 306.984 408.508 307.144 408.568C307.305 408.628 307.384 408.807 307.324 408.968C307.262 409.335 307.211 409.696 307.025 410.015C307.004 410.052 306.977 410.085 306.938 410.098C306.517 410.25 306.973 410.083 306.525 410.044C306.509 410.081 306.466 410.098 306.431 410.083C306.395 410.067 306.377 410.025 306.393 409.988" fill="#FFC614"/>
<path fill-rule="evenodd" clip-rule="evenodd" d="M304.669 408.828C304.569 408.564 304.518 408.661 304.532 408.543C304.536 408.5 304.582 408.477 304.638 408.395C304.722 408.215 304.935 408.137 305.116 408.218C305.296 408.3 305.374 408.514 305.292 408.694C305.261 408.813 305.271 408.873 305.232 408.908C305.131 408.995 305.197 408.939 304.887 408.966C304.85 409.024 304.77 409.044 304.71 409.005C304.65 408.966 304.633 408.888 304.669 408.828Z" fill="#FFC614"/>
<path fill-rule="evenodd" clip-rule="evenodd" d="M319.533 396.3C319.575 396.438 319.62 396.397 319.608 396.541C319.605 396.574 319.579 396.599 319.564 396.628C319.195 397.279 318.873 397.918 318.524 398.551C318.231 399.081 317.936 399.608 317.61 400.122C317.282 400.641 316.907 401.116 316.548 401.639C316.486 401.759 316.339 401.806 316.219 401.746C316.098 401.684 316.052 401.536 316.112 401.416C316.329 400.815 316.504 400.229 316.762 399.666C317.022 399.097 317.329 398.555 317.674 398.036C318.087 397.417 318.561 396.842 319.094 396.283C319.118 396.258 319.135 396.225 319.166 396.213C319.3 396.16 319.275 396.213 319.418 396.217C319.444 396.184 319.488 396.178 319.519 396.203C319.55 396.226 319.556 396.271 319.533 396.304" fill="#FFDD6F"/>
<path fill-rule="evenodd" clip-rule="evenodd" d="M317.358 397.617C317.418 397.718 317.402 397.592 317.414 397.708C317.418 397.757 317.394 397.794 317.373 397.838C317.243 398.091 317.076 398.32 316.933 398.565C316.834 398.732 316.723 398.889 316.626 399.056C316.574 399.165 316.444 399.211 316.333 399.161C316.222 399.108 316.176 398.976 316.228 398.868C316.283 398.716 316.329 398.567 316.401 398.423C316.508 398.207 316.649 398.007 316.797 397.817C316.882 397.706 316.94 397.551 317.072 397.502C317.173 397.465 317.144 397.506 317.251 397.522C317.278 397.493 317.323 397.491 317.352 397.516C317.381 397.543 317.385 397.588 317.358 397.617Z" fill="#FFDD6F"/>
<path fill-rule="evenodd" clip-rule="evenodd" d="M255.797 372.928C255.892 372.982 255.935 372.977 256.003 373.064C256.156 373.262 256.135 373.549 256.166 373.808C256.246 374.489 256.174 375.225 256.251 375.866C256.306 376.762 256.486 377.678 256.725 378.568C256.967 379.467 257.259 380.339 257.802 381.09C257.841 381.135 257.837 381.201 257.792 381.24C257.747 381.279 257.682 381.275 257.643 381.23C257.198 380.83 256.82 380.381 256.511 379.873C256.306 379.535 256.139 379.175 256.003 378.801C255.667 377.874 255.53 376.874 255.462 375.919C255.454 375.089 255.687 374.132 255.574 373.287C255.568 373.243 255.549 373.196 255.557 373.153C255.576 373.056 255.617 373.064 255.664 372.975C255.652 372.938 255.671 372.897 255.708 372.883C255.745 372.872 255.786 372.891 255.799 372.928" fill="#FFDD6F"/>
<path fill-rule="evenodd" clip-rule="evenodd" d="M291.192 327.061C291.498 327.279 291.817 327.477 292.139 327.65C292.241 327.704 293.223 328.298 293.84 328.3C294.271 328.3 294.615 328.131 294.849 327.815C295.059 327.533 295.146 327.172 295.086 326.762C294.993 326.127 294.397 325.257 294.16 324.906C293.596 324.072 292.197 322.387 290.786 321.742C289.909 321.34 289.022 321.301 288.248 321.779C287.852 322.026 287.654 322.398 287.668 322.874C287.687 323.527 288.376 324.564 288.545 324.799C288.908 325.3 289.321 325.725 289.779 326.098C290.218 326.455 290.695 326.766 291.192 327.061Z" fill="#FFDD6F"/>
<path fill-rule="evenodd" clip-rule="evenodd" d="M284.934 322.507C285.221 322.591 285.38 322.591 285.658 322.692C285.753 322.727 285.832 322.756 285.914 322.816C286.023 322.896 286.106 323.004 286.189 323.109C286.395 323.364 286.556 323.635 286.739 323.913C286.894 324.082 286.886 324.344 286.717 324.5C286.548 324.655 286.286 324.647 286.129 324.478C285.871 324.282 285.605 324.123 285.361 323.915C285.256 323.826 285.147 323.736 285.07 323.624C285.012 323.538 284.981 323.455 284.951 323.354C284.866 323.065 284.866 322.903 284.825 322.6C284.8 322.569 284.804 322.525 284.833 322.499C284.862 322.474 284.909 322.476 284.934 322.507Z" fill="#FFDD6F"/>
<path fill-rule="evenodd" clip-rule="evenodd" d="M294.927 330.825L294.849 330.922C294.785 331 294.832 331.12 294.828 331.221C294.801 331.885 294.791 332.555 294.836 333.237C294.865 333.682 294.925 334.126 295.005 334.571C295.521 337.47 296.495 340.323 297.938 342.762C297.95 342.784 297.975 342.794 297.999 342.784C298.02 342.772 298.03 342.747 298.02 342.724C296.982 340.077 296.722 337.07 296.462 334.13C296.437 333.839 296.4 333.55 296.357 333.262C296.291 332.823 296.21 332.392 296.124 331.965C296.05 331.596 296.056 331.207 295.88 330.881C295.862 330.85 295.854 330.838 295.823 330.825L295.734 330.782C295.707 330.802 295.62 330.811 295.424 330.798C295.42 330.759 295.385 330.73 295.346 330.732C295.307 330.736 295.278 330.77 295.28 330.809C295.061 330.866 294.962 330.858 294.927 330.823" fill="#FFDD6F"/>
<path fill-rule="evenodd" clip-rule="evenodd" d="M295.239 339.914C295.319 339.95 295.325 339.921 295.389 339.98C295.429 340.016 295.447 340.067 295.468 340.116C295.779 340.809 295.994 341.527 296.371 342.19C296.458 342.36 296.39 342.568 296.219 342.656C296.048 342.741 295.839 342.675 295.753 342.504C295.453 341.856 295.177 341.201 295.047 340.504C295.022 340.362 294.962 340.218 295.003 340.081C295.026 339.997 295.047 340.018 295.102 339.948C295.092 339.91 295.115 339.871 295.154 339.861C295.193 339.851 295.232 339.875 295.241 339.914" fill="#FFDD6F"/>
<path fill-rule="evenodd" clip-rule="evenodd" d="M291.617 347.569C291.751 347.664 291.84 347.678 291.952 347.798C292.03 347.88 292.071 347.987 292.127 348.086C292.362 348.507 292.587 348.926 292.82 349.346C293.363 350.329 293.999 351.261 294.498 352.271C294.682 352.642 294.799 353.028 294.95 353.415C295.051 353.593 294.989 353.82 294.811 353.921C294.632 354.022 294.405 353.96 294.302 353.782C294.048 353.455 293.772 353.16 293.545 352.814C293.02 352.016 292.616 351.144 292.22 350.278C291.914 349.61 291.648 348.928 291.428 348.223C291.413 348.169 291.386 348.119 291.384 348.064C291.378 347.882 291.44 347.796 291.483 347.618C291.469 347.581 291.489 347.54 291.525 347.526C291.562 347.513 291.603 347.53 291.619 347.569" fill="#FFDD6F"/>
<path fill-rule="evenodd" clip-rule="evenodd" d="M289.504 350.379C289.645 350.433 289.734 350.441 289.855 350.533C290.062 350.688 290.187 350.927 290.324 351.15C290.74 351.828 290.998 352.612 291.471 353.255C291.599 353.434 291.558 353.683 291.38 353.811C291.201 353.939 290.953 353.896 290.825 353.719C290.402 353.133 290.068 352.478 289.791 351.81C289.649 351.469 289.469 351.152 289.387 350.799C289.358 350.667 289.395 350.601 289.389 350.467C289.366 350.435 289.372 350.389 289.403 350.366C289.434 350.342 289.478 350.348 289.504 350.379Z" fill="#FFDD6F"/>
<path fill-rule="evenodd" clip-rule="evenodd" d="M284.699 328.912C285.118 328.881 285.491 328.877 285.941 328.98C286.327 329.069 286.684 329.252 287.053 329.446C287.365 329.611 287.666 329.805 287.953 330.013C288.654 330.522 289.263 331.12 289.783 331.606C290.121 331.945 290.767 332.303 290.897 332.827C290.959 333.076 290.955 333.192 290.877 333.416C290.955 333.649 290.827 333.899 290.594 333.975C290.361 334.051 290.111 333.924 290.033 333.691C289.915 333.61 289.808 333.711 289.686 333.616C289.344 333.351 289.015 332.961 288.731 332.705C288.13 332.107 287.328 331.417 286.545 330.741C286.193 330.438 285.856 330.149 285.53 329.852C285.365 329.7 285.27 329.545 285.111 329.401C284.957 329.263 284.821 329.159 284.658 329.05C284.62 329.038 284.598 328.999 284.608 328.961C284.618 328.922 284.658 328.9 284.695 328.91" fill="white"/>
<path fill-rule="evenodd" clip-rule="evenodd" d="M283.147 330.468C283.296 330.279 283.036 330.39 283.271 330.316C283.312 330.304 283.353 330.341 283.395 330.357C283.851 330.518 284.336 330.809 284.816 331.159C285.171 331.417 285.518 331.705 285.834 331.998C286.032 332.18 286.219 332.361 286.38 332.544C286.502 332.681 286.591 332.821 286.694 332.944C286.843 333.072 286.863 333.299 286.733 333.449C286.605 333.6 286.378 333.617 286.226 333.487C286.081 333.4 285.926 333.313 285.77 333.192C285.576 333.041 285.388 332.854 285.192 332.664C285.004 332.479 284.814 332.285 284.627 332.087C284.177 331.609 283.745 331.132 283.3 330.817C283.236 330.772 283.145 330.755 283.112 330.689C283.017 330.495 283.116 330.704 283.133 330.493C283.126 330.491 283.124 330.481 283.126 330.475C283.128 330.468 283.135 330.466 283.143 330.468" fill="white"/>
<path fill-rule="evenodd" clip-rule="evenodd" d="M276.352 334.388C276.476 334.449 276.437 334.365 276.522 334.472C276.6 334.567 276.588 334.699 276.608 334.822C276.703 335.396 276.722 335.983 276.765 336.569C276.79 336.907 276.812 337.245 276.823 337.585C276.841 338.094 276.835 338.601 276.845 339.108C276.854 339.618 276.881 340.123 276.885 340.63C276.887 340.98 276.866 341.312 276.868 341.659C276.878 341.714 276.841 341.766 276.784 341.776C276.728 341.786 276.678 341.749 276.668 341.692C276.548 341.337 276.424 340.993 276.338 340.624C276.14 339.787 276.037 338.929 275.962 338.065C275.929 337.674 275.909 337.28 275.905 336.89C275.9 336.299 275.903 335.713 275.948 335.13C275.964 334.93 275.927 334.719 276.022 334.544C276.086 334.429 276.107 334.476 276.206 334.392C276.206 334.354 276.237 334.32 276.276 334.319C276.315 334.319 276.348 334.348 276.35 334.388" fill="#8E6C6C"/>
</g>
<mask id="mask2_157_2" style="mask-type:luminance" maskUnits="userSpaceOnUse" x="211" y="320" width="126" height="129">
<path d="M336.542 320H211V448.774H336.542V320Z" fill="white"/>
</mask>
<g mask="url(#mask2_157_2)">
<path fill-rule="evenodd" clip-rule="evenodd" d="M273.038 338.566C272.972 337.847 273.501 337.208 274.221 337.142L276.829 336.9C277.549 336.833 278.187 337.364 278.255 338.082L278.651 342.339C278.717 343.058 278.187 343.697 277.467 343.765L274.86 344.005C274.14 344.073 273.501 343.541 273.433 342.823L273.038 338.566Z" fill="#352323"/>
<path fill-rule="evenodd" clip-rule="evenodd" d="M275.221 335.031C275.189 333.483 276.505 331.446 279.21 331.567C281.315 331.66 282.575 334.47 283.023 336.956C283.634 340.337 283.904 345.268 284.125 346.907C284.268 347.969 283.939 348.253 281.492 348.608C277.956 349.121 276.92 349.047 276.458 347.932C275.956 346.72 275.286 338.315 275.222 335.031" fill="#4C3636"/>
<path fill-rule="evenodd" clip-rule="evenodd" d="M281.094 338.23C281.013 337.36 281.655 336.587 282.526 336.505L285.685 336.212C286.556 336.13 287.33 336.773 287.412 337.643L287.827 342.116C287.909 342.986 287.266 343.759 286.395 343.84L283.236 344.134C282.365 344.215 281.591 343.572 281.509 342.702L281.094 338.23Z" fill="#4C3636"/>
<path fill-rule="evenodd" clip-rule="evenodd" d="M277.254 347.722C277.233 347.684 277.206 347.678 277.194 347.633C277.138 347.412 277.159 347.148 277.087 346.883C276.963 346.423 276.779 345.947 276.715 345.571L276.067 340.284C276.061 340.257 276.078 340.23 276.105 340.224C276.133 340.218 276.16 340.236 276.166 340.263C276.358 340.956 276.517 341.65 276.629 342.355C276.798 343.403 276.883 344.464 277.054 345.518C277.116 345.949 277.341 346.514 277.438 347.035C277.481 347.264 277.572 347.509 277.471 347.684C277.446 347.726 277.433 347.719 277.392 347.746C277.386 347.785 277.349 347.812 277.308 347.804C277.27 347.798 277.242 347.759 277.25 347.72" fill="#8E6C6C"/>
<path fill-rule="evenodd" clip-rule="evenodd" d="M277.904 345.054L278.36 347.282C278.37 347.311 278.352 347.34 278.323 347.35C278.294 347.357 278.265 347.342 278.255 347.313C278.164 347.105 278.053 346.901 277.966 346.678C277.881 346.458 277.811 346.229 277.766 346C277.702 345.676 277.698 345.353 277.745 345.042C277.749 345 277.786 344.967 277.828 344.971C277.871 344.974 277.904 345.011 277.902 345.054" fill="#8E6C6C"/>
<path fill-rule="evenodd" clip-rule="evenodd" d="M278.985 346.029C279.027 346.136 279.072 346.241 279.099 346.353C279.161 346.606 279.173 346.868 279.223 347.124C279.235 347.173 279.204 347.221 279.156 347.233C279.107 347.245 279.059 347.216 279.047 347.167L278.845 346.066C278.835 346.027 278.859 345.988 278.897 345.98C278.936 345.971 278.975 345.994 278.985 346.033" fill="#8E6C6C"/>
<path fill-rule="evenodd" clip-rule="evenodd" d="M277.832 333.546C277.902 333.761 277.972 333.979 278.022 334.2C278.141 334.713 278.207 335.235 278.315 335.75C278.327 335.804 278.292 335.861 278.236 335.872C278.18 335.884 278.125 335.849 278.112 335.795L277.691 333.583C277.681 333.544 277.704 333.505 277.741 333.495C277.78 333.485 277.819 333.507 277.828 333.546" fill="#8E6C6C"/>
<path fill-rule="evenodd" clip-rule="evenodd" d="M277.209 334.109L277.446 335.563C277.46 335.62 277.425 335.674 277.368 335.688C277.312 335.699 277.256 335.666 277.244 335.61C277.194 335.414 277.149 335.218 277.126 335.018C277.093 334.724 277.097 334.429 277.066 334.134C277.06 334.095 277.085 334.058 277.126 334.053C277.165 334.047 277.202 334.072 277.209 334.111" fill="#8E6C6C"/>
<path fill-rule="evenodd" clip-rule="evenodd" d="M276.332 334.575C276.383 334.752 276.439 334.921 276.464 335.101C276.567 335.795 276.505 336.498 276.633 337.199C276.649 337.284 276.592 337.366 276.507 337.381C276.422 337.397 276.34 337.34 276.325 337.255C276.241 336.806 276.206 336.362 276.189 335.915C276.177 335.608 276.146 335.301 276.154 334.992C276.158 334.857 276.181 334.73 276.189 334.594C276.183 334.555 276.212 334.519 276.251 334.515C276.29 334.509 276.327 334.536 276.33 334.577" fill="#8E6C6C"/>
<path fill-rule="evenodd" clip-rule="evenodd" d="M274.318 338.917C274.452 339.236 274.535 339.589 274.58 339.952C274.644 340.477 274.636 341.022 274.718 341.514C274.726 341.562 274.695 341.609 274.646 341.619C274.598 341.626 274.549 341.595 274.541 341.547C274.423 340.89 274.429 340.143 274.305 339.465C274.274 339.294 274.239 339.127 274.184 338.968C274.171 338.931 274.188 338.89 274.225 338.875C274.262 338.861 274.303 338.878 274.318 338.917Z" fill="#8E6C6C"/>
<path fill-rule="evenodd" clip-rule="evenodd" d="M283.661 337.785C283.702 337.867 283.739 337.944 283.762 338.036C283.847 338.358 283.828 338.719 283.884 339.034L284.42 342.401C284.435 342.456 284.4 342.512 284.346 342.528C284.292 342.541 284.234 342.51 284.22 342.454C284.065 342.013 283.9 341.584 283.791 341.133C283.628 340.461 283.56 339.772 283.49 339.077L283.519 337.818C283.512 337.779 283.535 337.74 283.572 337.733C283.611 337.723 283.649 337.748 283.659 337.787" fill="#8E6C6C"/>
<path fill-rule="evenodd" clip-rule="evenodd" d="M284.806 338.847L284.87 340.758C284.874 340.801 284.843 340.84 284.798 340.844C284.755 340.848 284.717 340.815 284.713 340.772C284.674 340.45 284.643 340.131 284.641 339.809C284.641 339.49 284.666 339.174 284.662 338.853C284.66 338.814 284.691 338.779 284.73 338.777C284.771 338.776 284.804 338.807 284.806 338.845" fill="#8E6C6C"/>
<path fill-rule="evenodd" clip-rule="evenodd" d="M321.941 428.932C321.98 428.777 322.005 428.664 322.104 428.526C322.181 428.419 322.302 428.348 322.414 428.268C322.901 427.924 323.526 427.703 323.996 427.491C325.232 426.977 326.598 426.526 327.983 426.262C328.536 426.157 329.091 426.077 329.64 426.046C329.865 426.035 330.088 426.023 330.311 426.042C330.471 426.056 330.608 426.091 330.764 426.12C330.907 426.108 331.031 426.215 331.043 426.359C331.055 426.503 330.946 426.627 330.804 426.639C330.616 426.699 330.447 426.773 330.253 426.825C329.982 426.897 329.706 426.949 329.423 427.002C328.361 427.196 327.265 427.392 326.21 427.664C325.548 427.835 324.896 428.01 324.281 428.223L322.049 429.029C322.024 429.058 321.978 429.062 321.948 429.035C321.919 429.01 321.916 428.963 321.943 428.934" fill="#251818"/>
<path fill-rule="evenodd" clip-rule="evenodd" d="M325.746 427.971C325.748 427.848 325.678 427.982 325.748 427.883C325.765 427.858 325.802 427.862 325.831 427.852C326.14 427.748 326.466 427.68 326.809 427.66C327.642 427.615 328.521 427.815 329.285 427.899C329.45 427.918 329.568 428.07 329.549 428.235C329.53 428.4 329.378 428.518 329.213 428.499L325.775 428.111C325.736 428.118 325.697 428.095 325.69 428.056C325.682 428.017 325.705 427.979 325.744 427.971" fill="#251818"/>
<path fill-rule="evenodd" clip-rule="evenodd" d="M317.441 425.514C317.722 425.78 318.074 425.976 318.495 426.072C320.412 426.505 321.824 425.382 322.306 423.908C322.775 422.467 322.356 420.717 320.687 419.917C318.978 419.109 317.344 419.999 316.591 421.438C315.881 422.793 315.955 424.557 317.441 425.514Z" fill="#251818"/>
<path fill-rule="evenodd" clip-rule="evenodd" d="M269.458 431.876C270.185 432.422 271.062 432.649 271.916 432.344C273.35 431.83 273.874 430.072 273.451 428.392C273.04 426.761 271.796 425.423 270.395 425.526C269.557 425.59 268.93 425.971 268.517 426.53C267.616 427.429 267.554 428.955 268.183 430.284C268.414 430.771 268.726 431.21 269.093 431.564C269.192 431.661 269.295 431.752 269.403 431.834L269.411 431.839L269.423 431.849L269.446 431.867L269.458 431.874V431.876Z" fill="#251818"/>
<path fill-rule="evenodd" clip-rule="evenodd" d="M314.272 405.432L326.539 414.05C326.539 414.05 327.872 416.53 325.75 417.468L313.079 408.784L314.27 405.432H314.272Z" fill="#251818"/>
<path fill-rule="evenodd" clip-rule="evenodd" d="M305.851 400.243L263.167 370.666L262.684 374.377L304.217 402.406L305.851 400.243Z" fill="#251818"/>
<path fill-rule="evenodd" clip-rule="evenodd" d="M280.966 333.777L280.832 333.344C280.772 333.235 280.615 332.959 280.469 332.829C280.357 332.728 280.236 332.691 280.135 332.695C279.984 332.701 279.897 332.779 279.846 332.889C279.802 332.984 279.901 333.322 279.914 333.363L280.263 334.258L280.908 336.505L281.781 344.479L282.035 346.682C282.06 346.825 282.086 347.117 282.169 347.338C282.237 347.519 282.346 347.66 282.472 347.75C282.821 347.994 283.102 347.905 283.281 347.519C283.347 347.447 283.397 347.365 283.434 347.276C283.502 347.115 283.512 346.918 283.541 346.751C283.583 346.513 283.593 346.28 283.583 346.046C283.564 345.559 283.453 345.079 283.407 344.588L283.011 341.997C282.858 340.768 282.763 339.498 282.538 338.265C282.439 337.721 282.307 337.189 282.151 336.666L281.09 333.955L280.964 333.779L280.966 333.777Z" fill="#352323"/>
<path fill-rule="evenodd" clip-rule="evenodd" d="M286.77 337.123C286.81 337.142 286.841 337.177 286.855 337.224C286.859 337.235 286.861 337.249 286.861 337.261C286.905 337.336 286.942 337.424 286.975 337.517C287.078 337.814 287.117 338.218 287.154 338.383C287.262 338.867 287.363 339.346 287.414 339.834C287.443 340.106 287.455 340.38 287.46 340.652L287.472 341.034C287.472 341.059 287.472 341.141 287.468 341.252V341.296L287.433 341.896L287.35 342.248C287.239 342.601 287.134 342.757 287.057 342.799C286.853 342.918 286.564 342.974 286.403 342.592C286.283 342.306 286.127 341.506 286.106 341.376L285.926 340.341L285.836 338.356C285.829 338.294 285.84 338.234 285.869 338.183L285.83 337.653C285.838 337.432 286.013 336.993 286.139 336.931C286.263 336.87 286.418 336.859 286.607 336.977C286.665 337.012 286.719 337.063 286.768 337.125M286.832 337.385C286.882 337.36 286.927 337.336 286.876 337.35C286.855 337.356 286.839 337.368 286.832 337.385Z" fill="#352323"/>
<path fill-rule="evenodd" clip-rule="evenodd" d="M279.365 338.925C279.454 338.935 279.536 338.871 279.546 338.781C279.584 338.702 279.516 338.661 279.491 338.61C279.462 338.554 279.276 338.556 279.189 338.508L278.558 338.414C278.325 338.395 278.09 338.344 277.856 338.342C277.597 338.34 277.355 338.385 277.107 338.44C276.992 338.443 276.905 338.541 276.911 338.653C276.916 338.766 277.011 338.855 277.124 338.849L278.506 339.071L279.13 339.03C279.198 339.01 279.404 338.993 279.363 338.923" fill="#352323"/>
<path fill-rule="evenodd" clip-rule="evenodd" d="M279.212 340.016C279.194 340.04 279.171 340.069 279.163 340.069C279.078 340.063 279.088 340.1 279.107 340.156L279.111 340.143C279.142 340.059 279.235 340.015 279.321 340.046C279.582 339.941 279.419 340.244 279.427 340.316C279.431 340.352 279.379 340.333 279.319 340.397C279.282 340.436 279.092 340.483 279.01 340.516H278.506C278.195 340.444 277.861 340.461 277.549 340.382C277.301 340.319 277.099 340.209 276.885 340.077C276.814 340.055 276.775 339.982 276.794 339.912C276.814 339.84 276.887 339.799 276.959 339.82C277.293 339.834 277.596 339.725 277.935 339.712C278.172 339.702 278.407 339.754 278.636 339.799L279.018 339.917C279.064 339.935 279.169 340.032 279.216 340.018M279.128 340.288V340.302C279.128 340.302 279.128 340.308 279.134 340.31H279.146L279.134 340.298L279.128 340.288ZM279.216 340.018C279.235 339.995 279.247 339.976 279.231 340.005C279.227 340.013 279.222 340.016 279.216 340.018Z" fill="#352323"/>
<path fill-rule="evenodd" clip-rule="evenodd" d="M279.303 341.558L278.692 341.358C278.385 341.3 278.086 341.217 277.782 341.234C277.466 341.252 277.188 341.362 276.878 341.448C276.831 341.45 276.794 341.49 276.796 341.537C276.798 341.584 276.839 341.621 276.885 341.619C277.134 341.675 277.341 341.768 277.59 341.803C277.929 341.85 278.275 341.811 278.624 341.848L279.392 341.949C279.466 341.968 279.544 341.939 279.584 341.873C279.623 341.809 279.617 341.725 279.567 341.669L279.544 341.694C279.532 341.617 279.466 341.558 279.386 341.556C279.354 341.553 279.326 341.553 279.303 341.558Z" fill="#352323"/>
<path fill-rule="evenodd" clip-rule="evenodd" d="M279.241 342.961H279.237C279.138 342.955 278.876 342.912 278.833 342.906L277.755 342.695C277.65 342.663 277.541 342.726 277.512 342.829C277.483 342.931 277.543 343.04 277.646 343.071L278.828 343.374C278.876 343.368 279.165 343.326 279.272 343.298C279.588 343.217 279.499 342.99 279.34 342.963C279.307 342.951 279.274 342.951 279.241 342.961Z" fill="#352323"/>
<path fill-rule="evenodd" clip-rule="evenodd" d="M256.329 367.642L255.37 370.568L240.862 360.849L241.838 357.798L256.329 367.642Z" fill="#251818"/>
<path fill-rule="evenodd" clip-rule="evenodd" d="M243.753 360.606V360.569C243.759 360.497 243.668 360.45 243.623 360.392C243.198 359.825 242.711 359.27 242.162 358.755C241.276 357.926 240.263 357.198 239.393 356.479C237.282 354.782 235.229 352.849 232.874 351.585C231.727 350.969 230.51 350.503 229.195 350.299C229.028 350.274 228.863 350.245 228.694 350.239C228.302 350.224 227.92 350.272 227.518 350.327C227.398 350.325 227.297 350.42 227.295 350.54C227.293 350.661 227.388 350.762 227.509 350.764C227.885 350.832 228.229 350.942 228.587 351.028C228.741 351.063 228.894 351.088 229.045 351.121C230.254 351.379 231.362 351.84 232.416 352.428C234.704 353.704 236.731 355.56 238.802 357.221C239.597 357.844 240.472 358.516 241.34 359.18C241.908 359.615 242.479 360.033 242.979 360.495C243.109 360.616 243.187 360.823 243.356 360.858C243.542 360.899 243.35 360.858 243.528 360.79C243.554 360.821 243.598 360.825 243.629 360.8C243.66 360.775 243.664 360.73 243.639 360.699C243.693 360.641 243.73 360.614 243.753 360.608" fill="#251818"/>
<path fill-rule="evenodd" clip-rule="evenodd" d="M211 345.811L228.199 348.241L228.624 352.673L212.052 354.982L211 345.811Z" fill="#251818"/>
<path fill-rule="evenodd" clip-rule="evenodd" d="M225.768 349.569C225.731 349.622 225.735 349.647 225.681 349.682C225.413 349.859 225.046 349.806 224.715 349.82C223.902 349.855 223.056 349.725 222.275 349.707C221.641 349.686 221.001 349.663 220.36 349.614C219.413 349.544 218.465 349.443 217.516 349.383C216.778 349.336 216.045 349.34 215.311 349.315C214.989 349.303 214.679 349.264 214.359 349.253C214.304 349.259 214.258 349.22 214.252 349.165C214.246 349.111 214.285 349.064 214.339 349.059C214.658 348.981 214.966 348.897 215.29 348.855C216.031 348.758 216.788 348.779 217.541 348.796C218.5 348.816 219.46 348.874 220.413 348.95C221.049 349 221.68 349.072 222.308 349.117C222.974 349.171 223.682 349.299 224.381 349.36C224.79 349.395 225.196 349.305 225.588 349.363C225.654 349.373 225.677 349.406 225.739 349.431C225.778 349.424 225.817 349.447 225.824 349.486C225.832 349.525 225.809 349.563 225.77 349.571" fill="#694D4D"/>
<path fill-rule="evenodd" clip-rule="evenodd" d="M222.359 350.801C221.598 350.771 220.847 350.847 220.085 350.898C219.576 350.931 219.068 350.956 218.558 350.96C218.282 350.96 218.007 350.962 217.733 350.931C217.452 350.898 217.188 350.83 216.912 350.766C216.872 350.764 216.841 350.729 216.842 350.688C216.844 350.647 216.879 350.616 216.92 350.618C217.186 350.589 217.436 350.536 217.702 350.509C217.875 350.492 218.047 350.484 218.22 350.478C218.872 350.453 219.526 350.424 220.18 350.435C220.917 350.445 221.647 350.523 222.373 350.653C222.413 350.657 222.444 350.696 222.439 350.736C222.435 350.777 222.398 350.808 222.355 350.802" fill="#694D4D"/>
<path fill-rule="evenodd" clip-rule="evenodd" d="M216.59 351.74C216.464 351.762 216.348 351.801 216.222 351.814C215.934 351.845 215.643 351.828 215.354 351.84C215.284 351.843 215.222 351.789 215.218 351.719C215.214 351.649 215.269 351.587 215.339 351.583C215.632 351.562 215.921 351.507 216.214 351.527C216.344 351.535 216.464 351.572 216.592 351.599C216.631 351.599 216.664 351.632 216.662 351.671C216.662 351.709 216.629 351.742 216.588 351.74" fill="#694D4D"/>
<path fill-rule="evenodd" clip-rule="evenodd" d="M253.05 367.183C252.454 366.896 251.87 366.568 251.311 366.181C250.232 365.434 249.221 364.54 248.191 363.707C247.359 363.035 246.515 362.41 245.628 361.88C245.401 361.744 245.18 361.602 244.947 361.476C244.922 361.466 244.91 361.437 244.92 361.412C244.931 361.387 244.96 361.375 244.986 361.385C245.917 361.728 246.804 362.206 247.642 362.791C248.773 363.579 249.829 364.527 250.913 365.395C251.348 365.742 251.791 366.077 252.229 366.403C252.528 366.626 252.815 366.853 253.122 367.057C253.157 367.077 253.168 367.119 253.151 367.154C253.131 367.189 253.087 367.201 253.054 367.182" fill="#694D4D"/>
<path fill-rule="evenodd" clip-rule="evenodd" d="M249.522 365.89L246.726 364.146C246.678 364.117 246.664 364.055 246.693 364.006C246.722 363.958 246.784 363.944 246.833 363.973C247.304 364.247 247.803 364.494 248.275 364.785C248.752 365.08 249.196 365.416 249.613 365.777C249.644 365.803 249.65 365.847 249.625 365.878C249.6 365.91 249.555 365.915 249.524 365.89" fill="#694D4D"/>
<path fill-rule="evenodd" clip-rule="evenodd" d="M298.218 396.98C298.101 396.933 297.987 396.896 297.872 396.84C297.432 396.625 297.022 396.357 296.601 396.102C294.508 394.842 292.453 393.512 290.4 392.181C285.615 389.078 280.875 385.899 276.13 382.731C274.945 381.939 273.765 381.135 272.58 380.343C272.545 380.319 272.533 380.271 272.556 380.236C272.58 380.199 272.628 380.189 272.665 380.213C274.048 381.075 275.434 381.933 276.81 382.811C282.303 386.324 287.747 389.915 293.219 393.453C294.417 394.228 295.618 394.997 296.805 395.784C297.213 396.054 297.634 396.306 298.02 396.609C298.119 396.687 298.202 396.774 298.297 396.858C298.33 396.879 298.34 396.924 298.321 396.957C298.299 396.99 298.255 397.001 298.222 396.98" fill="#694D4D"/>
<path fill-rule="evenodd" clip-rule="evenodd" d="M321.017 412.755C320.879 412.685 320.765 412.662 320.637 412.573C320.567 412.524 320.515 412.458 320.454 412.398C319.674 411.598 318.788 410.865 317.899 410.143C317.292 409.65 316.711 409.133 316.137 408.648C316.04 408.576 316.021 408.438 316.092 408.343C316.164 408.246 316.302 408.226 316.399 408.298C316.929 408.644 317.486 408.978 318.019 409.36C318.547 409.739 319.057 410.151 319.535 410.59C320.059 411.069 320.625 411.53 320.957 412.137C321.052 412.312 321.075 412.477 321.132 412.668C321.155 412.699 321.149 412.745 321.118 412.769C321.087 412.794 321.042 412.786 321.017 412.755Z" fill="#694D4D"/>
</g>
</g>
<defs>
<clipPath id="clip0_157_2">
<rect width="125.542" height="128.774" fill="white" transform="translate(211 320)"/>
</clipPath>
</defs>
</svg>
