<svg id="visual" viewBox="0 0 900 600" width="900" height="600" xmlns="http://www.w3.org/2000/svg" xmlns:xlink="http://www.w3.org/1999/xlink" version="1.1"><g transform="translate(471.5068369080649 326.6813319899891)"><path d="M175.7 -259.3C225.5 -241.3 262.4 -189 281.9 -132.7C301.5 -76.5 303.7 -16.2 287.2 35.5C270.7 87.2 235.5 130.4 195.9 161.7C156.2 193.1 112.2 212.6 70 213.7C27.8 214.8 -12.5 197.3 -71.1 199.6C-129.7 201.8 -206.5 223.7 -259.1 202.5C-311.7 181.4 -339.9 117.2 -341.2 54.1C-342.5 -9 -316.8 -71 -273.1 -107.3C-229.4 -143.6 -167.7 -154.2 -119.2 -172.9C-70.6 -191.6 -35.3 -218.3 13.8 -239.7C62.9 -261.2 125.8 -277.4 175.7 -259.3" fill="#f5c221"></path></g></svg>