<svg id="visual" viewBox="0 0 900 600" width="900" height="600" xmlns="http://www.w3.org/2000/svg" xmlns:xlink="http://www.w3.org/1999/xlink" version="1.1"><g transform="translate(497.31050467910336 293.1214979900919)"><path d="M132 -204.4C162 -186.1 171.1 -134.2 190.3 -88.1C209.5 -42 238.9 -1.7 232.5 32.5C226.1 66.6 183.9 94.7 152 131.8C120 168.9 98.3 214.9 60.1 244.2C21.9 273.5 -32.9 285.9 -90.4 281.2C-147.8 276.4 -208.1 254.5 -248.6 212.6C-289.1 170.8 -309.8 109.2 -320.6 45.1C-331.4 -19 -332.2 -85.5 -310.8 -146C-289.5 -206.5 -246.1 -261 -190.6 -267.7C-135.2 -274.3 -67.6 -233.2 -8.3 -220.3C51 -207.4 102 -222.7 132 -204.4" fill="#f5c221"></path></g></svg>