<svg id="visual" viewBox="0 0 900 300" width="900" height="300" xmlns="http://www.w3.org/2000/svg" xmlns:xlink="http://www.w3.org/1999/xlink" version="1.1"><rect x="0" y="0" width="900" height="300" fill="#0cc1e1"></rect><path d="M0 73L75 83.7C150 94.3 300 115.7 450 110.7C600 105.7 750 74.3 825 58.7L900 43L900 301L825 301C750 301 600 301 450 301C300 301 150 301 75 301L0 301Z" fill="#18657e"></path><path d="M0 131L75 133.7C150 136.3 300 141.7 450 140.3C600 139 750 131 825 127L900 123L900 301L825 301C750 301 600 301 450 301C300 301 150 301 75 301L0 301Z" fill="#19728c"></path><path d="M0 108L75 115C150 122 300 136 450 147C600 158 750 166 825 170L900 174L900 301L825 301C750 301 600 301 450 301C300 301 150 301 75 301L0 301Z" fill="#197e9a"></path><path d="M0 164L75 164.7C150 165.3 300 166.7 450 171.8C600 177 750 186 825 190.5L900 195L900 301L825 301C750 301 600 301 450 301C300 301 150 301 75 301L0 301Z" fill="#188ba8"></path><path d="M0 224L75 217.7C150 211.3 300 198.7 450 188.3C600 178 750 170 825 166L900 162L900 301L825 301C750 301 600 301 450 301C300 301 150 301 75 301L0 301Z" fill="#1799b6"></path><path d="M0 235L75 235.2C150 235.3 300 235.7 450 229.2C600 222.7 750 209.3 825 202.7L900 196L900 301L825 301C750 301 600 301 450 301C300 301 150 301 75 301L0 301Z" fill="#15a6c4"></path><path d="M0 240L75 236.5C150 233 300 226 450 226.2C600 226.3 750 233.7 825 237.3L900 241L900 301L825 301C750 301 600 301 450 301C300 301 150 301 75 301L0 301Z" fill="#11b3d3"></path><path d="M0 252L75 255.2C150 258.3 300 264.7 450 268.2C600 271.7 750 272.3 825 272.7L900 273L900 301L825 301C750 301 600 301 450 301C300 301 150 301 75 301L0 301Z" fill="#0cc1e1"></path></svg>